<?xml version="1.0" encoding="utf-8"?>
<!-- Generator: Adobe Illustrator 16.0.0, SVG Export Plug-In . SVG Version: 6.00 Build 0)  -->
<!DOCTYPE svg PUBLIC "-//W3C//DTD SVG 1.1//EN" "http://www.w3.org/Graphics/SVG/1.1/DTD/svg11.dtd">
<svg version="1.1" id="Layer_1" xmlns="http://www.w3.org/2000/svg" xmlns:xlink="http://www.w3.org/1999/xlink" x="0px" y="0px"
	 width="100px" height="143.74px" viewBox="0 0 100 143.74" enable-background="new 0 0 100 143.74" xml:space="preserve">
<g>
	<path fill-rule="evenodd" clip-rule="evenodd" d="M46.36,0c2.433,0,4.866,0,7.299,0c1.318,0.258,2.639,0.497,3.951,0.777
		c8.53,1.821,15.645,6.053,21.215,12.746c5.133,6.17,8.171,13.287,8.5,21.349c0.267,6.54,0.176,13.094,0.242,19.642
		c0.005,0.541,0,1.081,0,1.427c1.892,0.534,3.65,0.777,5.173,1.51c4.661,2.245,7.21,6.064,7.225,11.257
		c0.059,20.868,0.024,41.736,0.021,62.604c0,0.281-0.011,0.562-0.034,0.842c-0.29,3.418-1.74,6.229-4.291,8.535
		c-1.834,1.657-4.079,2.356-6.349,3.052c-26.203,0-52.406,0-78.608,0c-1.9-0.84-3.995-1.403-5.657-2.578
		c-3.663-2.589-5.058-6.378-5.048-10.833c0.042-20.212,0.018-40.425,0.02-60.638c0-0.609-0.009-1.22,0.046-1.824
		c0.4-4.41,2.449-7.858,6.353-9.945c1.803-0.964,3.898-1.382,6.031-2.106c0-0.285,0-0.792,0-1.302c0-5.38-0.096-10.764,0.039-16.142
		c0.075-2.93,0.195-5.938,0.893-8.763C17.064,14.719,26.309,5.118,41.19,1.096C42.887,0.636,44.636,0.361,46.36,0z M87.372,68.845
		c-24.929,0-49.792,0-74.728,0c0,20.769,0,41.465,0,62.247c24.933,0,49.791,0,74.728,0C87.372,110.315,87.372,89.619,87.372,68.845z
		 M74.75,56.127c0-7.358,0.508-14.592-0.104-21.732C73.322,18.933,56.628,8.638,41.997,13.86
		c-10.412,3.717-16.919,12.881-16.974,23.958c-0.028,5.703-0.007,11.407-0.002,17.11c0,0.401,0.051,0.803,0.079,1.199
		C41.766,56.127,58.303,56.127,74.75,56.127z"/>
	<path fill-rule="evenodd" clip-rule="evenodd" d="M49.974,118.742c-3.248-0.012-5.966-2.473-6.133-5.716
		c-0.127-2.473-0.016-4.958-0.12-7.433c-0.023-0.545-0.367-1.256-0.798-1.577c-4.325-3.219-6.194-7.527-5.137-12.753
		c1.029-5.098,4.326-8.459,9.42-9.676c7.336-1.754,14.406,3.45,15.167,10.712c0.522,4.985-1.401,8.799-5.335,11.757
		c-0.401,0.301-0.725,0.959-0.744,1.466c-0.093,2.475,0.013,4.96-0.111,7.433C56.016,116.286,53.29,118.755,49.974,118.742z"/>
</g>
</svg>
