<?xml version="1.0" encoding="utf-8"?>
<!-- Generator: Adobe Illustrator 16.0.0, SVG Export Plug-In . SVG Version: 6.00 Build 0)  -->
<!DOCTYPE svg PUBLIC "-//W3C//DTD SVG 1.1//EN" "http://www.w3.org/Graphics/SVG/1.1/DTD/svg11.dtd">
<svg version="1.1" id="Layer_1" xmlns="http://www.w3.org/2000/svg" xmlns:xlink="http://www.w3.org/1999/xlink" x="0px" y="0px"
	 width="358.476px" height="358.346px" viewBox="0 0 358.476 358.346" enable-background="new 0 0 358.476 358.346"
	 xml:space="preserve">
<path fill-rule="evenodd" clip-rule="evenodd" fill="#07834B" d="M179.413,358.346C80.958,358.336,0.628,278.314,0.004,180.909
	C-0.637,81.049,80.765-1.209,181.591,0.014c96.36,1.168,176.707,79.464,176.885,178.754
	C358.653,278.117,278.4,358.357,179.413,358.346z M179.787,55.534c-68.1-0.524-123.85,54.895-124.165,123.427
	c-0.312,67.981,54.731,123.287,123.342,123.93c67.392,0.631,123.46-54.813,123.922-122.543
	C303.355,111.596,248.586,56.063,179.787,55.534z M71.346,294.835c-7.578,2.241-16.644-5.11-17.67-13.047
	c-0.966-7.479,3.754-13.693,10.836-14.396c9.188-0.909,15.723,5.851,16.717,17.398c1.88,2.073,3.513,4.53,6.213,6.235
	c0.314-0.771,0.549-1.206,0.67-1.669c3.189-12.158-6.029-25.968-19.292-28.917c-12.651-2.813-23.12,6.037-22.421,18.954
	c0.633,11.694,10.41,22.146,22.048,23.451c5.541,0.622,10.51-0.654,14.864-4.83c-6.466-7.029-12.662-13.767-18.974-20.63
	c-1.827,1.708-3.248,3.037-4.765,4.457c2.057,2.295,3.872,4.337,5.706,6.36C67.186,290.308,69.111,292.394,71.346,294.835z
	 M291.998,65.357c3.911-6.415,1.577-13.535-5.134-17.064c-4.506-2.371-9.397-1.923-12.522,1.146
	c-3.551,3.486-3.965,7.648-1.215,12.642c1.32,2.399,2.772,4.728,4.028,7.16c0.887,1.716,0.62,3.408-0.808,4.794
	c-1.544,1.499-3.33,1.532-5.194,0.705c-3.132-1.39-4.023-3.704-3.243-8.563c-1.738-1.417-3.538-2.887-5.346-4.361
	c-1.853,1.507-2.33,3.271-2.476,5.16c-0.587,7.63,7.169,15.556,14.835,15.148c3.432-0.182,6.223-1.597,8.276-4.42
	c3.187-4.38,2.261-8.652-0.206-12.946c-1.529-2.662-3.903-4.909-4.193-8.157c0.907-2.401,2.471-3.653,4.941-2.761
	c3.417,1.233,3.569,4.033,2.727,7.083C288.337,62.421,290.066,63.808,291.998,65.357z M16.443,156.193
	c-0.531,7.641-1.055,15.183-1.605,23.112c2.156-0.258,3.887,0.923,5.88,0.006c1.228-4.363,0.205-9.073,1.726-13.876
	c7.129,5.302,13.939,10.327,20.7,15.417c2.278,1.715,4.656,1.994,7.349,1.204c0.576-8.263,1.138-16.334,1.713-24.591
	c-2.125-0.408-3.916-0.761-5.876-0.353c-1.234,5.066-0.344,10.353-1.86,15.699c-6.846-5.105-13.427-9.818-19.765-14.837
	C22.168,155.966,19.622,155.786,16.443,156.193z M196.302,342.053c-1.181-10.571-2.308-20.658-3.461-30.985
	c-2.851,0.339-5.16,0.613-7.935,0.942c1.346,12.563,2.654,24.781,4.008,37.43c7.153-0.739,13.898-1.437,20.93-2.163
	c-0.208-2.386,0.012-4.341-1.126-6.354C204.722,341.286,200.773,341.646,196.302,342.053z M140.736,41.071
	c-5.408,2.256-10.65,4.442-15.839,6.605c0.284,1.685,0.532,2.875,1.917,3.622c3.003-1.181,6.067-2.385,9.378-3.688
	c-1.166,5.225-6.28,8.467-11.051,7.424c-4.642-1.016-7.394-5.024-6.45-9.399c0.964-4.469,6.377-8.205,10.882-6.993
	c3.099,0.834,5.458,0.147,8.257-1.805c-5.567-3.553-10.89-3.617-16.292-0.894c-6.362,3.208-9.492,10.098-7.38,15.895
	c2.11,5.792,8.929,8.879,15.94,7.147c1.324-0.327,2.657-0.786,3.857-1.426C140.512,54.064,144.067,46.168,140.736,41.071z
	 M126.977,341.758c3.373,0.801,6.248,1.552,9.155,2.144c1.454,0.296,2.966,0.409,4.454,0.421c5.794,0.045,10.551-3.322,12.257-8.588
	c1.737-5.362-0.303-11.029-5.269-14.311c-4.252-2.809-9.172-3.503-14.412-4.585C131.096,325.169,129.098,333.216,126.977,341.758z
	 M53.003,73.131c8.948,8.08,17.675,15.959,26.564,23.985c4.677-5.16,8.999-9.928,13.462-14.853c-1.68-1.449-3.065-2.645-4.698-4.054
	c-2.84,3.037-5.528,5.91-8.385,8.964c-7.359-6.618-14.536-13.072-22.205-19.969c-0.81,1.113-1.369,1.945-1.995,2.723
	C54.97,70.894,54.136,71.814,53.003,73.131z M292.653,293.556c0.282-0.767,0.548-1.442,0.781-2.129
	c1.263-3.722,0.385-7.264-2.345-9.493c-2.592-2.117-6.516-2.146-9.762,0.02c-3.434,2.291-6.124,5.362-9.145,8.468
	c6.042,6.359,11.835,12.456,17.551,18.471c1.529-1.425,2.685-2.501,3.961-3.689c-2.01-2.191-3.908-4.261-6.485-7.069
	c4.788,0.688,8.566,1.23,12.348,1.774c1.482-1.401,2.82-2.666,4.414-4.173C300.146,294.218,296.278,294.959,292.653,293.556z
	 M202.228,49.69c10.037,0.219,16.727-8.421,12.94-16.715c-4.163-9.119-18.31-11.007-24.7-3.296
	c-1.646,1.987-2.548,4.229-2.604,6.852C187.706,43.742,193.966,49.51,202.228,49.69z M112.051,61.711
	c0.112-6.569-4.743-11.415-11.587-11.567c-8.317-0.185-15.515,6.423-15.67,14.385c-0.127,6.507,4.797,11.494,11.551,11.699
	C104.323,76.47,111.919,69.448,112.051,61.711z M32.638,138.777c-0.037,7.425,4.864,13.098,11.425,13.225
	c7.141,0.138,13.654-6.973,13.75-15.011c0.086-7.28-5.01-13.069-11.554-13.123C38.783,123.808,32.679,130.488,32.638,138.777z
	 M56.662,116.267c7.846-0.001,14.782-7.311,14.69-15.481c-0.075-6.626-5.1-11.899-11.413-11.977
	c-7.601-0.094-14.465,7.067-14.528,15.155C45.355,111.046,50.131,116.268,56.662,116.267z M163.552,342.217
	c3.473,0.212,6.68,0.407,9.661,0.589c1.989,2.07,1.809,4.959,3.732,6.82c1.66,0.121,3.341,0.588,5.472,0.026
	c-3.53-8.823-6.979-17.443-10.42-26.04c-1.71-0.123-3.028-0.639-4.724,0.247c-4.282,7.752-8.716,15.778-13.31,24.092
	c2.268,0.643,4.069,0.619,5.99,0.421C161.095,346.419,162.222,344.492,163.552,342.217z M217.699,319.083
	c-1.405,9.007-2.816,18.054-4.26,27.308c2.336-0.2,3.982-0.658,5.646-1.607c0.453-2.241,0.917-4.537,1.419-7.024
	c3.305-0.968,6.493-1.9,9.849-2.883c1.723,1.906,3.302,3.653,4.964,5.491c1.859-0.6,3.543-1.143,5.69-1.836
	c-6.646-7.404-12.868-14.337-18.937-21.098C220.355,317.688,219.161,317.976,217.699,319.083z M266.497,318.072
	c2.881-2.244,5.699-4.234,8.704-5.893c2.198,1.253,4.23,2.412,6.167,3.517c1.742-1.06,3.35-1.76,4.649-3.513
	c-8.104-4.781-16.11-9.506-24.027-14.177c-1.554,0.607-2.724,1.252-3.758,2.675c1.371,8.995,2.768,18.158,4.255,27.919
	c2.007-1.403,3.403-2.38,4.902-3.429C267.085,322.748,266.793,320.426,266.497,318.072z M323.461,270.356
	c-9.365-1.943-18.369-3.812-27.242-5.652c-1.41,1.078-2.406,2.13-2.753,3.89c4.242,8.087,8.54,16.278,13.051,24.877
	c1.474-2.048,2.545-3.534,3.521-4.893c-1.162-2.299-2.17-4.291-3.215-6.354c1.938-2.989,3.993-5.758,6.265-8.193
	c2.584-0.187,4.765,1.243,7.191,0.904C321.458,273.645,322.697,272.449,323.461,270.356z M101.638,330.826
	c1.998-1.6,3.829-3.065,5.663-4.535c3.213,1.511,6.248,2.937,9.494,4.462c0,2.459,0,4.797,0,7.041
	c1.795,0.881,3.187,1.911,5.031,2.037c0-9.447,0-18.624,0-27.417c-1.458-1.368-2.626-1.994-4.377-2.112
	c-6.915,5.889-13.978,11.903-21.179,18.036C98.102,329.675,99.685,330.321,101.638,330.826z M102.189,301.875
	c-3.163,4.599-6.122,9.075-9.266,13.417c-2.583,3.567-6.101,3.458-8.594-0.036c-1.651-2.313-0.561-4.268,0.734-6.18
	c2.92-4.312,5.881-8.595,8.831-12.897c-1.52-1.483-2.799-2.572-4.698-2.996c-3.288,4.856-6.663,9.507-9.669,14.385
	c-2.684,4.354-1.185,9.375,3.39,12.761c4.586,3.395,10.39,3.356,13.526-0.623c3.69-4.685,6.891-9.755,10.273-14.613
	C105.447,303.532,104.185,302.587,102.189,301.875z M321.175,162.532c0.504,0.696,0.805,1.077,1.068,1.48
	c2.293,3.498,5.128,4.821,8.448,3.932c3.346-0.896,5.538-3.969,5.411-8.037c-0.111-3.576-0.662-7.116-1.632-10.822
	c-7.803,1.133-15.388,2.235-22.924,3.331c-0.145,1.969-0.235,3.43,0.718,4.627c2.55,0.691,4.92-0.908,7.736-0.256
	c-2.234,3.052-5.23,5.035-7.05,8.089c0.391,1.619-0.018,3.404,1.184,5.203C316.509,167.535,318.703,165.183,321.175,162.532z
	 M182.635,30.007c-3.754-5.175-9.417-7.067-15.512-5.501c-5.943,1.527-10.287,6.379-10.485,11.713
	c-0.201,5.387,3.769,10.24,9.886,12.088c6.763,2.042,14.634-1.429,16.749-7.532c-2.531-0.05-4.815,0.01-6.964,1.756
	c-3.842,3.121-8.481,2.848-11.879-0.366c-3.082-2.915-3.494-6.677-1.107-10.108c2.671-3.84,7.649-5.12,11.906-2.633
	C177.643,30.835,179.827,30.775,182.635,30.007z M328.348,127.532c-8.44-0.98-16.821-1.954-25.878-3.005
	c0.713,2.072,1.218,3.54,1.639,4.761c2.262,1.415,4.739,0.582,7.045,1.854c0.914,2.726,1.89,5.635,2.757,8.225
	c-1.266,2.429-3.641,3.325-4.568,5.507c0.497,1.513,0.609,3.144,2.236,4.521c5.982-6.324,11.865-12.541,18.1-19.129
	C329.648,129.868,329.243,128.845,328.348,127.532z M280.885,91.835c2.295,0.064,4.32-1.325,6.783-1.007
	c1.657,2.521,4.066,4.557,5.423,7.256c-0.489,2.373-2.463,3.979-2.447,6.411c0.906,1.251,1.635,2.689,3.429,3.447
	c3.822-7.729,7.568-15.303,11.344-22.939c-0.789-1.252-1.304-2.53-2.88-3.207c-8.14,1.898-16.427,3.832-24.895,5.807
	C278.612,89.622,279.688,90.792,280.885,91.835z M41.564,214.701c0.019-4.515-3.759-8.756-7.92-8.89
	c-3.951-0.128-7.433,3.757-7.428,8.287c0.005,4.604,3.767,8.788,7.962,8.855C38.267,223.019,41.544,219.355,41.564,214.701z
	 M316.277,217.745c-0.188,4.33,2.891,8.136,6.777,8.378c4.169,0.26,8.334-3.945,8.597-8.682c0.227-4.088-3.104-8.045-6.981-8.296
	C320.288,208.863,316.495,212.749,316.277,217.745z M238.668,60.07c1.279-9.951,11.01-11.939,16.951-18.08
	c-1.843-0.82-3.279-1.459-4.573-2.035c-3.542,2.074-6.05,5.126-9.939,6.793c-0.334-4.149-0.632-7.841-0.916-11.363
	c-1.59-1.137-2.991-1.866-4.831-2.068c-0.152,8.297,4.236,16.827-1.917,24.329C234.96,59.102,236.278,59.68,238.668,60.07z
	 M314.234,106.302c2.07,2.178,2.547,5.112,4.554,7.003c1.394-0.15,2.413-0.753,3.269-2.021c-2.089-3.839-4.203-7.721-6.399-11.756
	c-7.207,3.923-13.959,7.599-20.675,11.255c0.536,1.884,1.163,3.187,2.478,4.346c2.603-1.332,5.23-2.676,7.852-4.017
	c2.289,1.883,2.399,5.119,4.674,6.659c1.339-0.329,2.271-0.877,3.07-2.024c-1.125-2.209-2.285-4.487-3.427-6.728
	C311.013,107.654,312.478,107.007,314.234,106.302z M250.302,327.72c-0.368,1.918-1.229,2.538-2.01,2.771
	c-1.535,0.392-2.372-0.983-3.752-0.457c-1.001,0.701-2.722,0.707-3.37,2.28c2.866,3.176,6.405,3.831,10.028,1.91
	c3.486-1.849,5.406-5.256,4.025-8.678c-2.494-6.18-5.501-12.151-8.36-18.354c-1.989,0.927-3.751,1.165-4.838,2.715
	C244.897,316.089,247.714,322.151,250.302,327.72z M336.869,173.314c-7.681,0.044-15.488-0.006-23.188,0.613
	c-0.292,2.047-0.224,3.362,0.316,4.348c7.938,0,15.66,0,23.288,0C337.654,176.334,337.647,175.003,336.869,173.314z M154.085,50.441
	c-1.828-7.585-3.623-15.036-5.487-22.777c-1.791,0.609-3.32,0.457-4.851,1.76c1.759,7.327,3.546,14.77,5.305,22.097
	C150.966,51.964,152.332,51.535,154.085,50.441z M87.277,41.728c-1.476,1.084-2.722,2.024-3.391,3.716
	c1.658,1.577,3.234,3.076,5.276,5.018C88.748,47.084,88.26,44.458,87.277,41.728z M343.651,175.129
	c0.056,0.298,0.112,0.597,0.169,0.895c2.293,0.11,4.463,1.387,6.883,0.729c0.209-1.244,0.416-2.317-0.552-3.556
	C348.023,173.828,345.837,174.479,343.651,175.129z M241.837,303.996c0.258-0.083,0.514-0.167,0.771-0.25
	c-0.28-2.289-0.561-4.578-0.834-6.806c-1.661-0.339-2.724,0.08-3.734,1.257C239.3,300.122,240.568,302.06,241.837,303.996z
	 M144.712,24.611c0.146-2.471,0.731-4.955-0.288-7.469c-1.325,0.241-2.541,0.17-3.402,1.58
	C142.242,20.669,143.477,22.64,144.712,24.611z"/>
<path fill-rule="evenodd" clip-rule="evenodd" fill="#FDFEFE" d="M179.787,55.534c68.799,0.529,123.568,56.062,123.099,124.813
	c-0.462,67.73-56.53,123.174-123.922,122.543c-68.61-0.643-123.654-55.948-123.342-123.93
	C55.938,110.429,111.687,55.01,179.787,55.534z M87.595,117.622c0,40.234,0,80.268,0,120.75
	c30.909,17.64,62.16,35.475,93.515,53.369c31.162-17.701,62.228-35.348,92.833-52.733c0-40.805,0-81.065,0-121.609
	c-7.876,0-15.227-0.043-22.577,0.027c-2.061,0.021-3.905-0.401-5.73-1.35c-19.999-10.399-40.018-20.764-60.032-31.134
	c-1.102-0.571-2.161-1.32-3.457-1.324c-6.599-0.021-13.198-0.01-19.677-0.01c-2.448,3.388-4.698,6.501-7.207,9.972
	c-7.664-2.746-13.433,1.381-19.271,5.28c-0.414,0.276-0.815,0.59-1.266,0.788c-1.741,0.759-2.597,2.121-3.159,3.906
	c-1.488,4.726-3.136,9.402-4.709,14.068C113.801,117.622,101.091,117.622,87.595,117.622z"/>
<path fill-rule="evenodd" clip-rule="evenodd" fill="#FDFEFE" d="M71.346,294.835c-2.235-2.441-4.161-4.527-6.068-6.632
	c-1.834-2.023-3.649-4.065-5.706-6.36c1.518-1.42,2.938-2.749,4.765-4.457c6.312,6.863,12.508,13.601,18.974,20.63
	c-4.354,4.176-9.324,5.452-14.864,4.83c-11.638-1.306-21.415-11.757-22.048-23.451c-0.699-12.917,9.77-21.768,22.421-18.954
	c13.264,2.949,22.482,16.759,19.292,28.917c-0.121,0.463-0.356,0.897-0.67,1.669c-2.7-1.705-4.333-4.162-6.213-6.235
	c-0.995-11.548-7.53-18.308-16.717-17.398c-7.082,0.702-11.803,6.916-10.836,14.396C54.702,289.725,63.769,297.076,71.346,294.835z"
	/>
<path fill-rule="evenodd" clip-rule="evenodd" fill="#FDFEFE" d="M291.998,65.357c-1.932-1.549-3.661-2.936-5.529-4.435
	c0.843-3.05,0.69-5.85-2.727-7.083c-2.471-0.892-4.034,0.36-4.941,2.761c0.29,3.248,2.664,5.495,4.193,8.157
	c2.467,4.294,3.393,8.565,0.206,12.946c-2.054,2.823-4.845,4.238-8.276,4.42c-7.666,0.408-15.422-7.518-14.835-15.148
	c0.146-1.889,0.623-3.652,2.476-5.16c1.808,1.475,3.607,2.944,5.346,4.361c-0.78,4.86,0.111,7.174,3.243,8.563
	c1.864,0.828,3.65,0.794,5.194-0.705c1.428-1.386,1.694-3.078,0.808-4.794c-1.256-2.432-2.708-4.761-4.028-7.16
	c-2.75-4.994-2.336-9.156,1.215-12.642c3.125-3.069,8.017-3.517,12.522-1.146C293.575,51.822,295.909,58.942,291.998,65.357z"/>
<path fill-rule="evenodd" clip-rule="evenodd" fill="#FDFEFE" d="M16.443,156.193c3.178-0.407,5.725-0.227,8.261,1.782
	c6.338,5.019,12.919,9.731,19.765,14.837c1.516-5.347,0.625-10.633,1.86-15.699c1.96-0.409,3.752-0.056,5.876,0.353
	c-0.575,8.256-1.137,16.328-1.713,24.591c-2.693,0.79-5.071,0.511-7.349-1.204c-6.76-5.091-13.57-10.115-20.7-15.417
	c-1.521,4.803-0.498,9.513-1.726,13.876c-1.993,0.917-3.724-0.264-5.88-0.006C15.389,171.375,15.913,163.834,16.443,156.193z"/>
<path fill-rule="evenodd" clip-rule="evenodd" fill="#FDFEFE" d="M196.302,342.053c4.472-0.407,8.42-0.767,12.416-1.13
	c1.138,2.013,0.918,3.968,1.126,6.354c-7.031,0.727-13.776,1.424-20.93,2.163c-1.354-12.648-2.662-24.866-4.008-37.43
	c2.774-0.329,5.084-0.604,7.935-0.942C193.994,321.395,195.121,331.481,196.302,342.053z"/>
<path fill-rule="evenodd" clip-rule="evenodd" fill="#FDFEFE" d="M140.736,41.071c3.332,5.097-0.224,12.993-6.78,16.49
	c-1.2,0.64-2.533,1.099-3.857,1.426c-7.012,1.731-13.831-1.355-15.94-7.147c-2.112-5.796,1.018-12.687,7.38-15.895
	c5.401-2.723,10.724-2.66,16.292,0.894c-2.8,1.952-5.158,2.639-8.257,1.805c-4.505-1.212-9.918,2.524-10.882,6.993
	c-0.944,4.375,1.808,8.383,6.45,9.399c4.771,1.043,9.886-2.199,11.051-7.424c-3.312,1.302-6.375,2.506-9.378,3.688
	c-1.385-0.747-1.633-1.937-1.917-3.622C130.085,45.513,135.328,43.327,140.736,41.071z"/>
<path fill-rule="evenodd" clip-rule="evenodd" fill="#FDFEFE" d="M126.977,341.758c2.121-8.542,4.119-16.589,6.186-24.919
	c5.24,1.082,10.159,1.776,14.412,4.585c4.966,3.281,7.005,8.948,5.269,14.311c-1.706,5.266-6.462,8.633-12.257,8.588
	c-1.488-0.012-3-0.125-4.454-0.421C133.225,343.31,130.35,342.559,126.977,341.758z M133.479,338.627
	c4.578,1.377,8.595,1.936,12.026-1.293c2.373-2.233,3.009-5.192,1.842-8.244c-1.657-4.337-5.306-5.854-9.875-6.482
	C136.145,327.931,134.865,333.066,133.479,338.627z"/>
<path fill-rule="evenodd" clip-rule="evenodd" fill="#FDFEFE" d="M53.003,73.131c1.133-1.317,1.967-2.237,2.744-3.204
	c0.626-0.778,1.186-1.61,1.995-2.723c7.669,6.897,14.846,13.351,22.205,19.969c2.856-3.054,5.544-5.927,8.385-8.964
	c1.633,1.409,3.019,2.605,4.698,4.054c-4.463,4.924-8.786,9.693-13.462,14.853C70.678,89.09,61.951,81.211,53.003,73.131z"/>
<path fill-rule="evenodd" clip-rule="evenodd" fill="#FDFEFE" d="M292.653,293.556c3.625,1.403,7.493,0.662,11.318,2.179
	c-1.594,1.507-2.932,2.771-4.414,4.173c-3.781-0.544-7.56-1.086-12.348-1.774c2.577,2.809,4.476,4.878,6.485,7.069
	c-1.276,1.188-2.432,2.265-3.961,3.689c-5.716-6.015-11.509-12.111-17.551-18.471c3.021-3.105,5.711-6.177,9.145-8.468
	c3.246-2.166,7.17-2.137,9.762-0.02c2.729,2.229,3.607,5.771,2.345,9.493C293.201,292.113,292.936,292.789,292.653,293.556z
	 M284.667,295.211c2.163-2.039,4.744-3.467,4.381-6.688c-0.16-1.418-1.219-2.588-2.646-2.798c-3.331-0.488-5.013,1.97-6.935,4.112
	C280.991,291.8,282.547,293.521,284.667,295.211z"/>
<path fill-rule="evenodd" clip-rule="evenodd" fill="#FDFEFE" d="M202.228,49.69c-8.262-0.18-14.521-5.948-14.364-13.16
	c0.057-2.623,0.958-4.865,2.604-6.852c6.391-7.711,20.537-5.823,24.7,3.296C218.954,41.269,212.265,49.91,202.228,49.69z
	 M202.504,45.607c4.644-0.072,8.523-3.751,8.567-8.125c0.047-4.604-4.403-8.533-9.549-8.429c-4.719,0.095-8.602,3.736-8.588,8.054
	C192.95,41.704,197.433,45.686,202.504,45.607z"/>
<path fill-rule="evenodd" clip-rule="evenodd" fill="#FDFEFE" d="M112.051,61.711c-0.131,7.737-7.728,14.759-15.706,14.517
	c-6.754-0.205-11.678-5.191-11.551-11.699c0.155-7.962,7.353-14.57,15.67-14.385C107.308,50.296,112.163,55.142,112.051,61.711z
	 M99.213,54.597c-4.95-0.022-9.509,4.308-9.61,9.128c-0.093,4.44,3.573,7.981,8.189,7.908c4.981-0.079,9.375-4.458,9.392-9.362
	C107.199,57.948,103.74,54.618,99.213,54.597z"/>
<path fill-rule="evenodd" clip-rule="evenodd" fill="#FDFEFE" d="M32.638,138.777c0.041-8.289,6.145-14.969,13.621-14.908
	c6.543,0.054,11.64,5.842,11.554,13.123c-0.096,8.038-6.609,15.148-13.75,15.011C37.502,151.875,32.601,146.202,32.638,138.777z
	 M36.877,138.38c0.016,4.633,3.421,8.486,7.584,8.582c4.68,0.107,9.02-4.483,9.039-9.559c0.017-4.534-3.5-8.456-7.651-8.533
	C40.981,128.779,36.86,133.148,36.877,138.38z"/>
<path fill-rule="evenodd" clip-rule="evenodd" fill="#FDFEFE" d="M56.662,116.267c-6.531,0.001-11.307-5.221-11.251-12.303
	c0.063-8.088,6.928-15.249,14.528-15.155c6.313,0.078,11.338,5.351,11.413,11.977C71.444,108.956,64.508,116.266,56.662,116.267z
	 M57.418,111.343c4.88,0.077,9.27-4.299,9.377-9.347c0.095-4.462-3.189-8.119-7.448-8.295c-5.023-0.208-9.449,4.272-9.474,9.587
	C49.854,107.951,52.963,111.272,57.418,111.343z"/>
<path fill-rule="evenodd" clip-rule="evenodd" fill="#FDFEFE" d="M163.552,342.217c-1.331,2.275-2.457,4.202-3.599,6.155
	c-1.92,0.198-3.722,0.222-5.99-0.421c4.594-8.313,9.028-16.34,13.31-24.092c1.695-0.886,3.013-0.37,4.724-0.247
	c3.44,8.597,6.89,17.217,10.42,26.04c-2.131,0.562-3.812,0.095-5.472-0.026c-1.923-1.861-1.743-4.75-3.732-6.82
	C170.232,342.624,167.025,342.429,163.552,342.217z M172.016,338.168c-1.039-2.781-1.255-5.078-2.802-7.181
	c-1.613,2.216-2.518,4.286-3.259,6.87C168.006,337.963,169.698,338.05,172.016,338.168z"/>
<path fill-rule="evenodd" clip-rule="evenodd" fill="#FDFEFE" d="M217.699,319.083c1.462-1.107,2.656-1.396,4.372-1.649
	c6.068,6.761,12.29,13.693,18.937,21.098c-2.147,0.693-3.831,1.236-5.69,1.836c-1.662-1.838-3.241-3.585-4.964-5.491
	c-3.355,0.982-6.544,1.915-9.849,2.883c-0.502,2.487-0.966,4.783-1.419,7.024c-1.664,0.949-3.311,1.407-5.646,1.607
	C214.883,337.137,216.294,328.09,217.699,319.083z M221.563,324.705c0.302,3.24-1.152,5.41-0.091,7.976
	c1.838-0.561,3.517-1.072,5.386-1.644C225.422,328.697,223.964,326.981,221.563,324.705z"/>
<path fill-rule="evenodd" clip-rule="evenodd" fill="#FDFEFE" d="M266.497,318.072c0.296,2.354,0.588,4.676,0.893,7.1
	c-1.499,1.049-2.896,2.025-4.902,3.429c-1.487-9.761-2.884-18.924-4.255-27.919c1.034-1.423,2.204-2.067,3.758-2.675
	c7.917,4.671,15.923,9.396,24.027,14.177c-1.3,1.753-2.907,2.453-4.649,3.513c-1.937-1.104-3.969-2.264-6.167-3.517
	C272.196,313.838,269.378,315.828,266.497,318.072z M270.437,309.282c-1.897-1.647-3.915-2.895-6.505-4.117
	c0.467,2.789,0.571,5.172,1.68,7.468C267.517,311.673,269.137,310.845,270.437,309.282z"/>
<path fill-rule="evenodd" clip-rule="evenodd" fill="#FDFEFE" d="M323.461,270.356c-0.764,2.093-2.003,3.288-3.182,4.578
	c-2.427,0.339-4.607-1.091-7.191-0.904c-2.271,2.436-4.326,5.204-6.265,8.193c1.045,2.063,2.053,4.056,3.215,6.354
	c-0.977,1.358-2.048,2.845-3.521,4.893c-4.511-8.599-8.809-16.79-13.051-24.877c0.347-1.76,1.343-2.812,2.753-3.89
	C305.092,266.545,314.096,268.413,323.461,270.356z M308.236,272.537c-3.039-0.779-5.272-1.354-8.391-2.155
	c1.681,2.877,2.884,4.935,4.304,7.364C305.621,275.87,306.735,274.45,308.236,272.537z"/>
<path fill-rule="evenodd" clip-rule="evenodd" fill="#FDFEFE" d="M101.638,330.826c-1.953-0.505-3.536-1.151-5.369-2.488
	c7.202-6.133,14.265-12.147,21.179-18.036c1.751,0.118,2.92,0.744,4.377,2.112c0,8.793,0,17.97,0,27.417
	c-1.844-0.126-3.236-1.156-5.031-2.037c0-2.244,0-4.582,0-7.041c-3.246-1.525-6.28-2.951-9.494-4.462
	C105.467,327.761,103.635,329.227,101.638,330.826z M116.787,317.482c-2.283,1.917-4.098,3.277-5.547,5.274
	c1.635,1.26,3.261,2.109,5.279,2.283C117.035,322.65,116.848,320.457,116.787,317.482z"/>
<path fill-rule="evenodd" clip-rule="evenodd" fill="#FDFEFE" d="M102.189,301.875c1.996,0.712,3.258,1.657,4.528,3.217
	c-3.382,4.858-6.583,9.929-10.273,14.613c-3.136,3.979-8.94,4.018-13.526,0.623c-4.575-3.386-6.074-8.406-3.39-12.761
	c3.006-4.878,6.381-9.528,9.669-14.385c1.899,0.424,3.178,1.513,4.698,2.996c-2.95,4.303-5.911,8.586-8.831,12.897
	c-1.294,1.912-2.385,3.867-0.734,6.18c2.493,3.494,6.01,3.604,8.594,0.036C96.068,310.95,99.026,306.474,102.189,301.875z"/>
<path fill-rule="evenodd" clip-rule="evenodd" fill="#FDFEFE" d="M321.175,162.532c-2.472,2.651-4.666,5.003-7.04,7.548
	c-1.201-1.799-0.793-3.584-1.184-5.203c1.819-3.054,4.815-5.038,7.05-8.089c-2.816-0.651-5.187,0.947-7.736,0.256
	c-0.953-1.198-0.862-2.658-0.718-4.627c7.536-1.095,15.121-2.197,22.924-3.331c0.97,3.706,1.521,7.246,1.632,10.822
	c0.127,4.067-2.065,7.141-5.411,8.037c-3.32,0.89-6.155-0.434-8.448-3.932C321.979,163.608,321.679,163.228,321.175,162.532z
	 M324.299,156.124c0.317,2.487,0.113,5.076,2.669,6.511c1.267,0.711,2.738,0.525,3.752-0.603c1.942-2.161,1.283-4.515,0.375-7.036
	C328.777,155.056,326.607,155.05,324.299,156.124z"/>
<path fill-rule="evenodd" clip-rule="evenodd" fill="#FDFEFE" d="M182.635,30.007c-2.808,0.768-4.992,0.828-7.408-0.583
	c-4.256-2.487-9.235-1.207-11.906,2.633c-2.386,3.431-1.974,7.194,1.107,10.108c3.398,3.214,8.038,3.487,11.879,0.366
	c2.149-1.746,4.433-1.806,6.964-1.756c-2.114,6.103-9.986,9.574-16.749,7.532c-6.117-1.848-10.086-6.701-9.886-12.088
	c0.198-5.334,4.542-10.186,10.485-11.713C173.218,22.94,178.881,24.832,182.635,30.007z"/>
<path fill-rule="evenodd" clip-rule="evenodd" fill="#FDFEFE" d="M328.348,127.532c0.896,1.313,1.301,2.336,1.33,2.732
	c-6.234,6.588-12.117,12.805-18.1,19.129c-1.627-1.376-1.739-3.008-2.236-4.521c0.928-2.183,3.303-3.078,4.568-5.507
	c-0.867-2.589-1.843-5.499-2.757-8.225c-2.306-1.271-4.783-0.438-7.045-1.854c-0.421-1.221-0.926-2.689-1.639-4.761
	C311.526,125.579,319.907,126.552,328.348,127.532z M317.757,136.155c1.954-1.35,3.569-2.594,5.109-4.712
	c-2.612-0.161-4.696-0.673-7.086,0.046C316.408,133.152,316.537,134.644,317.757,136.155z"/>
<path fill-rule="evenodd" clip-rule="evenodd" fill="#FDFEFE" d="M280.885,91.835c-1.197-1.044-2.272-2.214-3.243-4.232
	c8.468-1.975,16.755-3.909,24.895-5.807c1.576,0.676,2.091,1.954,2.88,3.207c-3.775,7.636-7.521,15.209-11.344,22.939
	c-1.794-0.758-2.522-2.196-3.429-3.447c-0.016-2.432,1.958-4.038,2.447-6.411c-1.356-2.699-3.766-4.735-5.423-7.256
	C285.205,90.51,283.18,91.899,280.885,91.835z M295.734,93.602c1.127-2.047,2.113-3.837,3.332-6.047
	c-2.77,0.155-4.836,0.752-6.826,1.951C293.116,90.981,293.973,92.322,295.734,93.602z"/>
<path fill-rule="evenodd" clip-rule="evenodd" fill="#E47B3B" d="M41.564,214.701c-0.02,4.654-3.297,8.317-7.385,8.253
	c-4.195-0.067-7.958-4.251-7.962-8.855c-0.005-4.53,3.477-8.415,7.428-8.287C37.805,205.945,41.583,210.187,41.564,214.701z"/>
<path fill-rule="evenodd" clip-rule="evenodd" fill="#E47B3B" d="M316.277,217.745c0.218-4.996,4.011-8.882,8.393-8.6
	c3.878,0.251,7.208,4.208,6.981,8.296c-0.263,4.736-4.428,8.941-8.597,8.682C319.168,225.881,316.089,222.075,316.277,217.745z"/>
<path fill-rule="evenodd" clip-rule="evenodd" fill="#FDFEFE" d="M238.668,60.07c-2.39-0.39-3.708-0.968-5.226-2.423
	c6.153-7.502,1.765-16.032,1.917-24.329c1.84,0.203,3.241,0.931,4.831,2.068c0.284,3.521,0.582,7.214,0.916,11.363
	c3.89-1.667,6.397-4.72,9.939-6.793c1.294,0.576,2.73,1.215,4.573,2.035C249.678,48.131,239.947,50.119,238.668,60.07z"/>
<path fill-rule="evenodd" clip-rule="evenodd" fill="#FDFEFE" d="M314.234,106.302c-1.757,0.705-3.222,1.352-4.605,2.718
	c1.142,2.24,2.302,4.519,3.427,6.728c-0.799,1.147-1.731,1.695-3.07,2.024c-2.274-1.54-2.385-4.775-4.674-6.659
	c-2.621,1.34-5.249,2.685-7.852,4.017c-1.314-1.159-1.941-2.462-2.478-4.346c6.716-3.656,13.468-7.332,20.675-11.255
	c2.196,4.035,4.311,7.917,6.399,11.756c-0.855,1.268-1.875,1.87-3.269,2.021C316.781,111.415,316.305,108.48,314.234,106.302z"/>
<path fill-rule="evenodd" clip-rule="evenodd" fill="#FDFEFE" d="M250.302,327.72c-2.588-5.568-5.404-11.631-8.276-17.812
	c1.087-1.55,2.849-1.788,4.838-2.715c2.859,6.202,5.866,12.174,8.36,18.354c1.381,3.422-0.539,6.829-4.025,8.678
	c-3.623,1.921-7.162,1.266-10.028-1.91c0.648-1.573,2.369-1.579,3.37-2.28c1.38-0.526,2.217,0.849,3.752,0.457
	C249.072,330.258,249.934,329.638,250.302,327.72z"/>
<path fill-rule="evenodd" clip-rule="evenodd" fill="#FDFEFE" d="M336.869,173.314c0.778,1.689,0.785,3.02,0.416,4.961
	c-7.628,0-15.351,0-23.288,0c-0.54-0.985-0.608-2.301-0.316-4.348C321.381,173.309,329.188,173.359,336.869,173.314z"/>
<path fill-rule="evenodd" clip-rule="evenodd" fill="#FDFEFE" d="M154.085,50.441c-1.754,1.094-3.119,1.522-5.033,1.079
	c-1.759-7.327-3.546-14.77-5.305-22.097c1.531-1.303,3.061-1.151,4.851-1.76C150.463,35.405,152.258,42.856,154.085,50.441z"/>
<path fill-rule="evenodd" clip-rule="evenodd" fill="#FDFEFE" d="M87.277,41.728c0.983,2.73,1.47,5.356,1.885,8.734
	c-2.042-1.942-3.619-3.441-5.276-5.018C84.556,43.752,85.802,42.813,87.277,41.728z"/>
<path fill-rule="evenodd" clip-rule="evenodd" fill="#FDFEFE" d="M343.651,175.129c2.186-0.65,4.372-1.301,6.5-1.933
	c0.968,1.239,0.761,2.312,0.552,3.556c-2.42,0.658-4.59-0.618-6.883-0.729C343.764,175.726,343.707,175.427,343.651,175.129z"/>
<path fill-rule="evenodd" clip-rule="evenodd" fill="#FDFEFE" d="M241.837,303.996c-1.269-1.937-2.537-3.874-3.798-5.799
	c1.011-1.177,2.073-1.596,3.734-1.257c0.273,2.228,0.554,4.517,0.834,6.806C242.351,303.829,242.095,303.913,241.837,303.996z"/>
<path fill-rule="evenodd" clip-rule="evenodd" fill="#FDFEFE" d="M144.712,24.611c-1.235-1.971-2.47-3.942-3.689-5.889
	c0.861-1.409,2.077-1.338,3.402-1.58C145.443,19.656,144.858,22.14,144.712,24.611z"/>
<path fill-rule="evenodd" clip-rule="evenodd" fill="#07834B" d="M87.595,117.622c13.496,0,26.206,0,39.263,0
	c1.574-4.666,3.221-9.342,4.709-14.068c0.562-1.785,1.417-3.147,3.159-3.906c0.451-0.197,0.853-0.511,1.266-0.788
	c5.838-3.898,11.607-8.026,19.271-5.28c2.508-3.471,4.758-6.584,7.207-9.972c6.479,0,13.078-0.011,19.677,0.01
	c1.296,0.004,2.355,0.753,3.457,1.324c20.015,10.37,40.033,20.734,60.032,31.134c1.825,0.949,3.67,1.371,5.73,1.35
	c7.351-0.07,14.701-0.027,22.577-0.027c0,40.544,0,80.805,0,121.609c-30.605,17.386-61.671,35.032-92.833,52.733
	c-31.355-17.895-62.606-35.729-93.515-53.369C87.595,197.89,87.595,157.855,87.595,117.622z M272.471,118.936
	c-7.593,0-14.572-0.051-21.552,0.03c-2.198,0.025-4.12-0.497-6.064-1.509c-19.928-10.369-39.886-20.679-59.838-31.001
	c-1.101-0.569-2.145-1.289-3.47-1.286c-6.103,0.009-12.206,0.004-18.085,0.004c-2.943,3.208-4.559,6.979-7.82,10.05
	c-8.965-3.234-15.127,2.751-21.902,7.058c-1.925,5.69-3.835,11.333-5.724,16.917c-13.073,0-25.743,0-38.868,0
	c0,39.482,0,78.771,0,118.24c30.509,17.41,61.162,34.902,91.966,52.48c30.599-17.381,61.066-34.688,91.356-51.893
	C272.471,198.315,272.471,158.886,272.471,118.936z"/>
<path fill-rule="evenodd" clip-rule="evenodd" fill="#07834B" d="M133.479,338.627c1.386-5.561,2.667-10.696,3.994-16.02
	c4.569,0.629,8.217,2.146,9.875,6.482c1.167,3.052,0.531,6.011-1.842,8.244C142.073,340.563,138.057,340.004,133.479,338.627z"/>
<path fill-rule="evenodd" clip-rule="evenodd" fill="#07834B" d="M284.667,295.211c-2.12-1.69-3.676-3.411-5.2-5.374
	c1.922-2.143,3.604-4.601,6.935-4.112c1.428,0.21,2.486,1.38,2.646,2.798C289.411,291.744,286.83,293.172,284.667,295.211z"/>
<path fill-rule="evenodd" clip-rule="evenodd" fill="#07834B" d="M202.504,45.607c-5.071,0.079-9.554-3.903-9.569-8.5
	c-0.014-4.317,3.869-7.958,8.588-8.054c5.146-0.104,9.596,3.824,9.549,8.429C211.027,41.856,207.147,45.535,202.504,45.607z"/>
<path fill-rule="evenodd" clip-rule="evenodd" fill="#07834B" d="M99.213,54.597c4.527,0.021,7.986,3.351,7.971,7.674
	c-0.017,4.904-4.411,9.284-9.392,9.362c-4.616,0.073-8.283-3.467-8.189-7.908C89.704,58.905,94.263,54.575,99.213,54.597z"/>
<path fill-rule="evenodd" clip-rule="evenodd" fill="#07834B" d="M36.877,138.38c-0.017-5.232,4.104-9.602,8.971-9.511
	c4.152,0.078,7.668,4,7.651,8.533c-0.019,5.076-4.359,9.666-9.039,9.559C40.298,146.867,36.893,143.013,36.877,138.38z"/>
<path fill-rule="evenodd" clip-rule="evenodd" fill="#07834B" d="M57.418,111.343c-4.455-0.071-7.565-3.392-7.544-8.055
	c0.024-5.315,4.451-9.795,9.474-9.587c4.259,0.176,7.542,3.833,7.448,8.295C66.688,107.044,62.298,111.419,57.418,111.343z"/>
<path fill-rule="evenodd" clip-rule="evenodd" fill="#07834B" d="M172.016,338.168c-2.317-0.118-4.009-0.205-6.062-0.311
	c0.741-2.584,1.646-4.654,3.259-6.87C170.761,333.09,170.977,335.387,172.016,338.168z"/>
<path fill-rule="evenodd" clip-rule="evenodd" fill="#07834B" d="M221.563,324.705c2.4,2.276,3.858,3.992,5.295,6.332
	c-1.869,0.571-3.548,1.083-5.386,1.644C220.411,330.115,221.865,327.945,221.563,324.705z"/>
<path fill-rule="evenodd" clip-rule="evenodd" fill="#07834B" d="M270.437,309.282c-1.3,1.563-2.92,2.391-4.825,3.351
	c-1.108-2.296-1.213-4.679-1.68-7.468C266.521,306.388,268.539,307.635,270.437,309.282z"/>
<path fill-rule="evenodd" clip-rule="evenodd" fill="#07834B" d="M308.236,272.537c-1.501,1.913-2.615,3.333-4.087,5.209
	c-1.42-2.43-2.623-4.487-4.304-7.364C302.964,271.184,305.197,271.758,308.236,272.537z"/>
<path fill-rule="evenodd" clip-rule="evenodd" fill="#07834B" d="M116.787,317.482c0.062,2.975,0.248,5.168-0.268,7.558
	c-2.019-0.174-3.645-1.023-5.279-2.283C112.688,320.76,114.504,319.399,116.787,317.482z"/>
<path fill-rule="evenodd" clip-rule="evenodd" fill="#07834B" d="M324.299,156.124c2.309-1.074,4.479-1.068,6.796-1.128
	c0.908,2.521,1.567,4.875-0.375,7.036c-1.014,1.128-2.485,1.314-3.752,0.603C324.412,161.2,324.616,158.611,324.299,156.124z"/>
<path fill-rule="evenodd" clip-rule="evenodd" fill="#07834B" d="M317.757,136.155c-1.22-1.511-1.349-3.003-1.977-4.666
	c2.39-0.719,4.474-0.207,7.086-0.046C321.326,133.561,319.711,134.805,317.757,136.155z"/>
<path fill-rule="evenodd" clip-rule="evenodd" fill="#07834B" d="M295.734,93.602c-1.762-1.28-2.618-2.621-3.494-4.096
	c1.99-1.199,4.057-1.796,6.826-1.951C297.848,89.765,296.861,91.555,295.734,93.602z"/>
<path fill-rule="evenodd" clip-rule="evenodd" fill="#FDFEFE" d="M272.471,118.936c0,39.951,0,79.38,0,119.091
	c-30.29,17.205-60.758,34.512-91.356,51.893c-30.804-17.578-61.457-35.07-91.966-52.48c0-39.47,0-78.758,0-118.24
	c13.125,0,25.795,0,38.868,0c1.889-5.583,3.799-11.227,5.724-16.917c6.774-4.306,12.937-10.292,21.902-7.058
	c3.261-3.071,4.876-6.843,7.82-10.05c5.879,0,11.982,0.005,18.085-0.004c1.325-0.002,2.369,0.717,3.47,1.286
	c19.952,10.322,39.91,20.632,59.838,31.001c1.944,1.012,3.866,1.535,6.064,1.509C257.898,118.884,264.878,118.936,272.471,118.936z
	 M143.215,175.401c6.131,6.479,4.521,13.641,1.486,20.879c-0.579,1.382-1.084,2.822-1.866,4.087
	c-2.468,3.991-2.484,8.288-1.749,12.68c0.61,3.646,1.346,7.27,2.051,11.035c-3.344,0.489-6.388,0.397-9.562-0.185
	c-0.365-3.61-0.305-7.047-0.07-10.353c1.64-0.942,3.501-0.801,3.969-2.277c4.511-6.335,0.563-11.825-1.484-16.709
	c0.744-2.141,2.64-1.875,3.283-3.249c-2.219-1.276-4.201-1.268-6.382-0.097c-2.667,4.765,3.54,7.419,3.364,12.355
	c-6.379-2.156-11.66-1.69-15.403,4.587c1.428,0.125,2.471,0.217,3.304,0.29c0.747,0.781-0.23,1.682,0.614,2.201
	c1.968,0.668,3.935,1.336,5.992,2.035c0.228,3.804,0.724,7.487-0.081,11.351c-3.163,0.187-6.151,0.442-9.386-0.221
	c0.874-1.651,1.561-2.95,2.279-4.307c-5.354-6.491-5.666-14.542-7.109-22.173c-7.005,0-13.769,0-20.446,0
	c0,12.332,0,24.285,0,36.365c28.388,16.029,56.623,31.973,84.965,47.977c28.216-16.069,56.279-32.05,84.468-48.103
	c0-12.165,0-24.1,0-36.352c-8.253-0.015-16.197-0.521-24.111,0.13c0.141,1.919,1.839,1.446,2.149,2.872
	c-0.215,0.859,0.264,2.138-0.603,3.206c-3.182-1.656-6.31-0.964-9.419-0.501c-2.344,7.084-4.532,13.898,0.306,20.982
	c-4.374,0.298-8.033-0.134-11.513-0.384c-1.28-1.561-1.433-3.971-3.862-3.636c-1.609,0.952-0.84,3.012-2.435,4.08
	c-5.852,0-11.933,0-17.881,0c-3.352-3.404-0.584-6.797-0.469-10.258c-0.48-0.972-1.023-2.067-1.628-3.288
	c1.62-5.065,2.484-10.509,7.926-13.443c0.063-0.872,0.075-1.736,0.198-2.585c0.378-2.605,1.229-5.202,4.216-5.398
	c2.778-0.182,5.041,1.257,5.88,4.229c0.571,2.021,1.507,3.966,1.437,5.149c-0.514,2.16-2.454,2.146-2.251,3.785
	c0.945,0.642,2.313,0.2,3.339,1.713c1.006,3.52,5.034,5.28,7.162,8.782c-0.165,0.96-0.352,2.047-0.546,3.177
	c1.113,0.891,2.147,1.718,3.377,2.701c3.021-2.975,0.826-5.919,0.322-8.692c0.313-1.152,0.603-2.22,0.83-3.06
	c-0.249-1.461-1.006-2.275-1.924-2.962c-4.277-3.196-5.447-7.234-3.415-12.211c3.216-7.874,1.215-15.183-2.542-22.26
	c-1.26-2.373-2.527-4.808-6.448-5.003c2.335-1.182,3.209-2.988,5.527-3.027c4.828,5.956,6.314,13.547,9.063,20.844
	c5.949,0.206,10.401,3.061,13.154,7.949c8.103,0,15.793,0,23.304,0c0-22.159,0-44.047,0-66.319c-6.658,0-12.755-0.042-18.852,0.024
	c-1.933,0.021-3.639-0.437-5.365-1.296c-16.87-8.394-34.034-16.246-50.552-25.28c-8.974-4.908-17.78-3.168-26.508-3.01
	c-2.424,2.337-3.512,5.152-5.892,6.984c-3.569,0.698-7.451-0.596-10.894,1.617c-3.133,2.015-6.429,3.776-9.44,5.525
	c-1.646,5.32-3.188,10.3-4.837,15.628c-12.238,0-24.29,0-36.079,0c0,22.27,0,44.092,0,66.147c7.216,0,14.022,0,20.581,0
	c11.843-22.208,32.755-30.718,54.481-37.571c0.579-1.212-1.16-1.983,0.116-3.144c1.625,1.175,3.378-0.02,5.252-0.019
	c2.376,2.958,3.556,6.274,3.964,10.013c-3.312,0.559-4.7-2.013-6.917-2.682c-6.842,2.763-13.714,5.399-20.466,8.315
	C148.609,167.021,144.867,170.029,143.215,175.401z"/>
<path fill-rule="evenodd" clip-rule="evenodd" fill="#07834B" d="M143.215,175.401c1.651-5.372,5.394-8.379,9.973-10.356
	c6.752-2.916,13.625-5.552,20.466-8.315c2.217,0.669,3.605,3.24,6.917,2.682c-0.408-3.738-1.588-7.055-3.964-10.013
	c-1.874,0-3.627,1.194-5.252,0.019c-1.275,1.161,0.463,1.932-0.116,3.144c-21.726,6.853-42.638,15.363-54.481,37.571
	c-6.558,0-13.364,0-20.581,0c0-22.055,0-43.877,0-66.147c11.789,0,23.84,0,36.079,0c1.649-5.329,3.191-10.309,4.837-15.628
	c3.011-1.749,6.307-3.511,9.44-5.525c3.442-2.213,7.324-0.919,10.894-1.617c2.38-1.832,3.468-4.647,5.892-6.984
	c8.728-0.159,17.535-1.898,26.508,3.01c16.518,9.034,33.682,16.886,50.552,25.28c1.727,0.859,3.433,1.317,5.365,1.296
	c6.097-0.065,12.193-0.024,18.852-0.024c0,22.272,0,44.16,0,66.319c-7.511,0-15.201,0-23.304,0
	c-2.753-4.889-7.205-7.743-13.154-7.949c-2.748-7.297-4.234-14.888-9.063-20.844c-2.318,0.039-3.192,1.845-5.527,3.027
	c3.921,0.196,5.188,2.631,6.448,5.003c3.757,7.078,5.758,14.386,2.542,22.26c-2.032,4.977-0.862,9.015,3.415,12.211
	c0.918,0.687,1.675,1.501,1.924,2.962c-0.228,0.84-0.517,1.907-0.83,3.06c0.504,2.773,2.699,5.718-0.322,8.692
	c-1.229-0.983-2.264-1.811-3.377-2.701c0.194-1.13,0.381-2.217,0.546-3.177c-2.128-3.502-6.156-5.263-7.162-8.782
	c-1.026-1.513-2.394-1.071-3.339-1.713c-0.203-1.639,1.737-1.625,2.251-3.785c0.07-1.184-0.865-3.128-1.437-5.149
	c-0.839-2.972-3.102-4.41-5.88-4.229c-2.986,0.196-3.838,2.793-4.216,5.398c-0.123,0.849-0.135,1.713-0.198,2.585
	c-5.441,2.935-6.306,8.378-7.926,13.443c0.604,1.221,1.147,2.316,1.628,3.288c-0.115,3.461-2.883,6.854,0.469,10.258
	c5.948,0,12.029,0,17.881,0c1.595-1.068,0.825-3.128,2.435-4.08c2.43-0.335,2.582,2.075,3.862,3.636
	c3.479,0.25,7.139,0.682,11.513,0.384c-4.838-7.084-2.649-13.898-0.306-20.982c3.109-0.463,6.237-1.155,9.419,0.501
	c0.866-1.068,0.388-2.347,0.603-3.206c-0.311-1.426-2.009-0.953-2.149-2.872c7.914-0.651,15.858-0.145,24.111-0.13
	c0,12.252,0,24.187,0,36.352c-28.188,16.053-56.252,32.033-84.468,48.103c-28.343-16.004-56.577-31.947-84.965-47.977
	c0-12.08,0-24.033,0-36.365c6.677,0,13.44,0,20.446,0c1.443,7.631,1.755,15.682,7.109,22.173c-0.718,1.356-1.405,2.655-2.279,4.307
	c3.235,0.663,6.223,0.407,9.386,0.221c0.804-3.863,0.308-7.547,0.081-11.351c-2.058-0.699-4.024-1.367-5.993-2.035
	c-0.844-0.52,0.133-1.42-0.614-2.201c-0.833-0.073-1.876-0.165-3.304-0.29c3.743-6.277,9.024-6.743,15.403-4.587
	c0.175-4.937-6.031-7.591-3.364-12.355c2.181-1.171,4.163-1.18,6.382,0.097c-0.643,1.374-2.539,1.108-3.283,3.249
	c2.047,4.884,5.996,10.374,1.484,16.709c-0.468,1.477-2.329,1.335-3.969,2.277c-0.234,3.306-0.294,6.742,0.07,10.353
	c3.174,0.582,6.218,0.674,9.562,0.185c-0.705-3.766-1.44-7.39-2.051-11.035c-0.735-4.392-0.719-8.688,1.749-12.68
	c0.781-1.265,1.287-2.705,1.866-4.087C147.736,189.042,149.346,181.88,143.215,175.401z M167.755,138.031
	c-8.554-7.083-16.368-13.554-24.067-19.93c0.995-2.352,3.928-1.434,4.484-3.874c-1.653-1.709-3.156-3.653-5.947-5.12
	c-5.64,17.853-11.189,35.42-16.739,52.986c0.281,0.179,0.562,0.358,0.843,0.537C139.89,154.578,153.451,146.525,167.755,138.031z
	 M250.869,228.5c-46.729,0-92.92,0-139.442,0c0.47,2.372,1.268,3.95,2.831,5.094c44.496,0,88.912,0,133.16,0
	C249.119,232.227,249.891,230.565,250.869,228.5z M178.222,205.852c1.725,3.229-0.677,4.677-2.186,6.08
	c-1.657,0.495-2.421-0.997-3.623-0.533c-1.911,2.326-1.911,2.326-1.559,8.775c0.768,1.353,1.536,2.706,2.251,3.965
	c10.501,0.342,10.501,0.342,12.504-1.985c-0.978-1.025-1.975-2.071-3.024-3.172c1.354-1.954,3.49-3.178,3.807-5.705
	c-2.144-1.063-4.457-1.795-5.887-3.804c-0.395-1.133-0.364-2.221,0.205-3.591c2.485-0.884,4.657-2.709,7.169-4.107
	c-0.807-1.281-1.873-1.468-2.861-1.561c-3.349,3.218-9.388,1.356-11.579,6.401C174.915,206.506,176.175,205.317,178.222,205.852z
	 M187.328,237.898c-4.979,0-9.117,0-13.85,0c2.247,9.191,4.349,17.793,6.451,26.394c0.387-0.036,0.773-0.073,1.16-0.109
	C183.319,255.509,185.97,246.933,187.328,237.898z M201.413,152.277c-3.559-4.807-7.306-9.867-11.053-14.928
	c-0.609,4.211-0.687,7.94-0.588,11.664c0.099,3.732,4.876,5.655,4.259,9.672c-2.814,1.495-5.448-3.97-7.782-0.005
	c6.128,3.585,12.302,3.991,18.765-0.648c-0.002,0.01,0.188-0.799,0.334-1.413c0.747-1.092,2.403-0.148,2.884-1.619
	c-1.436-0.798-2.732-0.325-4.165-0.08c-0.987,2.154-2.467,3.214-4.847,1.978C199.168,155.047,200.854,154.488,201.413,152.277z
	 M158.152,202.811c-3.748,2.148-2.918,5.969-3.543,9.396c1.985,1.792,2.375,3.965,1.481,6.319c-1.119,1.377-3.213,0.751-4.315,2.335
	c1.257,0.758,1.078,2.385,1.764,3.047c3.883,0,7.365,0,10.843,0c0.064-2.544-2.575-2.097-3.188-3.744
	c0.625-1.122,0.698-2.429-0.362-3.312c-4.887-4.067-1.08-8.46-0.749-13.008C159.689,203.469,159.138,202.793,158.152,202.811z
	 M199.258,255.814c0.313,0.021,0.628,0.043,0.941,0.064c1.313-5.869,3.465-11.562,3.89-17.832c-3.428,0-6.265,0-9.703,0
	C196.065,244.173,197.662,249.993,199.258,255.814z M161.91,255.799c2.406-5.794,4.343-11.472,5.327-17.71
	c-3.299-0.111-6.21-0.518-9.591,0.378C159.09,244.339,160.5,250.068,161.91,255.799z M180.525,119.578
	c-3.116-1.058-5.118,1.513-7.836,2.008c2.406-0.785,2.544,1.925,4.316,2.662C177.607,122.203,178.283,120.315,180.525,119.578z
	 M208.523,112.157c-3.561-0.136-5.803,1.368-8.194,2.826c2.004-0.51,2.754,1.453,4.066,2
	C205.701,115.457,206.856,114.105,208.523,112.157z"/>
<path fill-rule="evenodd" clip-rule="evenodd" fill="#E47B3B" d="M167.755,138.031c-14.304,8.494-27.865,16.547-41.425,24.6
	c-0.281-0.179-0.562-0.358-0.843-0.537c5.549-17.566,11.099-35.133,16.739-52.986c2.791,1.467,4.294,3.411,5.947,5.12
	c-0.556,2.44-3.49,1.522-4.484,3.874C151.387,124.477,159.201,130.947,167.755,138.031z"/>
<path fill-rule="evenodd" clip-rule="evenodd" fill="#E47B3B" d="M250.869,228.5c-0.979,2.065-1.75,3.727-3.451,5.094
	c-44.248,0-88.665,0-133.16,0c-1.563-1.144-2.361-2.722-2.831-5.094C157.949,228.5,204.141,228.5,250.869,228.5z"/>
<path fill-rule="evenodd" clip-rule="evenodd" fill="#FDFEFE" d="M178.222,205.852c-2.046-0.534-3.307,0.654-4.783,0.763
	c2.192-5.044,8.231-3.183,11.58-6.4c0.988,0.093,2.055,0.279,2.861,1.561c-2.512,1.398-4.684,3.224-7.169,4.107
	c-0.569,1.37-0.6,2.458-0.205,3.591c1.43,2.009,3.743,2.74,5.887,3.804c-0.316,2.527-2.452,3.751-3.807,5.705
	c1.05,1.101,2.047,2.146,3.024,3.172c-2.003,2.327-2.003,2.327-12.504,1.985c-0.715-1.259-1.483-2.612-2.253-3.967
	c-0.351-6.447-0.351-6.447,1.56-8.773c1.202-0.464,1.965,1.028,3.623,0.533C177.545,210.528,179.946,209.081,178.222,205.852z"/>
<path fill-rule="evenodd" clip-rule="evenodd" fill="#E47B3B" d="M187.328,237.898c-1.358,9.034-4.009,17.61-6.238,26.284
	c-0.387,0.036-0.773,0.073-1.16,0.109c-2.103-8.601-4.205-17.202-6.451-26.394C178.211,237.898,182.35,237.898,187.328,237.898z"/>
<path fill-rule="evenodd" clip-rule="evenodd" fill="#FDFEFE" d="M201.413,152.277c-0.559,2.21-2.245,2.77-2.193,4.621
	c2.38,1.236,3.859,0.176,4.847-1.978c1.433-0.245,2.729-0.719,4.165,0.08c-0.48,1.471-2.137,0.527-2.884,1.619
	c-0.146,0.614-0.336,1.423-0.334,1.413c-6.463,4.64-12.637,4.233-18.765,0.648c2.334-3.965,4.968,1.5,7.782,0.005
	c0.617-4.017-4.16-5.939-4.259-9.672c-0.099-3.724-0.021-7.453,0.588-11.664C194.107,142.411,197.854,147.471,201.413,152.277z"/>
<path fill-rule="evenodd" clip-rule="evenodd" fill="#FDFEFE" d="M158.152,202.811c0.985-0.018,1.537,0.658,1.931,1.034
	c-0.331,4.548-4.139,8.94,0.749,13.008c1.06,0.883,0.987,2.189,0.362,3.312c0.613,1.647,3.252,1.2,3.188,3.744
	c-3.478,0-6.96,0-10.843,0c-0.686-0.662-0.506-2.289-1.764-3.047c1.102-1.584,3.196-0.958,4.315-2.335
	c0.894-2.354,0.503-4.527-1.481-6.319C155.234,208.779,154.404,204.959,158.152,202.811z"/>
<path fill-rule="evenodd" clip-rule="evenodd" fill="#FDFEFE" d="M199.258,255.814c-1.596-5.821-3.192-11.642-4.872-17.768
	c3.438,0,6.275,0,9.703,0c-0.425,6.271-2.577,11.963-3.89,17.832C199.886,255.857,199.571,255.836,199.258,255.814z"/>
<path fill-rule="evenodd" clip-rule="evenodd" fill="#FDFEFE" d="M161.91,255.799c-1.41-5.73-2.82-11.46-4.265-17.332
	c3.381-0.896,6.292-0.489,9.591-0.378C166.253,244.327,164.316,250.005,161.91,255.799z"/>
<path fill-rule="evenodd" clip-rule="evenodd" fill="#FDFEFE" d="M180.525,119.578c-2.242,0.738-2.918,2.625-3.52,4.67
	c-1.772-0.737-1.91-3.447-4.316-2.662C175.408,121.091,177.409,118.52,180.525,119.578z"/>
<path fill-rule="evenodd" clip-rule="evenodd" fill="#FDFEFE" d="M208.523,112.157c-1.667,1.949-2.822,3.3-4.128,4.827
	c-1.313-0.548-2.063-2.511-4.066-2C202.721,113.525,204.963,112.021,208.523,112.157z"/>
</svg>
