<?xml version="1.0" encoding="utf-8"?>
<!-- Generator: Adobe Illustrator 16.0.0, SVG Export Plug-In . SVG Version: 6.00 Build 0)  -->
<!DOCTYPE svg PUBLIC "-//W3C//DTD SVG 1.1//EN" "http://www.w3.org/Graphics/SVG/1.1/DTD/svg11.dtd">
<svg version="1.1" id="Layer_1" xmlns="http://www.w3.org/2000/svg" xmlns:xlink="http://www.w3.org/1999/xlink" x="0px" y="0px"
	 width="100px" height="84.685px" viewBox="0 0 100 84.685" enable-background="new 0 0 100 84.685" xml:space="preserve">
<path fill="#010101" d="M50,58.125c16.939,0,31.267,11.178,36.01,26.56C94.672,75.694,100,63.47,100,50c0-27.614-22.386-50-50-50
	S0,22.386,0,50c0,13.47,5.328,25.694,13.99,34.685C18.733,69.303,33.061,58.125,50,58.125z M50,16.964
	c11.342,0,20.535,9.195,20.535,20.536S61.342,58.035,50,58.035S29.464,48.841,29.464,37.5S38.658,16.964,50,16.964z"/>
</svg>
