<?xml version="1.0" encoding="utf-8"?>
<!-- Generator: Adobe Illustrator 16.0.0, SVG Export Plug-In . SVG Version: 6.00 Build 0)  -->
<!DOCTYPE svg PUBLIC "-//W3C//DTD SVG 1.1//EN" "http://www.w3.org/Graphics/SVG/1.1/DTD/svg11.dtd">
<svg version="1.1" id="Layer_1" xmlns="http://www.w3.org/2000/svg" xmlns:xlink="http://www.w3.org/1999/xlink" x="0px" y="0px"
	 width="100px" height="100px" viewBox="0 0 100 100" enable-background="new 0 0 100 100" xml:space="preserve">
<path fill-rule="evenodd" clip-rule="evenodd" fill="#242021" d="M46.454,97.854c-1.558,0-3.115,0-4.673,0
	c-1.024-0.578-2.212-0.867-3.068-1.742c-0.128-0.131-0.265-0.127-0.397,0.002c-0.967,0.943-2.225,1.311-3.45,1.74
	c-1.496,0-2.991,0-4.486,0c-1.047-0.557-2.258-0.817-3.118-1.715c-0.162-0.169-0.327-0.147-0.481,0.008
	c-0.922,0.927-2.152,1.254-3.317,1.707c-1.558,0-3.115,0-4.673,0c-0.024-0.146-0.135-0.19-0.258-0.224
	c-3.227-0.887-5.06-3.751-5.016-7.393c0.105-8.718,0.026-17.438,0.049-26.158c0.002-0.693-0.079-0.988-0.89-1.08
	c-3.887-0.439-6.569-3.383-6.597-7.302c-0.047-6.632-0.028-13.266,0.01-19.899c0.015-2.555,0.837-4.895,2.314-6.972
	c2.324-3.268,5.48-5.169,9.491-5.588c0.512-0.054,0.85-0.086,0.42-0.731c-0.788-1.185-1.244-2.524-1.297-3.941
	c-0.083-2.239-0.113-4.482-0.076-6.723c0.064-3.863,1.768-6.764,5.189-8.647c0.846-0.466,1.833-0.513,2.641-1.04
	c1.433,0,2.866,0,4.299,0c0.03,0.15,0.141,0.163,0.269,0.188c3.972,0.755,7.201,3.705,7.549,7.701
	c0.38,4.366,1.082,8.882-1.368,12.995c2.021,0,4.009,0,6.093,0c-1.128-1.65-1.661-3.386-1.687-5.259
	c-0.031-2.209-0.111-4.427,0.025-6.629c0.209-3.392,1.837-5.974,4.773-7.757c0.908-0.551,1.996-0.612,2.85-1.239
	c1.496,0,2.991,0,4.486,0c0.029,0.15,0.142,0.163,0.27,0.188c4.198,0.825,7.516,4.131,7.659,8.353
	c0.14,4.152,0.987,8.484-1.565,12.383c2.079,0,4.058,0,6.172,0c-1.041-1.58-1.646-3.229-1.676-5.031
	c-0.038-2.334-0.129-4.677,0.021-7.002c0.212-3.318,1.837-5.844,4.688-7.613c0.932-0.578,2.05-0.646,2.937-1.278
	c1.495,0,2.99,0,4.485,0c0.06,0.198,0.234,0.152,0.378,0.185c4.257,0.981,7.305,4.276,7.588,8.479
	c0.168,2.479,0.064,4.979,0.007,7.468c-0.033,1.414-0.459,2.752-1.176,3.984c-0.515,0.885-0.515,0.885,0.547,0.984
	c6.009,0.562,11.372,6.055,11.494,12.072c0.14,6.848,0.097,13.7,0.027,20.549c-0.038,3.771-2.735,6.669-6.481,7.104
	c-0.875,0.102-0.994,0.415-0.992,1.183c0.025,8.874,0.011,17.748,0.021,26.622c0.003,2.36-0.839,4.289-2.718,5.759
	c-0.867,0.678-1.923,0.897-2.9,1.309c-1.495,0-2.99,0-4.485,0c-1.101-0.525-2.31-0.852-3.203-1.756
	c-0.134-0.136-0.281-0.089-0.404,0.035c-0.921,0.925-2.149,1.256-3.309,1.721c-1.558,0-3.115,0-4.673,0
	c-1.027-0.572-2.213-0.864-3.072-1.736c-0.125-0.127-0.262-0.143-0.396-0.01c-0.965,0.944-2.226,1.308-3.446,1.746
	c-1.496,0-2.991,0-4.486,0c-1.049-0.555-2.262-0.809-3.122-1.709c-0.154-0.162-0.319-0.167-0.481-0.005
	C48.842,97.059,47.62,97.401,46.454,97.854z M66.997,45.988c0-3.146,0.024-6.292-0.007-9.437c-0.043-4.465-2.774-8.028-6.893-9.11
	c-0.633-0.166-0.976-0.062-1.331,0.533c-2.203,3.687-4.454,7.344-6.689,11.01c-1.302,2.134-2.849,2.12-4.166-0.039
	c-2.236-3.666-4.467-7.335-6.71-10.997c-0.191-0.313-0.271-0.705-0.876-0.605c-3.494,0.576-6.78,4.034-7.168,7.579
	c-0.276,2.518-0.117,5.04-0.136,7.56c-0.031,4.329-0.017,8.657-0.004,12.986c0.005,1.812,1.054,3.172,2.612,3.526
	c0.653,0.148,0.942,0.075,0.921-0.722c-0.057-2.147-0.02-4.298-0.02-6.446c0-2.834-0.006-5.668,0.004-8.502
	c0.004-1.132,0.449-1.835,1.305-2.152c1.366-0.506,2.642,0.465,2.652,2.073c0.021,3.301,0.019,6.603-0.006,9.903
	c-0.004,0.57,0.158,0.89,0.688,1.151c2.733,1.351,5.449,2.734,8.159,4.13c0.454,0.233,0.815,0.269,1.292,0.021
	c2.732-1.419,5.479-2.814,8.236-4.182c0.536-0.266,0.673-0.603,0.665-1.165c-0.03-2.273-0.014-4.547-0.012-6.821
	c0.001-1.121-0.034-2.244,0.023-3.362c0.058-1.095,0.918-1.879,1.948-1.886c1.029-0.006,1.865,0.775,1.975,1.866
	c0.031,0.309,0.02,0.623,0.02,0.934c0.001,4.796,0.021,9.593-0.02,14.389c-0.007,0.827,0.274,0.929,0.965,0.762
	c1.524-0.369,2.559-1.709,2.568-3.468C67.009,52.342,66.997,49.165,66.997,45.988z M40.499,75.152c0,4.857,0,9.715,0,14.571
	c0,3.477,0.68,4.158,4.138,4.15c2.408-0.007,3.353-0.937,3.353-3.315c0.002-6.85,0-13.699,0.001-20.549
	c0-1.799,0.75-2.803,2.056-2.766c1.285,0.038,1.972,0.991,1.972,2.756c0.002,4.981,0.001,9.963,0.001,14.945
	c0,2.023-0.016,4.048,0.006,6.071c0.019,1.745,1.023,2.765,2.778,2.849c0.59,0.029,1.184,0.022,1.774,0.005
	c1.881-0.058,2.927-1.112,2.928-3.016c0.01-10.524-0.002-21.048,0.019-31.571c0.002-0.811-0.233-0.787-0.831-0.478
	c-2.346,1.215-4.733,2.35-7.052,3.615c-1.172,0.64-2.174,0.605-3.331-0.021c-2.294-1.244-4.656-2.361-6.97-3.57
	c-0.699-0.365-0.862-0.259-0.857,0.537C40.512,64.628,40.499,69.891,40.499,75.152z M82.485,75.123c0-5.202,0-10.404,0-15.606
	c-0.001-1.104-0.003-1.104-1.025-0.587c-2.414,1.222-4.835,2.43-7.236,3.673c-0.85,0.44-1.644,0.46-2.484,0.003
	c-0.791-0.432-1.622-0.79-2.409-1.229c-0.437-0.243-0.763-0.268-1.164,0.08c-1.093,0.946-2.398,1.465-3.825,1.55
	c-0.762,0.046-0.876,0.346-0.874,1.018c0.021,8.535,0.084,17.071-0.021,25.604c-0.044,3.65,1.226,4.396,4.354,4.261
	c2.19-0.096,3.161-1.017,3.162-3.239c0.003-6.044,0.001-12.087,0.001-18.13c0-1.059-0.039-2.12,0.017-3.177
	c0.065-1.226,0.896-2.068,1.961-2.099c1.046-0.029,1.897,0.809,2.035,2.024c0.034,0.308,0.02,0.622,0.02,0.933
	c0.001,6.511,0.092,13.022-0.035,19.53c-0.072,3.675,1.375,4.258,4.154,4.159c2.415-0.087,3.369-0.987,3.369-3.441
	C82.486,85.34,82.485,80.231,82.485,75.123z M17.524,75.133c0,4.859,0,9.719,0,14.578c0,3.49,0.675,4.171,4.128,4.163
	c2.446-0.006,3.36-0.929,3.36-3.404c0.001-6.79-0.002-13.581,0.006-20.372c0-0.463,0.039-0.935,0.131-1.388
	c0.135-0.658,0.582-1.091,1.199-1.318c1.142-0.419,2.265,0.216,2.587,1.412c0.117,0.432,0.108,0.862,0.108,1.297
	c0.001,6.946-0.004,13.894,0.005,20.84c0.002,1.81,1.002,2.846,2.797,2.926c0.684,0.03,1.374,0.04,2.055-0.013
	c1.579-0.123,2.613-1.165,2.617-2.739c0.02-9.127,0.007-18.254,0.02-27.381c0-0.459-0.099-0.661-0.602-0.688
	c-0.969-0.051-2.045-0.131-2.749-0.765c-1.533-1.384-2.904-0.968-4.344,0.034c-0.152,0.105-0.339,0.158-0.499,0.254
	c-0.888,0.528-1.743,0.467-2.653-0.009c-2.397-1.253-4.818-2.46-7.232-3.683c-0.929-0.471-0.935-0.467-0.936,0.555
	C17.523,64.666,17.524,69.899,17.524,75.133z M67.354,27.206c2.78,3.082,3.777,6.585,3.649,10.567
	c-0.21,6.501,0.184,13.012-0.198,19.514c-0.005,0.092-0.029,0.195,0.003,0.273c0.183,0.447,2.25,1.134,2.715,0.898
	c1.913-0.967,3.827-1.933,5.734-2.91c1.049-0.538,2.437-0.855,3.032-1.715c0.626-0.903,0.163-2.344,0.176-3.549
	c0.027-2.429-0.016-4.859,0.031-7.288c0.021-1.156,0.892-1.963,1.955-1.971c1.066-0.008,1.9,0.796,2.002,1.945
	c0.024,0.278,0.013,0.56,0.013,0.84c0,4.797,0.026,9.595-0.023,14.391c-0.01,0.913,0.323,0.944,1.015,0.764
	c1.447-0.379,2.492-1.667,2.497-3.332c0.022-6.542,0.104-13.085-0.033-19.624c-0.103-4.816-3.732-8.475-8.123-8.74
	C77.054,26.984,72.276,27.206,67.354,27.206z M32.66,27.196c-4.883,0-9.585-0.072-14.283,0.025c-3.246,0.067-6.592,2.72-7.688,5.804
	c-0.4,1.124-0.647,2.267-0.647,3.462c0.001,6.29-0.004,12.58,0.004,18.869c0.002,1.856,0.976,3.211,2.508,3.61
	c0.697,0.181,1.022,0.142,1.012-0.767c-0.049-4.856-0.023-9.714-0.022-14.572c0-0.404-0.016-0.807,0.115-1.202
	c0.289-0.869,1.1-1.445,1.986-1.396c0.934,0.053,1.699,0.739,1.839,1.683c0.05,0.336,0.05,0.682,0.05,1.024
	c0.004,3.114,0.021,6.228-0.014,9.341c-0.007,0.611,0.162,0.937,0.722,1.213c2.7,1.336,5.399,2.675,8.048,4.107
	c1.146,0.619,1.778-0.32,2.616-0.618c0.701-0.25,0.102-0.802,0.148-1.21c0.049-0.43-0.019-0.87-0.019-1.306
	c-0.002-6.29-0.013-12.58,0.025-18.869c0.002-0.447-0.441-0.882-0.277-1.078c0.496-0.591,0.402-1.292,0.555-1.935
	C29.887,31.072,30.986,29.06,32.66,27.196z M56.117,14.744c-0.039-1.527,0.145-3.005-0.197-4.44
	c-0.683-2.871-3.351-4.493-6.717-4.142c-3.15,0.328-5.029,2.114-5.244,5.269c-0.147,2.167-0.042,4.354-0.003,6.531
	c0.025,1.398,0.599,2.589,1.579,3.582c1.526,1.545,3.454,1.678,5.461,1.553c2.629-0.164,4.719-2.158,5.031-4.781
	C56.17,17.101,56.064,15.889,56.117,14.744z M33.148,14.75c-0.042-1.531,0.143-3.007-0.199-4.444
	C32.27,7.445,29.59,5.813,26.23,6.16c-3.17,0.328-5.079,2.189-5.26,5.361c-0.127,2.233-0.129,4.479,0.035,6.717
	c0.105,1.44,0.77,2.598,1.83,3.552c1.499,1.348,3.316,1.414,5.181,1.304c2.59-0.152,4.673-2.109,5.027-4.685
	C33.214,17.166,33.089,15.921,33.148,14.75z M79.01,14.648c0.048-1.43,0.221-2.878-0.096-4.283
	c-0.654-2.906-3.376-4.564-6.765-4.199c-3.095,0.333-4.992,2.113-5.217,5.2c-0.159,2.197-0.061,4.416-0.007,6.623
	c0.034,1.426,0.646,2.637,1.673,3.635c1.473,1.432,3.302,1.579,5.213,1.481c2.792-0.143,4.957-2.142,5.183-4.915
	C79.09,17.018,79.01,15.83,79.01,14.648z M50.004,34.692c1.559-2.559,3.033-4.979,4.553-7.473c-3.081,0-6.033,0-9.104,0
	C46.976,29.72,48.44,32.125,50.004,34.692z"/>
<path fill-rule="evenodd" clip-rule="evenodd" fill="#FDFDFD" d="M34.865,97.854c1.226-0.43,2.483-0.797,3.45-1.74
	c0.132-0.129,0.269-0.133,0.397-0.002c0.856,0.875,2.044,1.164,3.068,1.742C39.476,97.854,37.17,97.854,34.865,97.854z"/>
<path fill-rule="evenodd" clip-rule="evenodd" fill="#FDFDFD" d="M57.855,97.854c1.221-0.438,2.481-0.802,3.446-1.746
	c0.135-0.133,0.271-0.117,0.396,0.01c0.859,0.872,2.045,1.164,3.072,1.736C62.466,97.854,60.16,97.854,57.855,97.854z"/>
<path fill-rule="evenodd" clip-rule="evenodd" fill="#FDFDFD" d="M23.463,97.854c1.165-0.453,2.396-0.78,3.317-1.707
	c0.154-0.155,0.319-0.177,0.481-0.008c0.86,0.897,2.07,1.158,3.118,1.715C28.074,97.854,25.769,97.854,23.463,97.854z"/>
<path fill-rule="evenodd" clip-rule="evenodd" fill="#FDFDFD" d="M69.443,97.854c1.159-0.465,2.388-0.796,3.309-1.721
	c0.123-0.124,0.271-0.171,0.404-0.035c0.894,0.904,2.103,1.23,3.203,1.756C74.054,97.854,71.749,97.854,69.443,97.854z"/>
<path fill-rule="evenodd" clip-rule="evenodd" fill="#FDFDFD" d="M46.454,97.854c1.166-0.452,2.389-0.795,3.313-1.714
	c0.162-0.162,0.327-0.157,0.481,0.005c0.86,0.9,2.073,1.154,3.122,1.709C51.064,97.854,48.759,97.854,46.454,97.854z"/>
<path fill-rule="evenodd" clip-rule="evenodd" fill="#0BB9D8" d="M66.997,45.988c0,3.176,0.012,6.354-0.005,9.53
	c-0.01,1.759-1.044,3.099-2.568,3.468c-0.69,0.167-0.972,0.065-0.965-0.762c0.04-4.796,0.021-9.592,0.02-14.389
	c0-0.311,0.012-0.625-0.02-0.934c-0.109-1.091-0.945-1.872-1.975-1.866c-1.03,0.006-1.891,0.791-1.948,1.886
	c-0.058,1.118-0.022,2.242-0.023,3.362c-0.002,2.274-0.019,4.547,0.012,6.821c0.008,0.563-0.129,0.899-0.665,1.165
	c-2.758,1.367-5.504,2.763-8.236,4.182c-0.476,0.247-0.838,0.212-1.292-0.021c-2.71-1.396-5.426-2.779-8.159-4.13
	c-0.53-0.262-0.692-0.581-0.688-1.151c0.025-3.301,0.026-6.603,0.006-9.903c-0.01-1.608-1.286-2.579-2.652-2.073
	c-0.856,0.317-1.3,1.02-1.305,2.152c-0.01,2.834-0.004,5.668-0.004,8.502c0,2.148-0.038,4.299,0.02,6.446
	c0.021,0.797-0.269,0.87-0.921,0.722c-1.558-0.354-2.607-1.715-2.612-3.526c-0.013-4.329-0.027-8.658,0.004-12.986
	c0.019-2.52-0.14-5.042,0.136-7.56c0.388-3.545,3.674-7.003,7.168-7.579c0.605-0.1,0.685,0.293,0.876,0.605
	c2.243,3.662,4.475,7.331,6.71,10.997c1.317,2.159,2.864,2.173,4.166,0.039c2.235-3.666,4.486-7.323,6.689-11.01
	c0.355-0.595,0.698-0.699,1.331-0.533c4.118,1.082,6.85,4.645,6.893,9.11C67.021,39.697,66.997,42.843,66.997,45.988z
	 M51.984,52.271c0.003-1.059-0.887-1.955-1.955-1.969c-1.066-0.014-1.971,0.854-2.002,1.92c-0.031,1.071,0.933,2.053,2,2.036
	C51.064,54.243,51.981,53.312,51.984,52.271z M50.02,47.53c1.04-0.011,1.957-0.934,1.966-1.978c0.009-1.089-0.946-2.015-2.042-1.979
	c-1.061,0.034-1.947,0.962-1.92,2.009C48.051,46.628,48.987,47.541,50.02,47.53z"/>
<path fill-rule="evenodd" clip-rule="evenodd" fill="#FCCD6F" d="M40.499,75.152c0-5.262,0.014-10.524-0.015-15.786
	c-0.004-0.796,0.158-0.902,0.857-0.537c2.313,1.209,4.676,2.326,6.97,3.57c1.157,0.627,2.159,0.661,3.331,0.021
	c2.318-1.266,4.706-2.4,7.052-3.615c0.598-0.31,0.833-0.333,0.831,0.478c-0.021,10.523-0.009,21.047-0.019,31.571
	c-0.001,1.903-1.047,2.958-2.928,3.016c-0.591,0.018-1.185,0.024-1.774-0.005c-1.755-0.084-2.76-1.104-2.778-2.849
	c-0.021-2.023-0.006-4.048-0.006-6.071c0-4.982,0.001-9.964-0.001-14.945c0-1.765-0.687-2.718-1.972-2.756
	c-1.306-0.037-2.056,0.967-2.056,2.766c-0.001,6.85,0.001,13.699-0.001,20.549c0,2.379-0.945,3.309-3.353,3.315
	c-3.458,0.008-4.138-0.674-4.138-4.15C40.499,84.867,40.499,80.01,40.499,75.152z"/>
<path fill-rule="evenodd" clip-rule="evenodd" fill="#FCCD6F" d="M82.485,75.123c0,5.108,0.001,10.217-0.001,15.326
	c0,2.454-0.954,3.354-3.369,3.441c-2.779,0.099-4.227-0.484-4.154-4.159c0.127-6.508,0.036-13.02,0.035-19.53
	c0-0.311,0.015-0.625-0.02-0.933c-0.138-1.216-0.989-2.054-2.035-2.024c-1.065,0.03-1.896,0.873-1.961,2.099
	c-0.056,1.057-0.017,2.118-0.017,3.177c0,6.043,0.002,12.086-0.001,18.13c-0.001,2.223-0.972,3.144-3.162,3.239
	c-3.129,0.136-4.398-0.61-4.354-4.261c0.104-8.533,0.041-17.069,0.021-25.604c-0.002-0.672,0.112-0.972,0.874-1.018
	c1.427-0.085,2.732-0.604,3.825-1.55c0.401-0.348,0.728-0.323,1.164-0.08c0.787,0.439,1.618,0.798,2.409,1.229
	c0.841,0.457,1.635,0.438,2.484-0.003c2.401-1.243,4.822-2.451,7.236-3.673c1.022-0.518,1.024-0.517,1.025,0.587
	C82.485,64.719,82.485,69.921,82.485,75.123z"/>
<path fill-rule="evenodd" clip-rule="evenodd" fill="#FCCD6F" d="M17.524,75.133c0-5.233-0.001-10.467,0-15.7
	c0-1.021,0.006-1.025,0.936-0.555c2.414,1.223,4.834,2.43,7.232,3.683c0.91,0.476,1.765,0.537,2.653,0.009
	c0.16-0.096,0.347-0.148,0.499-0.254c1.44-1.002,2.812-1.418,4.344-0.034c0.703,0.634,1.779,0.714,2.749,0.765
	c0.502,0.026,0.602,0.229,0.602,0.688c-0.012,9.127,0,18.254-0.02,27.381c-0.003,1.574-1.038,2.616-2.617,2.739
	c-0.682,0.053-1.371,0.043-2.055,0.013c-1.794-0.08-2.795-1.116-2.797-2.926c-0.009-6.946-0.003-13.894-0.005-20.84
	c0-0.435,0.008-0.865-0.108-1.297c-0.323-1.196-1.446-1.831-2.587-1.412c-0.618,0.228-1.064,0.66-1.199,1.318
	c-0.092,0.453-0.131,0.925-0.131,1.388c-0.008,6.791-0.004,13.582-0.006,20.372c0,2.476-0.915,3.398-3.36,3.404
	c-3.453,0.008-4.128-0.673-4.128-4.163C17.524,84.852,17.524,79.992,17.524,75.133z"/>
<path fill-rule="evenodd" clip-rule="evenodd" fill="#FCCD6F" d="M56.117,14.744c-0.053,1.145,0.053,2.357-0.092,3.571
	c-0.312,2.623-2.401,4.618-5.031,4.781c-2.007,0.125-3.935-0.007-5.461-1.553c-0.98-0.992-1.554-2.184-1.579-3.582
	c-0.038-2.177-0.144-4.364,0.003-6.531c0.215-3.155,2.094-4.941,5.244-5.269c3.367-0.351,6.035,1.271,6.717,4.142
	C56.262,11.739,56.078,13.217,56.117,14.744z"/>
<path fill-rule="evenodd" clip-rule="evenodd" fill="#FCCD6F" d="M33.148,14.75c-0.059,1.171,0.066,2.416-0.104,3.658
	c-0.354,2.576-2.437,4.533-5.027,4.685c-1.865,0.11-3.682,0.044-5.181-1.304c-1.061-0.954-1.725-2.112-1.83-3.552
	c-0.165-2.238-0.162-4.484-0.035-6.717c0.181-3.172,2.089-5.033,5.26-5.361c3.36-0.347,6.04,1.285,6.719,4.146
	C33.291,11.743,33.106,13.219,33.148,14.75z"/>
<path fill-rule="evenodd" clip-rule="evenodd" fill="#FCCD6F" d="M79.01,14.648c0,1.182,0.08,2.369-0.016,3.543
	c-0.226,2.773-2.391,4.772-5.183,4.915c-1.911,0.098-3.74-0.049-5.213-1.481c-1.026-0.998-1.639-2.209-1.673-3.635
	c-0.054-2.207-0.152-4.426,0.007-6.623c0.225-3.087,2.122-4.867,5.217-5.2c3.389-0.365,6.11,1.293,6.765,4.199
	C79.23,11.77,79.058,13.219,79.01,14.648z"/>
<path fill-rule="evenodd" clip-rule="evenodd" fill="#242021" d="M51.984,52.271c-0.003,1.04-0.92,1.972-1.958,1.987
	c-1.067,0.017-2.031-0.965-2-2.036c0.031-1.066,0.936-1.935,2.002-1.92C51.098,50.316,51.987,51.213,51.984,52.271z"/>
<path fill-rule="evenodd" clip-rule="evenodd" fill="#242021" d="M50.02,47.53c-1.033,0.011-1.969-0.902-1.996-1.948
	c-0.027-1.047,0.859-1.975,1.92-2.009c1.096-0.036,2.051,0.89,2.042,1.979C51.977,46.597,51.06,47.519,50.02,47.53z"/>
</svg>
