<?xml version="1.0" encoding="utf-8"?>
<!-- Generator: Adobe Illustrator 16.0.0, SVG Export Plug-In . SVG Version: 6.00 Build 0)  -->
<!DOCTYPE svg PUBLIC "-//W3C//DTD SVG 1.1//EN" "http://www.w3.org/Graphics/SVG/1.1/DTD/svg11.dtd">
<svg version="1.1" id="Layer_1" xmlns="http://www.w3.org/2000/svg" xmlns:xlink="http://www.w3.org/1999/xlink" x="0px" y="0px"
	 width="100px" height="100px" viewBox="0 0 100 100" enable-background="new 0 0 100 100" xml:space="preserve">
<path fill-rule="evenodd" clip-rule="evenodd" fill="#FDCC40" d="M7.611,54.651c-0.507-0.234-1.028-0.444-1.519-0.709
	c-1.54-0.833-2.271-2.142-2.268-3.89c0.007-5.714,0.004-11.429,0.001-17.144c0-0.948-0.013-1.892,0.217-2.827
	c0.374-1.516,1.341-2.412,2.827-2.752c1.385-0.318,2.793-0.354,4.212-0.281c1.198,0.061,2.401,0.068,3.602,0.067
	c10.887-0.009,21.773-0.016,32.66-0.05c1.546-0.005,3.089-0.15,4.639,0c3.234,0.314,3.959,2.045,4.05,4.531
	c0.092,2.515,0.024,5.036,0.022,7.554c-0.003,4.01-0.009,8.02-0.014,12.03c-0.035,0.109-0.088,0.216-0.104,0.328
	c-0.216,1.54-1.036,2.596-2.507,3.126c-1.702,0.612-3.478,0.708-5.262,0.71c-10.481,0.012-20.962,0.021-31.443,0.02
	c-2.148,0-4.3,0.053-6.436-0.251C9.394,54.986,8.503,54.807,7.611,54.651z"/>
<path fill-rule="evenodd" clip-rule="evenodd" fill="#FE2C01" d="M7.611,54.651c0.893,0.155,1.783,0.335,2.68,0.462
	c2.135,0.304,4.288,0.251,6.436,0.251c10.481,0.001,20.962-0.008,31.443-0.02c1.784-0.002,3.56-0.098,5.262-0.71
	c1.471-0.53,2.291-1.586,2.507-3.126c0.016-0.112,0.068-0.219,0.104-0.328c0.581,0.002,1.164-0.018,1.743,0.014
	c0.381,0.021,0.495-0.102,0.488-0.484c-0.022-1.259-0.014-2.519-0.008-3.778c0.022-4.63-0.016-9.26-0.119-13.89
	c-0.025-1.145,0.131-2.278,0.47-3.377c0.51-1.655,1.509-2.446,3.232-2.62c3.537-0.355,7.039-0.215,10.484,0.724
	c1.558,0.425,3.038,1.037,4.394,1.925c2.999,1.963,4.618,4.775,5.026,8.299c0.163,1.404,0.398,2.797,0.57,4.198
	c0.051,0.419,0.242,0.479,0.614,0.463c1.296-0.058,2.595-0.122,3.892-0.108c3.888,0.041,6.988,2.623,7.896,6.537
	c0.113,0.489,0.192,0.986,0.288,1.479c0.002,2.465,0.004,4.93,0.006,7.395c-0.212,0.84-0.358,1.697-0.705,2.499
	c-5.057,0.006-10.113-0.001-15.169,0.029c-0.669,0.004-1.129-0.182-1.604-0.671c-4.565-4.684-12.375-3.527-15.436,2.247
	c-0.623,1.177-1.007,2.423-1.285,3.712c-9.075-0.001-18.151-0.002-27.226-0.004c-0.042-0.146-0.095-0.291-0.125-0.44
	c-0.505-2.49-1.654-4.597-3.626-6.243c-4.175-3.484-10.659-2.684-13.857,1.71c-1.093,1.502-1.75,3.171-2.107,4.976
	c-0.969-0.004-1.938-0.009-2.908-0.014c0.487-1.248,0.624-2.535,0.441-3.862c-0.142-1.032-0.55-1.407-1.604-1.422
	c-0.733-0.011-1.467-0.012-2.201-0.017c0.05-0.412-0.07-0.683-0.457-0.941c-1.463-0.976-1.389-3.398,0.104-4.351
	C7.454,55.036,7.664,54.944,7.611,54.651z M62.188,37.035c0.007,0,0.014,0,0.021,0c0,1.182,0.034,2.364-0.009,3.544
	c-0.054,1.521,0.615,2.598,1.905,3.328c0.717,0.406,1.499,0.634,2.312,0.719c2.863,0.301,5.728,0.135,8.588-0.047
	c0.661-0.042,1.355-0.01,1.984-0.352c1.716-0.934,2.531-2.653,2.16-4.654c-0.165-0.893-0.365-1.779-0.554-2.668
	c-0.685-3.234-2.525-5.341-5.866-5.938c-2.077-0.371-4.163-0.694-6.284-0.669c-0.739,0.009-1.468,0.083-2.183,0.278
	c-1.418,0.386-2.07,1.227-2.073,2.683C62.187,34.517,62.188,35.776,62.188,37.035z"/>
<path fill-rule="evenodd" clip-rule="evenodd" fill="#FDCC40" d="M60.818,65.773c0.278-1.289,0.662-2.535,1.285-3.712
	c3.061-5.774,10.87-6.931,15.436-2.247c0.476,0.489,0.936,0.675,1.604,0.671c5.056-0.03,10.112-0.023,15.169-0.029
	c1.229,0.146,1.6,0.525,1.616,1.75c0.013,0.963,0.105,1.936-0.236,2.875c-0.415,1.139-0.812,1.434-2.002,1.434
	c-4.146,0-8.292,0.005-12.438-0.008c-0.477-0.002-0.708,0.049-0.719,0.639c-0.023,1.336-0.961,1.869-2.386,1.44
	c0.058-0.577,0.175-1.154,0.163-1.729c-0.086-4.37-3.445-7.33-7.041-7.592c-3.603-0.263-6.889,1.933-7.946,5.392
	c-0.461,1.51-0.37,3.017-0.018,4.527c-1.189,0.473-2.328-0.195-2.5-1.456C60.717,67.074,60.835,66.425,60.818,65.773z"/>
<path fill-rule="evenodd" clip-rule="evenodd" fill="#434342" d="M63.307,69.184c-0.353-1.511-0.443-3.018,0.018-4.527
	c1.058-3.459,4.344-5.654,7.946-5.392c3.596,0.262,6.955,3.222,7.041,7.592c0.012,0.575-0.105,1.152-0.163,1.729
	c-0.372,1.143-0.825,2.238-1.614,3.176c-3.766,4.476-10.914,3.296-13.04-2.157C63.438,69.462,63.37,69.323,63.307,69.184z
	 M66.479,66.881c0.003,2.365,1.823,4.189,4.18,4.188c2.321-0.001,4.216-1.895,4.207-4.202c-0.01-2.32-1.902-4.201-4.223-4.195
	C68.288,62.677,66.476,64.509,66.479,66.881z"/>
<path fill-rule="evenodd" clip-rule="evenodd" fill="#434342" d="M31.19,68.586c-0.621,2.279-1.915,4.037-4.041,5.115
	c-3.938,1.998-8.752,0.225-10.487-3.844c-0.091-0.213-0.18-0.426-0.27-0.638c-0.089-0.474-0.212-0.944-0.262-1.422
	c-0.323-3.117,0.816-5.615,3.418-7.313c2.626-1.713,5.441-1.768,8.108-0.127C30.706,62.233,31.779,65.084,31.19,68.586z
	 M27.906,66.86c-0.004-2.332-1.876-4.193-4.213-4.189c-2.337,0.004-4.186,1.868-4.18,4.216c0.005,2.349,1.853,4.185,4.208,4.182
	C26.062,71.066,27.91,69.207,27.906,66.86z"/>
<path fill-rule="evenodd" clip-rule="evenodd" fill="#FDCC40" d="M31.19,68.586c0.588-3.502-0.485-6.353-3.533-8.228
	c-2.667-1.641-5.482-1.586-8.108,0.127c-2.602,1.697-3.741,4.195-3.418,7.313c0.05,0.478,0.173,0.948,0.262,1.422
	c-1.28,0.567-2.569-0.405-2.564-1.888c0.001-0.52,0.032-1.04,0.049-1.561c0.356-1.805,1.014-3.474,2.107-4.976
	c3.198-4.394,9.682-5.194,13.857-1.71c1.973,1.646,3.121,3.753,3.626,6.243c0.03,0.149,0.083,0.294,0.125,0.44
	c0.001,0.29-0.009,0.58,0.004,0.869C33.672,68.389,32.887,69.026,31.19,68.586z"/>
<path fill-rule="evenodd" clip-rule="evenodd" fill="#FDCC40" d="M7.605,60.457c0.733,0.005,1.467,0.006,2.201,0.017
	c1.055,0.015,1.462,0.39,1.604,1.422c0.183,1.327,0.046,2.614-0.441,3.862c-0.504,0.682-1.2,0.814-2.001,0.767
	c-0.81-0.048-1.626-0.036-2.438-0.002c-0.704,0.029-1.144-0.326-1.428-0.896c-0.663-1.332-0.554-2.749-0.33-4.147
	c0.105-0.657,0.577-0.946,1.324-0.993C6.598,60.453,7.102,60.465,7.605,60.457z"/>
<path fill-rule="evenodd" clip-rule="evenodd" fill="#FDCC40" d="M95.018,57.957c-0.002-2.465-0.004-4.93-0.006-7.395
	c0.465,0.103,0.724,0.456,0.896,0.841c0.858,1.92,0.864,3.851-0.025,5.763C95.713,57.532,95.466,57.868,95.018,57.957z"/>
<path fill-rule="evenodd" clip-rule="evenodd" fill="#C2FDFC" d="M62.188,37.035c0-1.259-0.002-2.518,0.001-3.777
	c0.003-1.456,0.655-2.297,2.073-2.683c0.715-0.194,1.443-0.269,2.183-0.278c2.121-0.024,4.207,0.298,6.284,0.669
	c3.341,0.597,5.182,2.704,5.866,5.938c0.188,0.889,0.389,1.775,0.554,2.668c0.371,2.001-0.444,3.72-2.16,4.654
	c-0.629,0.342-1.323,0.31-1.984,0.352c-2.86,0.183-5.725,0.348-8.588,0.047c-0.813-0.085-1.595-0.313-2.312-0.719
	c-1.29-0.73-1.959-1.807-1.905-3.328c0.043-1.18,0.009-2.362,0.009-3.544C62.202,37.035,62.195,37.035,62.188,37.035z"/>
<path fill-rule="evenodd" clip-rule="evenodd" fill="#BBBBBB" d="M66.479,66.881c-0.003-2.372,1.81-4.204,4.164-4.21
	c2.32-0.006,4.213,1.875,4.223,4.195c0.009,2.308-1.886,4.201-4.207,4.202C68.302,71.07,66.481,69.246,66.479,66.881z"/>
<path fill-rule="evenodd" clip-rule="evenodd" fill="#BBBBBB" d="M27.906,66.86c0.004,2.347-1.844,4.206-4.184,4.208
	c-2.355,0.003-4.203-1.833-4.208-4.182c-0.006-2.348,1.843-4.212,4.18-4.216C26.029,62.667,27.901,64.528,27.906,66.86z"/>
</svg>
