<?xml version="1.0" encoding="utf-8"?>
<!-- Generator: Adobe Illustrator 16.0.0, SVG Export Plug-In . SVG Version: 6.00 Build 0)  -->
<!DOCTYPE svg PUBLIC "-//W3C//DTD SVG 1.1//EN" "http://www.w3.org/Graphics/SVG/1.1/DTD/svg11.dtd">
<svg version="1.1" id="Layer_1" xmlns="http://www.w3.org/2000/svg" xmlns:xlink="http://www.w3.org/1999/xlink" x="0px" y="0px"
	 width="100px" height="100px" viewBox="0 0 100 100" enable-background="new 0 0 100 100" xml:space="preserve">
<g>
	<path fill-rule="evenodd" clip-rule="evenodd" fill="#030302" d="M2.532,49.286c-0.306-1.556-0.354-3.394,0.185-5.206
		c0.497-1.671,1.353-3.077,3.057-3.781c0.74-0.306,1.503-0.351,2.275-0.168c0.263,0.062,0.369,0.052,0.414-0.265
		c0.543-3.84,2.152-7.184,4.735-10.068c0.336-0.375,0.882-0.765,0.898-1.165c0.016-0.367-0.7-0.564-1.075-0.863
		c-2.41-1.915-3.68-4.443-4.059-7.458c-0.058-0.466,0.058-1.026-0.166-1.38c-0.217-0.345-0.826-0.174-1.257-0.272
		c-3.104-0.708-5.218-3.449-5.083-6.624c0.13-3.069,2.512-5.679,5.604-6.087c1.819-0.241,3.472,0.223,4.906,1.381
		c0.248,0.199,0.371,0.204,0.611-0.014c3.285-2.966,7.032-3.747,11.222-2.317c0.323,0.11,0.421,0.023,0.563-0.244
		c1.323-2.512,4.087-3.853,6.855-3.345c2.776,0.51,4.914,2.752,5.271,5.529c0.337,2.623-0.998,5.249-3.348,6.486
		c-0.407,0.215-0.394,0.402-0.26,0.767c1.312,3.582,1.135,7.024-1.024,10.258c-0.181,0.272-0.164,0.361,0.129,0.502
		c1.41,0.678,2.828,1.344,4.116,2.247c2.135,1.495,3.901,3.337,5.257,5.565c0.174,0.286,0.269,0.339,0.586,0.123
		c1.553-1.055,3.145-0.929,4.69,0.017c1.549,0.948,2.534,2.384,3.226,4.023c1.078,2.549,1.396,5.176,0.678,7.884
		c-0.089,0.34-0.208,0.675-0.346,1c-0.905,2.128-2.514,3.083-4.831,3.239c-4.438,0.3-8.709-0.258-12.824-1.953
		c-0.211-0.086-0.371-0.046-0.567,0.05c-3.206,1.57-6.596,2.271-10.162,2.105c-0.243-0.012-0.405,0.04-0.574,0.212
		c-2.727,2.791-5.907,4.902-9.547,6.309c-0.877,0.339-1.765,0.674-2.677,0.896c-1.708,0.416-3.137-0.232-4.386-1.355
		C4.162,53.994,3.078,51.922,2.532,49.286z M23.26,28.364c2.251-0.462,3.806-1.078,5.318-2.019c3.619-2.251,5.241-5.916,4.236-10.04
		c-1.066-4.376-3.731-7.56-7.807-9.468c-3.819-1.788-7.885-0.996-10.75,2.101c-2.996,3.236-4.199,7.13-3.637,11.488
		c0.527,4.091,3.139,6.887,7.059,7.813C19.692,28.714,21.711,28.669,23.26,28.364z M27.569,47.283
		c1.846-0.395,3.552-0.896,5.117-1.79c2.423-1.382,3.79-3.419,3.821-6.259c0.014-1.305-0.217-2.575-0.624-3.817
		c-1.043-3.188-2.918-5.761-5.642-7.722c-0.268-0.192-0.459-0.208-0.757-0.022c-3.35,2.09-6.999,2.878-10.906,2.356
		c-0.615-0.083-0.898,0.067-1.176,0.579c-2.07,3.803-2.626,7.773-1.306,11.929c0.852,2.684,2.656,4.39,5.461,4.949
		C23.61,47.895,25.641,47.653,27.569,47.283z M20.526,48.887c-2.456-0.691-4.227-2.161-5.357-4.393
		c-0.139-0.275-0.263-0.106-0.39-0.034c-0.642,0.366-1.278,0.741-1.919,1.11c-0.857,0.496-1.186,0.387-1.62-0.489
		c-0.591-1.191-1.34-2.258-2.503-2.964c-1.391-0.845-2.771-0.541-3.698,0.793c-0.5,0.719-0.753,1.532-0.939,2.376
		c-0.068,0.306-0.034,0.42,0.333,0.453c3.013,0.273,5.252,2.281,5.876,5.238c0.23,1.087,0.467,2.173,0.668,3.265
		c0.066,0.361,0.198,0.373,0.497,0.26c1.276-0.479,2.523-1.021,3.716-1.68C17.123,51.751,18.897,50.463,20.526,48.887z
		 M34.919,45.908c3.486,1.3,7.021,1.773,10.657,1.55c0.255-0.016,0.304-0.104,0.248-0.343c-0.151-0.656-0.284-1.316-0.413-1.977
		c-0.183-0.939-0.473-1.866-0.439-2.835c0.086-2.526,1.233-4.422,3.441-5.657c0.308-0.173,0.36-0.293,0.145-0.578
		c-0.375-0.499-0.761-0.983-1.24-1.388c-1.748-1.479-3.608-1.099-4.641,0.952c-0.509,1.01-0.71,2.092-0.744,3.214
		c-0.024,0.8-0.352,1.076-1.157,0.986c-0.784-0.088-1.569-0.176-2.352-0.276c-0.218-0.028-0.318-0.017-0.337,0.259
		C37.92,42.273,36.889,44.299,34.919,45.908z M4.16,13.292c0.408,2.043,2.168,3.661,4.198,3.872c0.37,0.039,0.576-0.004,0.627-0.458
		c0.313-2.761,1.282-5.278,2.917-7.529c0.197-0.271,0.282-0.438-0.056-0.688c-1.638-1.214-3.811-1.313-5.539-0.22
		C4.654,9.314,3.776,11.369,4.16,13.292z M30.102,3.019c-1.332,0.269-2.44,1.076-3.196,2.268c-0.234,0.371-0.198,0.544,0.194,0.774
		c2.355,1.381,4.207,3.28,5.58,5.631c0.271,0.464,0.476,0.474,0.891,0.225c1.894-1.135,2.857-3.683,2.113-5.652
		C34.771,3.853,32.505,2.534,30.102,3.019z M12.622,43.838c0.565-0.331,1.132-0.661,1.696-0.995c0.155-0.09,0.096-0.211,0.056-0.349
		c-0.576-1.997-0.711-4.029-0.497-6.092c0.245-2.36,0.959-4.565,2.126-6.629c0.054-0.096,0.226-0.215,0.052-0.333
		c-0.144-0.098-0.316-0.125-0.456,0.034c-0.056,0.063-0.108,0.129-0.162,0.194c-0.577,0.68-1.168,1.347-1.728,2.041
		c-2.105,2.606-3.345,5.576-3.716,8.909c-0.022,0.195-0.034,0.363,0.143,0.497c0.928,0.702,1.628,1.596,2.212,2.592
		C12.402,43.803,12.467,43.926,12.622,43.838z M37.868,36.598c0.144,0.413-0.027,0.996,0.284,1.229
		c0.305,0.228,0.836,0.153,1.269,0.211c0.166,0.022,0.335,0.034,0.499,0.071c0.306,0.069,0.435-0.007,0.477-0.355
		c0.128-1.058,0.398-2.081,0.932-3.017c0.123-0.215,0.104-0.386-0.021-0.604c-0.98-1.73-2.244-3.221-3.733-4.534
		c-1.64-1.443-3.579-2.378-5.523-3.308c-0.249-0.119-0.554-0.372-0.733,0.001c-0.115,0.24,0.244,0.338,0.406,0.466
		C34.962,29.298,36.976,32.599,37.868,36.598z M46.995,44.818c0.154,0.745,0.313,1.35,0.396,1.967
		c0.066,0.493,0.248,0.534,0.652,0.327c1.043-0.537,1.55-1.473,1.864-2.523c0.622-2.081,0.468-4.147-0.206-6.197
		c-0.137-0.421-0.292-0.501-0.661-0.271c-1.613,1.005-2.456,2.438-2.444,4.353C46.602,43.323,46.894,44.125,46.995,44.818z
		 M9.05,52.872c-0.002,0-0.003,0.001-0.005,0.001c-0.129-0.627-0.243-1.256-0.392-1.878c-0.471-1.974-2.281-3.508-4.277-3.663
		c-0.333-0.025-0.452,0.043-0.416,0.397c0.07,0.67,0.142,1.339,0.322,1.99c0.492,1.78,1.253,3.409,2.708,4.625
		c0.579,0.482,1.233,0.803,2.01,0.841c0.383,0.019,0.561-0.033,0.437-0.485C9.274,54.101,9.176,53.482,9.05,52.872z"/>
	<path fill-rule="evenodd" clip-rule="evenodd" fill="#DFAA78" d="M23.26,28.364c-1.549,0.305-3.568,0.35-5.581-0.126
		c-3.919-0.926-6.532-3.722-7.059-7.813c-0.562-4.357,0.642-8.251,3.637-11.488c2.865-3.096,6.931-3.889,10.75-2.101
		c4.076,1.908,6.741,5.092,7.807,9.468c1.004,4.124-0.618,7.789-4.236,10.04C27.066,27.286,25.511,27.902,23.26,28.364z
		 M23.443,26.681c1.426-0.301,2.747-0.929,3.897-1.905c1.012-0.859,1.004-0.852,0.052-1.769c-0.229-0.22-0.352-0.201-0.559,0.019
		c-0.714,0.756-1.574,1.305-2.545,1.672c-0.136,0.051-0.359,0.285-0.431-0.036c-0.051-0.226-0.318-0.529,0.155-0.696
		c0.557-0.197,1.049-0.526,1.475-0.944c1.449-1.422,1.064-3.332-0.821-4.079c-1.732-0.688-4.179-0.162-5.477,1.176
		c-1.367,1.408-0.983,3.234,0.833,3.981c0.601,0.247,1.227,0.335,1.873,0.322c0.445-0.009,0.292,0.377,0.354,0.591
		c0.074,0.257-0.181,0.183-0.301,0.189c-0.81,0.034-1.605-0.06-2.391-0.272c-0.361-0.098-0.763-0.475-1.055-0.266
		c-0.268,0.19-0.303,0.688-0.481,1.029c-0.159,0.304-0.032,0.397,0.232,0.501C19.921,26.852,21.631,27.036,23.443,26.681z
		 M18.146,17.065c-0.162-0.781-0.535-1.428-1.036-1.793c-0.699-0.511-1.445-0.36-1.89,0.383c-0.662,1.104-0.276,3.032,0.762,3.807
		c0.73,0.545,1.515,0.376,1.946-0.434C18.257,18.407,18.283,17.743,18.146,17.065z M27.66,15.182
		c-0.163-0.786-0.454-1.401-1.022-1.847c-0.704-0.553-1.473-0.402-1.926,0.362c-0.657,1.107-0.265,3.038,0.773,3.805
		c0.715,0.528,1.488,0.375,1.919-0.402C27.754,16.467,27.781,15.787,27.66,15.182z"/>
	<path fill-rule="evenodd" clip-rule="evenodd" fill="#BD8857" d="M27.569,47.283c-1.928,0.37-3.959,0.611-6.011,0.203
		c-2.805-0.559-4.61-2.265-5.461-4.949c-1.32-4.156-0.764-8.126,1.306-11.929c0.278-0.512,0.562-0.662,1.176-0.579
		c3.908,0.522,7.556-0.266,10.906-2.356c0.298-0.186,0.489-0.17,0.757,0.022c2.724,1.96,4.599,4.534,5.642,7.722
		c0.406,1.242,0.637,2.512,0.624,3.817c-0.031,2.84-1.398,4.877-3.821,6.259C31.122,46.387,29.416,46.889,27.569,47.283z
		 M25.771,36.098c-2.206,0.454-3.826,1.237-5,2.37c-1.075,1.038-1.8,2.253-1.523,3.815c0.296,1.678,1.479,2.608,2.984,3.12
		c2.825,0.958,5.538,0.517,8.136-0.839c0.781-0.409,1.464-0.954,2.045-1.62c1.96-2.244,1.38-5.025-1.321-6.281
		C29.262,35.813,27.352,35.808,25.771,36.098z"/>
	<path fill-rule="evenodd" clip-rule="evenodd" fill="#DFAA78" d="M20.526,48.887c-1.629,1.576-3.404,2.864-5.338,3.935
		c-1.193,0.659-2.44,1.201-3.716,1.68c-0.299,0.113-0.43,0.102-0.497-0.26c-0.201-1.092-0.438-2.178-0.668-3.265
		c-0.624-2.957-2.863-4.964-5.876-5.238c-0.367-0.033-0.401-0.146-0.333-0.453c0.186-0.844,0.44-1.657,0.939-2.376
		c0.927-1.334,2.308-1.638,3.698-0.793c1.163,0.706,1.912,1.772,2.503,2.964c0.434,0.876,0.763,0.985,1.62,0.489
		c0.641-0.37,1.277-0.744,1.919-1.11c0.127-0.072,0.251-0.242,0.39,0.034C16.3,46.726,18.071,48.195,20.526,48.887z"/>
	<path fill-rule="evenodd" clip-rule="evenodd" fill="#DFAA78" d="M34.919,45.908c1.97-1.608,3.001-3.634,3.168-6.094
		c0.019-0.275,0.119-0.287,0.337-0.259c0.783,0.1,1.567,0.188,2.352,0.276c0.806,0.09,1.133-0.187,1.157-0.986
		c0.034-1.122,0.235-2.204,0.744-3.214c1.033-2.051,2.894-2.431,4.641-0.952c0.479,0.405,0.865,0.889,1.24,1.388
		c0.215,0.285,0.163,0.405-0.145,0.578c-2.208,1.235-3.354,3.13-3.441,5.657c-0.034,0.97,0.257,1.896,0.439,2.835
		c0.129,0.661,0.261,1.321,0.413,1.977c0.056,0.24,0.007,0.327-0.248,0.343C41.939,47.681,38.405,47.208,34.919,45.908z"/>
	<path fill-rule="evenodd" clip-rule="evenodd" fill="#8D5C31" d="M4.16,13.292c-0.384-1.923,0.494-3.978,2.148-5.023
		c1.729-1.093,3.901-0.994,5.539,0.22c0.337,0.249,0.252,0.417,0.056,0.688c-1.635,2.251-2.604,4.768-2.917,7.529
		c-0.051,0.454-0.257,0.497-0.627,0.458C6.329,16.953,4.568,15.335,4.16,13.292z"/>
	<path fill-rule="evenodd" clip-rule="evenodd" fill="#8D5C31" d="M30.102,3.019c2.403-0.485,4.668,0.833,5.582,3.246
		c0.745,1.969-0.219,4.517-2.113,5.652c-0.415,0.249-0.62,0.24-0.891-0.225c-1.374-2.351-3.225-4.25-5.58-5.631
		c-0.392-0.23-0.428-0.404-0.194-0.774C27.662,4.095,28.77,3.288,30.102,3.019z"/>
	<path fill-rule="evenodd" clip-rule="evenodd" fill="#8D5C31" d="M12.622,43.838c-0.154,0.087-0.219-0.036-0.275-0.132
		c-0.584-0.996-1.285-1.891-2.212-2.592c-0.176-0.133-0.165-0.301-0.143-0.497c0.371-3.333,1.611-6.302,3.716-8.909
		c0.56-0.693,1.151-1.361,1.728-2.041c0.054-0.065,0.106-0.131,0.162-0.194c0.14-0.159,0.313-0.132,0.456-0.034
		c0.174,0.119,0.002,0.238-0.052,0.333c-1.167,2.063-1.881,4.269-2.126,6.629c-0.214,2.063-0.079,4.095,0.497,6.092
		c0.04,0.138,0.099,0.259-0.056,0.349C13.753,43.178,13.187,43.508,12.622,43.838z"/>
	<path fill-rule="evenodd" clip-rule="evenodd" fill="#8D5C31" d="M37.868,36.598c-0.892-3.999-2.905-7.3-6.145-9.84
		c-0.162-0.128-0.521-0.226-0.406-0.466c0.179-0.374,0.484-0.121,0.733-0.001c1.944,0.93,3.883,1.865,5.523,3.308
		c1.49,1.313,2.753,2.803,3.733,4.534c0.125,0.219,0.144,0.39,0.021,0.604c-0.533,0.936-0.803,1.959-0.932,3.017
		c-0.042,0.348-0.17,0.424-0.477,0.355c-0.164-0.037-0.333-0.048-0.499-0.071c-0.432-0.058-0.963,0.017-1.269-0.211
		C37.84,37.594,38.012,37.011,37.868,36.598z"/>
	<path fill-rule="evenodd" clip-rule="evenodd" fill="#BD8857" d="M46.995,44.818c-0.101-0.693-0.394-1.495-0.399-2.345
		c-0.012-1.915,0.832-3.348,2.444-4.353c0.368-0.23,0.524-0.149,0.661,0.271c0.673,2.05,0.827,4.116,0.206,6.197
		c-0.314,1.05-0.821,1.987-1.864,2.523c-0.405,0.207-0.586,0.166-0.652-0.327C47.309,46.168,47.149,45.563,46.995,44.818z"/>
	<path fill-rule="evenodd" clip-rule="evenodd" fill="#BD8857" d="M9.05,52.872c0.126,0.61,0.224,1.229,0.388,1.827
		c0.124,0.452-0.054,0.504-0.437,0.485c-0.777-0.038-1.432-0.358-2.01-0.841c-1.454-1.216-2.215-2.845-2.708-4.625
		c-0.18-0.65-0.252-1.32-0.322-1.99c-0.037-0.354,0.083-0.422,0.416-0.397c1.996,0.155,3.806,1.689,4.277,3.663
		c0.148,0.622,0.262,1.251,0.392,1.878C9.047,52.873,9.048,52.872,9.05,52.872z"/>
	<path fill-rule="evenodd" clip-rule="evenodd" fill="#030302" d="M23.443,26.681c-1.812,0.355-3.522,0.17-5.191-0.488
		c-0.264-0.104-0.391-0.197-0.232-0.501c0.178-0.341,0.213-0.838,0.481-1.029c0.292-0.208,0.694,0.168,1.055,0.266
		c0.786,0.213,1.581,0.306,2.391,0.272c0.121-0.006,0.375,0.068,0.301-0.189c-0.062-0.214,0.092-0.6-0.354-0.591
		c-0.646,0.013-1.272-0.076-1.873-0.322c-1.816-0.747-2.2-2.573-0.833-3.981c1.297-1.337,3.745-1.863,5.477-1.176
		c1.885,0.748,2.27,2.657,0.821,4.079c-0.425,0.418-0.917,0.747-1.475,0.944c-0.473,0.167-0.206,0.47-0.155,0.696
		c0.072,0.321,0.295,0.087,0.431,0.036c0.972-0.367,1.831-0.916,2.545-1.672c0.207-0.22,0.329-0.239,0.559-0.019
		c0.953,0.917,0.96,0.909-0.052,1.769C26.19,25.752,24.87,26.38,23.443,26.681z M22.126,20.345
		c-0.667,0.155-1.281,0.411-1.777,0.894c-0.552,0.538-0.448,1.076,0.257,1.365c1.154,0.471,2.933,0.103,3.804-0.787
		c0.533-0.545,0.417-1.08-0.303-1.356C23.46,20.214,22.795,20.224,22.126,20.345z"/>
	<path fill-rule="evenodd" clip-rule="evenodd" fill="#030302" d="M18.146,17.065c0.137,0.678,0.111,1.341-0.218,1.962
		c-0.431,0.81-1.215,0.979-1.946,0.434c-1.038-0.774-1.423-2.703-0.762-3.807c0.445-0.743,1.191-0.894,1.89-0.383
		C17.611,15.637,17.984,16.285,18.146,17.065z"/>
	<path fill-rule="evenodd" clip-rule="evenodd" fill="#030302" d="M27.66,15.182c0.121,0.605,0.094,1.285-0.256,1.917
		c-0.431,0.777-1.204,0.931-1.919,0.402c-1.039-0.768-1.43-2.698-0.773-3.805c0.454-0.764,1.222-0.915,1.926-0.362
		C27.207,13.781,27.497,14.396,27.66,15.182z"/>
	<path fill-rule="evenodd" clip-rule="evenodd" fill="#030302" d="M25.771,36.098c1.58-0.29,3.491-0.286,5.322,0.565
		c2.702,1.255,3.282,4.037,1.321,6.281c-0.581,0.666-1.264,1.211-2.045,1.62c-2.598,1.356-5.311,1.798-8.136,0.839
		c-1.505-0.511-2.688-1.441-2.984-3.12c-0.276-1.563,0.448-2.778,1.523-3.815C21.946,37.335,23.566,36.552,25.771,36.098z
		 M27.033,44.094c1.438-0.331,2.767-0.869,3.849-1.891c1.708-1.615,1.362-3.506-0.867-4.217c-2.991-0.954-5.771-0.378-8.136,1.689
		c-1.75,1.53-1.335,3.38,0.843,4.19C24.135,44.392,25.584,44.36,27.033,44.094z"/>
	<path fill-rule="evenodd" clip-rule="evenodd" fill="#8D5C31" d="M22.126,20.345c0.669-0.121,1.334-0.131,1.981,0.116
		c0.72,0.276,0.836,0.811,0.303,1.356c-0.871,0.89-2.65,1.258-3.804,0.787c-0.706-0.289-0.809-0.827-0.257-1.365
		C20.845,20.756,21.459,20.5,22.126,20.345z"/>
	<path fill-rule="evenodd" clip-rule="evenodd" fill="#DFAA78" d="M27.033,44.094c-1.449,0.267-2.898,0.298-4.312-0.228
		c-2.178-0.81-2.593-2.66-0.843-4.19c2.365-2.067,5.146-2.643,8.136-1.689c2.229,0.711,2.575,2.602,0.867,4.217
		C29.8,43.225,28.471,43.763,27.033,44.094z"/>
</g>
<g>
	<path fill-rule="evenodd" clip-rule="evenodd" fill="#1D1D1F" d="M72.845,33.378c1.324,0.066,2.645,0.133,3.972,0.2
		c0.001-0.024,0.007-0.069,0.003-0.069c-1.803-0.442-1.842-3.238-0.442-4.408c1.47-1.226,3.866-1.081,5.157,0.333
		c0.058,0.066,0.118,0.126,0.177,0.192c0.097,0.179,0.2,0.354,0.282,0.538c0.671,1.518,0.162,2.935-1.266,3.546
		c-0.012,0.007-0.011,0.045-0.016,0.065c0.491,0.025,0.983,0.05,1.475,0.075c1.146,0.063,2.291,0.126,3.434,0.188
		c0.967,0.051,0.998,0.083,0.999,1.032c-0.012,0.16-0.027,0.317-0.036,0.478c-0.229,4.526-0.458,9.051-0.686,13.578
		c-0.036,0.708-0.17,0.83-0.882,0.794c-4.162-0.209-8.325-0.419-12.486-0.628c-0.157-0.006-0.316-0.057-0.473,0.013
		c-0.177,0.001-0.35,0.008-0.523-0.003c-4.424-0.219-8.853-0.441-13.276-0.671c-0.784-0.04-1.564-0.12-2.348-0.17
		c-0.678-0.045-0.816-0.183-0.782-0.854c0.232-4.614,0.466-9.228,0.696-13.843c0.258-5.094,0.516-10.188,0.771-15.284
		c0.037-0.734,0.162-0.844,0.912-0.806c1.762,0.086,3.522,0.176,5.284,0.265c0.143,0.007,0.284,0.014,0.424,0.021
		c0.021-0.147-0.067-0.141-0.129-0.157c-1.045-0.253-1.623-0.872-1.767-1.953c-0.108-0.817-0.037-1.633,0.236-2.415
		c0.838-2.387,3.792-3.057,5.586-1.276c0.092,0.093,0.186,0.184,0.279,0.276c0.691,0.97,0.818,2.065,0.698,3.208
		c-0.145,1.39-0.756,2.054-2.109,2.322c-0.035,0.006-0.063,0.047-0.156,0.121c0.495,0.024,0.928,0.047,1.356,0.068
		c1.434,0.078,2.869,0.151,4.302,0.226c0.896,0.045,0.954,0.1,1,0.987c-0.177,1.881-0.264,3.767-0.334,5.656
		c-0.016,0.158-0.021,0.318-0.04,0.478c-0.02,0.183-0.106,0.327-0.274,0.418c-0.677,0.369-1.529-0.082-1.582-0.847
		c-0.028-0.395-0.02-0.794-0.399-1.052c-0.722-0.521-1.677-0.359-2.255,0.423c-0.668,0.898-0.751,1.909-0.391,2.943
		c0.223,0.644,0.658,1.126,1.373,1.267c0.815,0.197,1.47-0.259,1.566-1.089c0.093-0.806,0.923-1.211,1.618-0.79
		c0.21,0.128,0.268,0.329,0.256,0.558c-0.021,0.464-0.04,0.925-0.06,1.388c-0.066,1.189-0.13,2.375-0.191,3.565
		C71.74,33.381,71.742,33.382,72.845,33.378z M71.057,28.444c0.035-0.063,0.031-0.122-0.05-0.124
		c-0.061-0.003-0.099,0.047-0.088,0.12c-0.215,0.548-0.682,0.836-1.165,1.103c-1.469,0.351-2.739-0.239-3.334-1.604
		c-0.558-1.284-0.484-2.568,0.231-3.774c0.552-0.93,1.392-1.44,2.499-1.403c1.043,0.033,1.684,0.636,2.111,1.608
		c0.056-1.584,0.11-3.108,0.266-4.627c0.034-0.335-0.073-0.417-0.395-0.427c-1.79-0.076-3.58-0.172-5.372-0.268
		c-0.216-0.011-0.431-0.052-0.647-0.08c-0.313-0.293-0.159-0.688-0.221-1.036c0.181-0.676,0.38-0.848,1.078-0.937
		c0.611-0.08,0.926-0.351,1.092-0.956c0.14-0.511,0.152-1.032,0.107-1.558c-0.098-1.132-0.671-1.889-1.743-2.271
		c-1.409-0.337-2.651,0.375-3.031,1.756c-0.158,0.576-0.204,1.171-0.121,1.769c0.099,0.715,0.465,1.065,1.151,1.124
		c0.469,0.098,0.719,0.402,0.814,0.858c-0.083,0.41,0.073,0.892-0.35,1.205c-0.537-0.016-1.073-0.027-1.609-0.048
		c-1.23-0.049-2.461-0.103-3.692-0.154c-0.143-0.019-0.286-0.042-0.431-0.05c-0.609-0.035-0.608-0.032-0.639,0.555
		c-0.209,4.132-0.417,8.264-0.625,12.396c-0.052,1.018-0.052,1.018,1,1.001c0.073,0.008,0.144,0.023,0.216,0.029
		c4.1,0.207,8.2,0.413,12.3,0.62c0.043,0.002,0.089,0,0.133,0.006c0.195,0.032,0.247-0.068,0.255-0.246
		c0.042-1.09,0.089-2.179,0.135-3.269C70.972,29.324,71.013,28.883,71.057,28.444z M76.235,39.25l-0.004-0.005
		c0.012,0.056,0.011,0.116,0.034,0.165c0.987,2.011,0.396,4.503-1.884,5.4c-0.755,0.192-1.455,0.095-2.084-0.389
		c-0.473-0.378-0.544-0.933-0.66-1.475c-0.029-0.135-0.003-0.368-0.244-0.339c-0.209,0.027-0.146,0.225-0.151,0.355
		c-0.076,1.41-0.144,2.818-0.215,4.228c-0.057,1.12-0.057,1.12,1.066,1.111c4.174,0.214,8.35,0.422,12.521,0.647
		c0.396,0.023,0.337-0.208,0.349-0.432c0.219-4.364,0.436-8.728,0.671-13.091c0.019-0.386-0.108-0.448-0.45-0.461
		c-1.964-0.082-3.928-0.187-5.89-0.284c-0.294-0.253-0.257-0.598-0.245-0.931c0.131-0.694,0.533-0.985,1.256-0.962
		c0.491,0.017,0.863-0.415,0.949-0.928c0.206-1.209-0.412-2.153-1.634-2.495c-0.941-0.281-1.828-0.149-2.594,0.463
		c-0.638,0.514-0.77,1.235-0.611,2.017c0.119,0.595,0.567,0.753,1.098,0.79c0.541,0.134,0.878,0.444,0.897,1.029
		c-0.078,0.343-0.024,0.746-0.423,0.945c-1.728-0.056-3.449-0.23-5.181-0.181c-0.283-0.24-0.589,0.064-0.877-0.037
		c-0.204-0.074-0.264,0.005-0.275,0.22c-0.074,1.681-0.165,3.363-0.246,5.047c-0.005,0.115-0.073,0.291,0.138,0.295
		c0.151,0.003,0.17-0.137,0.178-0.253c0.048-0.63,0.391-1.075,0.879-1.433c1.362-0.572,2.514-0.277,3.549,0.909
		C76.179,39.201,76.205,39.225,76.235,39.25z M72.458,40.56c-0.246,0.236-0.525,0.409-0.886,0.38
		c-0.202-0.018-0.248,0.102-0.242,0.267c0.003,0.164-0.079,0.41,0.181,0.41c0.766,0.001,0.954,0.526,1.082,1.123
		c0.131,0.912,0.326,1.131,1.054,1.189c0.179,0.037,0.342-0.021,0.507-0.085c1.274-0.498,1.881-1.864,1.484-3.369
		c-0.153-0.594-0.4-1.123-1.056-1.321c-0.104-0.117-0.256-0.136-0.393-0.166c-0.889-0.195-1.401,0.145-1.561,1.033
		C72.596,40.21,72.539,40.388,72.458,40.56z M57.128,47.543c0.057,0.005,0.113,0.022,0.173,0.025
		c4.114,0.208,8.233,0.412,12.346,0.632c0.343,0.018,0.374-0.138,0.387-0.405c0.218-4.38,0.437-8.757,0.668-13.135
		c0.019-0.353-0.086-0.438-0.421-0.454c-4.031-0.192-8.058-0.399-12.087-0.601c-0.117-0.006-0.232,0.004-0.349,0.004
		c-0.158-0.01-0.319-0.023-0.479-0.033c-0.569-0.028-0.569-0.028-0.599,0.549c-0.207,4.129-0.415,8.259-0.625,12.39
		C56.091,47.545,56.091,47.545,57.128,47.543z"/>
	<path fill-rule="evenodd" clip-rule="evenodd" fill="#F6E271" d="M82.505,9.683c2.018,0.107,4.031,0.212,6.047,0.316
		c0.069,0.003,0.141-0.026,0.211-0.04c0.168,0.103,0.358,0.101,0.548,0.111c1.44,0.071,2.88,0.15,4.323,0.212
		c0.258,0.01,0.351,0.07,0.334,0.352c-0.232,4.44-0.454,8.88-0.675,13.32c-0.01,0.207-0.048,0.312-0.294,0.295
		c-1.106-0.074-2.211-0.126-3.317-0.189c0.854-0.259,1.313-0.799,1.238-1.725c-0.015-0.172,0.015-0.347,0.02-0.521
		c0.022-0.656-0.547-1.689-1.571-1.951l0.008,0.003c-0.032-0.029-0.066-0.058-0.099-0.087c-0.353-0.37-0.734-0.697-1.203-0.919
		c-2.612-1.23-5.275,0.447-5.061,3.184c0.056,0.705,0.401,1.196,1.006,1.526c0.121,0.065,0.249,0.117,0.486,0.23
		c-1.448-0.073-2.761-0.139-4.073-0.206c0.089-1.746,0.177-3.493,0.267-5.239c0.01-0.218,0.069-0.444-0.288-0.442
		c-0.305,0-0.595-0.056-0.604,0.399c-0.004,0.273-0.098,0.541-0.233,0.786c-0.031-0.405,0.013-0.811,0.054-1.214
		c0.065-0.635-0.146-0.952-0.668-1.011c-0.717-0.081-1.108,0.187-1.201,0.816c-0.157,1.066-0.602,1.366-1.649,1.114
		c-0.027-0.018-0.054-0.038-0.08-0.059l0.003,0.011c0.026-0.141-0.064-0.249-0.107-0.37c-0.614-1.705-0.03-3.518,1.387-4.278
		c0.296,0.107,0.399,0.35,0.445,0.639c0.047,0.284,0.06,0.577,0.179,0.848c0.214,0.486,0.628,0.683,1.222,0.601
		c0.521-0.07,0.598-0.426,0.591-0.854c-0.003-0.055,0.026-0.11,0.042-0.164c0.155,0.194,0.158,0.429,0.146,0.654
		c-0.027,0.433,0.264,0.393,0.544,0.429c0.341,0.041,0.334-0.166,0.346-0.398c0.101-2.061,0.204-4.123,0.306-6.185
		C81.59,9.637,82.047,9.758,82.505,9.683z"/>
	<path fill-rule="evenodd" clip-rule="evenodd" fill="#1D1D1F" d="M82.505,9.683c-0.458,0.075-0.915-0.045-1.373-0.005
		c-0.275-0.021-0.55-0.034-0.824-0.064c-0.197-0.021-0.288,0.032-0.297,0.25c-0.069,1.711-0.152,3.42-0.227,5.132
		c-0.036,0.063-0.054,0.127,0.01,0.188l-0.004-0.005c-0.016,0.054-0.045,0.109-0.042,0.164c0.007,0.428-0.07,0.785-0.591,0.854
		c-0.594,0.082-1.008-0.114-1.222-0.601c-0.119-0.271-0.132-0.563-0.179-0.848c-0.046-0.289-0.149-0.532-0.445-0.639
		c-1.096-0.394-1.983-0.005-2.409,1.055c-0.229,0.58-0.302,1.187-0.248,1.8c0.083,0.966,0.588,1.607,1.378,1.793l-0.003-0.011
		c-0.005,0.063,0.037,0.063,0.08,0.059c1.048,0.252,1.492-0.048,1.649-1.114c0.093-0.629,0.484-0.897,1.201-0.816
		c0.522,0.059,0.733,0.375,0.668,1.011c-0.041,0.404-0.085,0.809-0.054,1.214c-0.066,1.141-0.137,2.283-0.197,3.424
		c-0.06,1.08-0.058,1.08,1.056,1.072c1.313,0.067,2.625,0.133,4.073,0.206c-0.237-0.113-0.365-0.165-0.486-0.23
		c-0.604-0.33-0.95-0.821-1.006-1.526c-0.215-2.737,2.448-4.414,5.061-3.184c0.469,0.222,0.851,0.55,1.203,0.919
		c0.016,0.047,0.024,0.103,0.099,0.087l-0.008-0.003c-0.001,0.172,0.125,0.288,0.188,0.427c0.738,1.603,0.186,3.092-1.405,3.692
		c0.535,0.027,1.032,0.052,1.53,0.077c1.106,0.063,2.211,0.115,3.317,0.189c0.246,0.016,0.284-0.089,0.294-0.295
		c0.221-4.44,0.442-8.88,0.675-13.32c0.017-0.281-0.076-0.342-0.334-0.352c-1.443-0.062-2.883-0.141-4.323-0.212
		c-0.189-0.01-0.38-0.008-0.548-0.111c-0.149-0.178-0.238-0.366-0.111-0.595c0.131-0.238,0.348-0.277,0.595-0.264
		c1.68,0.086,3.36,0.167,5.042,0.257c0.562,0.029,0.66,0.181,0.67,0.964c-0.015,0.173-0.034,0.347-0.042,0.521
		c-0.229,4.549-0.462,9.096-0.685,13.643c-0.015,0.311-0.073,0.575-0.353,0.746c-1.926-0.089-3.853-0.177-5.776-0.271
		c-0.358-0.018-0.726,0.029-1.07-0.124c-0.299-0.226-0.377-0.553-0.408-0.9c0.13-0.686,0.296-0.828,1.06-0.909
		c0.833-0.087,1.184-0.463,1.201-1.296c0.026-1.118-0.643-1.94-1.751-2.154c-1.631-0.521-3.105,0.431-3.164,2.043
		c-0.031,0.835,0.278,1.179,1.132,1.265c0.448,0.157,0.813,0.394,0.879,0.913c-0.017,0.493-0.25,0.831-0.713,1.006
		c-2.11-0.101-4.222-0.199-6.332-0.307c-0.446-0.023-0.605-0.233-0.583-0.738c0.052-1.282,0.113-2.562,0.169-3.844
		c0.021-0.437,0.044-0.875,0.066-1.313c-0.264,0.588-0.694,0.971-1.283,1.183c-2.217,0.423-4.103-1.239-3.526-4.199
		c0.08-0.415,0.217-0.813,0.422-1.186c0.678-1.232,2.169-1.746,3.468-1.2c0.379,0.16,0.659,0.421,0.852,0.779
		c0.038,0.067,0.018,0.198,0.147,0.168c0.104-0.024,0.177-0.095,0.178-0.215c0.003-0.103,0.011-0.203,0.016-0.305
		c0.073-1.412,0.143-2.822,0.217-4.234c0.031-0.642,0.198-0.791,0.839-0.761c0.729,0.035,1.455,0.076,2.182,0.109
		c0.261,0.011,0.504,0.054,0.614,0.327C82.813,9.321,82.683,9.513,82.505,9.683z"/>
	<path fill-rule="evenodd" clip-rule="evenodd" fill="#F0623D" d="M72.057,49.304c0.156-0.069,0.315-0.019,0.473-0.013
		c4.161,0.209,8.324,0.419,12.486,0.628c0.712,0.036,0.846-0.086,0.882-0.794c0.228-4.527,0.456-9.051,0.686-13.578
		c0.009-0.161,0.024-0.318,0.036-0.478c0.031,0.003,0.061,0.005,0.088,0.006c1.004,0.064,1.121,0.163,1.026,1.228
		c-0.256,2.846-0.32,5.702-0.485,8.552c-0.095,1.627-0.175,3.258-0.242,4.888c-0.013,0.287-0.097,0.366-0.385,0.35
		c-4.756-0.247-9.514-0.484-14.271-0.725C72.25,49.36,72.153,49.327,72.057,49.304z"/>
	<path fill-rule="evenodd" clip-rule="evenodd" fill="#F6E271" d="M93.879,25.23c0.279-0.17,0.338-0.435,0.353-0.746
		c0.223-4.547,0.455-9.094,0.685-13.643c0.008-0.173,0.027-0.347,0.042-0.521c0.355,0.057,0.826-0.114,1.043,0.14
		c0.216,0.249,0.036,0.697,0.019,1.057c-0.218,4.435-0.448,8.87-0.658,13.307c-0.021,0.391-0.118,0.552-0.526,0.482
		C94.521,25.254,94.197,25.255,93.879,25.23z"/>
	<path fill-rule="evenodd" clip-rule="evenodd" fill="#6AD0CB" d="M72.178,25.021c0.07-1.889,0.157-3.774,0.334-5.656
		c1.031,0.073,1.031,0.073,0.98,1.103c-0.088,1.722-0.18,3.448-0.259,5.173c-0.01,0.266-0.044,0.438-0.369,0.439
		c-0.306,0-0.486-0.083-0.553-0.412C72.271,25.453,72.411,25.193,72.178,25.021z"/>
	<path fill-rule="evenodd" clip-rule="evenodd" fill="#6AD0CB" d="M72.845,33.378c-1.103,0.003-1.104,0.003-1.046-1.096
		c0.062-1.189,0.125-2.375,0.191-3.565c0.218-0.094,0.122-0.301,0.163-0.458c0.08-0.302,0.21-0.584,0.564-0.556
		c0.39,0.03,0.404,0.344,0.388,0.656C73.016,30.033,72.931,31.706,72.845,33.378z"/>
	<path fill-rule="evenodd" clip-rule="evenodd" fill="#6AD0CB" d="M67.21,18.153c-0.429-0.021-0.861-0.043-1.356-0.068
		c0.094-0.074,0.121-0.114,0.156-0.121c1.354-0.268,1.965-0.932,2.109-2.322c0.12-1.143-0.007-2.238-0.698-3.208
		c0.75,0.239,1.191,0.802,1.487,1.486c0.373,0.868,0.394,1.779,0.161,2.685c-0.236,0.922-0.774,1.352-1.724,1.443
		C67.273,18.055,67.195,18.042,67.21,18.153z"/>
	<path fill-rule="evenodd" clip-rule="evenodd" fill="#6AD0CB" d="M68.609,28.651c-0.715-0.14-1.15-0.623-1.373-1.267
		c-0.36-1.034-0.277-2.044,0.391-2.943c0.578-0.782,1.533-0.944,2.255-0.423c-0.876,0.169-1.61,1.088-1.758,2.158
		C68.001,27.062,68.172,27.88,68.609,28.651z"/>
	<path fill-rule="evenodd" clip-rule="evenodd" fill="#F0623D" d="M82.187,33.85c-0.491-0.024-0.983-0.05-1.475-0.075
		c0.005-0.02,0.004-0.058,0.016-0.065c1.428-0.611,1.937-2.029,1.266-3.546c-0.082-0.184-0.186-0.359-0.282-0.538
		c1.725,0.698,1.922,2.1,1.335,3.537C82.889,33.542,82.546,33.712,82.187,33.85z"/>
	<path fill-rule="evenodd" clip-rule="evenodd" fill="#F6E271" d="M86.624,23.935c0.031,0.348,0.109,0.674,0.408,0.9
		c-0.591,0.118-1.176-0.009-1.765-0.033c0.463-0.176,0.696-0.513,0.713-1.006C86.193,23.85,86.397,23.945,86.624,23.935z"/>
	<path fill-rule="evenodd" clip-rule="evenodd" fill="#F6E271" d="M77.305,19.783c0.589-0.212,1.02-0.594,1.283-1.183
		c-0.022,0.438-0.045,0.875-0.066,1.313C78.118,19.865,77.696,19.95,77.305,19.783z"/>
	<path fill-rule="evenodd" clip-rule="evenodd" fill="#1F4C92" d="M57.845,33.61c0.116,0,0.231-0.01,0.349-0.004
		c4.029,0.201,8.056,0.408,12.087,0.601c0.335,0.017,0.439,0.102,0.421,0.454c-0.231,4.378-0.45,8.755-0.668,13.135
		c-0.013,0.268-0.044,0.423-0.387,0.405c-4.112-0.22-8.231-0.424-12.346-0.632c-0.06-0.002-0.116-0.02-0.173-0.025
		c0.017-0.25,0.031-0.498,0.043-0.744C57.395,42.403,57.619,38.007,57.845,33.61z"/>
	<path fill-rule="evenodd" clip-rule="evenodd" fill="#6AD0CB" d="M65.113,18.966c0.217,0.028,0.432,0.069,0.647,0.08
		c1.792,0.096,3.582,0.192,5.372,0.268c0.321,0.011,0.429,0.092,0.395,0.427c-0.155,1.52-0.21,3.043-0.266,4.627
		c-0.428-0.972-1.068-1.575-2.111-1.608c-1.107-0.037-1.947,0.473-2.499,1.403c-0.716,1.206-0.789,2.491-0.231,3.774
		c0.595,1.366,1.865,1.956,3.334,1.604c0.357,0.256,0.771,0.219,1.179,0.22c-0.046,1.09-0.093,2.179-0.135,3.269
		c-0.008,0.178-0.06,0.277-0.255,0.246c-0.044-0.006-0.09-0.004-0.133-0.006c-4.1-0.207-8.2-0.413-12.3-0.62
		c-0.072-0.005-0.143-0.021-0.216-0.029c0.233-4.634,0.464-9.27,0.694-13.902c1.231,0.051,2.462,0.105,3.692,0.154
		c0.536,0.021,1.072,0.032,1.609,0.048C64.297,18.961,64.704,19.001,65.113,18.966z"/>
	<path fill-rule="evenodd" clip-rule="evenodd" fill="#F0623D" d="M72.298,44.421c0.629,0.484,1.329,0.581,2.084,0.389
		c0.963,0.19,1.902,0.304,2.639-0.575c0.917-1.098,1.035-3.064,0.22-4.246c-0.247-0.356-0.524-0.696-1.009-0.745l0.004,0.005
		c0.007-0.065-0.038-0.069-0.084-0.074c-1.035-1.186-2.187-1.481-3.549-0.909c0.068-1.279,0.135-2.559,0.204-3.839
		c1.731-0.05,3.453,0.125,5.181,0.181c0.432,0.084,0.866,0.123,1.307,0.072c1.962,0.097,3.926,0.202,5.89,0.284
		c0.342,0.013,0.469,0.076,0.45,0.461c-0.235,4.363-0.452,8.727-0.671,13.091c-0.012,0.225,0.047,0.455-0.349,0.432
		c-4.171-0.225-8.347-0.433-12.521-0.647C72.161,47.008,72.23,45.713,72.298,44.421z"/>
	<path fill-rule="evenodd" clip-rule="evenodd" fill="#6AD0CB" d="M65.427,12.209c1.072,0.381,1.646,1.139,1.743,2.271
		c0.045,0.526,0.032,1.047-0.107,1.558c-0.166,0.604-0.48,0.876-1.092,0.956c-0.698,0.088-0.897,0.261-1.078,0.937
		c-0.219-0.071-0.434-0.144-0.652-0.213c-0.096-0.456-0.346-0.76-0.814-0.858c-0.183-0.598-0.158-1.208-0.091-1.814
		c0.144-1.272,0.688-2.266,1.972-2.719C65.352,12.309,65.386,12.249,65.427,12.209z"/>
	<path fill-rule="evenodd" clip-rule="evenodd" fill="#F0623D" d="M79.62,29.365c1.222,0.342,1.84,1.286,1.634,2.495
		c-0.086,0.513-0.458,0.945-0.949,0.928c-0.723-0.023-1.125,0.268-1.26,0.962c-0.212-0.03-0.423-0.059-0.635-0.086
		c-0.02-0.585-0.356-0.896-0.897-1.029c-0.261-1.207,0.155-2.212,1.209-2.852C79.001,29.612,79.321,29.501,79.62,29.365z"/>
	<path fill-rule="evenodd" clip-rule="evenodd" fill="#1F4C92" d="M72.593,42.739c-0.128-0.597-0.316-1.122-1.082-1.123
		c-0.26,0-0.178-0.246-0.181-0.41c-0.006-0.165,0.04-0.284,0.242-0.267c0.36,0.029,0.64-0.144,0.886-0.38
		c0.05,0.148-0.09,0.382,0.069,0.44c0.297,0.111,0.633,0.123,0.942,0.048c0.244-0.06,0.206-0.317,0.231-0.517
		c0.089-0.591,0.337-1.078,0.881-1.378c0.655,0.198,0.902,0.727,1.056,1.321c0.396,1.504-0.21,2.871-1.484,3.369
		c-0.165,0.063-0.328,0.122-0.507,0.085c-0.027-0.184-0.071-0.367-0.081-0.551c-0.035-0.611-0.03-0.612-0.631-0.637
		C72.819,42.735,72.707,42.741,72.593,42.739z"/>
	<path fill-rule="evenodd" clip-rule="evenodd" fill="#1F4C92" d="M76.231,39.245c0.484,0.049,0.762,0.389,1.009,0.745
		c0.815,1.182,0.697,3.147-0.22,4.246c-0.736,0.879-1.676,0.766-2.639,0.575c2.279-0.897,2.871-3.39,1.884-5.4
		C76.242,39.361,76.243,39.301,76.231,39.245z"/>
	<path fill-rule="evenodd" clip-rule="evenodd" fill="#1F4C92" d="M72.298,44.421c-0.067,1.292-0.137,2.587-0.204,3.881
		c-1.123,0.008-1.123,0.008-1.066-1.111c0.071-1.41,0.139-2.818,0.215-4.228c0.006-0.13-0.058-0.329,0.151-0.355
		c0.241-0.029,0.215,0.204,0.244,0.339C71.754,43.488,71.825,44.042,72.298,44.421z"/>
	<path fill-rule="evenodd" clip-rule="evenodd" fill="#1F4C92" d="M72.807,34.428c-0.069,1.281-0.136,2.561-0.204,3.839
		c-0.488,0.358-0.831,0.803-0.879,1.433c-0.008,0.116-0.026,0.257-0.178,0.253c-0.211-0.004-0.143-0.181-0.138-0.295
		c0.081-1.684,0.172-3.366,0.246-5.047c0.012-0.215,0.071-0.294,0.275-0.22C72.218,34.492,72.523,34.188,72.807,34.428z"/>
	<path fill-rule="evenodd" clip-rule="evenodd" fill="#F0623D" d="M74.582,39.153c-0.544,0.3-0.792,0.787-0.881,1.378
		c-0.025,0.2,0.013,0.457-0.231,0.517c-0.31,0.075-0.646,0.063-0.942-0.048c-0.159-0.058-0.02-0.292-0.069-0.44
		c0.081-0.171,0.138-0.349,0.171-0.539c0.159-0.889,0.672-1.228,1.561-1.033C74.326,39.017,74.479,39.037,74.582,39.153z"/>
	<path fill-rule="evenodd" clip-rule="evenodd" fill="#F0623D" d="M72.593,42.739c0.114,0.002,0.227-0.004,0.342,0.002
		c0.601,0.024,0.596,0.026,0.631,0.637c0.01,0.184,0.054,0.367,0.081,0.551C72.919,43.87,72.724,43.65,72.593,42.739z"/>
	<path fill-rule="evenodd" clip-rule="evenodd" fill="#1F4C92" d="M71.057,28.444c-0.046-0.002-0.093-0.001-0.138-0.004
		c-0.011-0.073,0.027-0.124,0.088-0.12C71.088,28.322,71.092,28.381,71.057,28.444z"/>
	<path fill-rule="evenodd" clip-rule="evenodd" fill="#1F4C92" d="M76.151,39.176c0.046,0.005,0.091,0.009,0.084,0.074
		C76.205,39.225,76.179,39.201,76.151,39.176z"/>
	<path fill-rule="evenodd" clip-rule="evenodd" fill="#FDFDFD" d="M89.376,19.868c-0.074,0.016-0.083-0.04-0.099-0.087
		C89.31,19.81,89.344,19.838,89.376,19.868z"/>
	<path fill-rule="evenodd" clip-rule="evenodd" fill="#FDFDFD" d="M76.109,18.804c-0.043,0.004-0.085,0.004-0.08-0.059
		C76.056,18.766,76.082,18.786,76.109,18.804z"/>
	<path fill-rule="evenodd" clip-rule="evenodd" fill="#F6E271" d="M87.134,19.575c-0.376,0.178-0.784,0.284-1.131,0.533
		c-0.978,0.712-1.015,1.715-0.901,2.775c-0.854-0.086-1.163-0.43-1.132-1.265C84.028,20.005,85.503,19.054,87.134,19.575z"/>
	<path fill-rule="evenodd" clip-rule="evenodd" fill="#F6E271" d="M79.784,14.994c0.04,0.061,0.05,0.122,0.01,0.188
		C79.73,15.122,79.748,15.058,79.784,14.994z"/>
</g>
<g transform="translate(1.4065934065934016 1.4065934065934016) scale(2.81 2.81)">
	<polygon fill="#C03A2B" points="26.023,29.395 18.877,32.66 18.877,22.763 26.023,19.5 	"/>
	<polygon fill="#E64C3C" points="9.932,29.395 17.078,32.66 17.078,22.763 9.932,19.5 	"/>
	<rect x="17.078" y="22.763" fill="#C03A2B" width="1.8" height="9.896"/>
	<polygon fill="#E4C54C" points="23.577,25.639 21.128,26.758 21.128,23.365 23.577,22.245 	"/>
	<polygon fill="#E4C54C" points="12.379,25.639 14.827,26.758 14.827,23.365 12.379,22.245 	"/>
	<path d="M21.128,26.942c-0.034,0-0.069-0.01-0.099-0.029c-0.052-0.034-0.084-0.092-0.084-0.154v-3.393
		c0-0.072,0.042-0.137,0.107-0.166l2.449-1.119c0.057-0.025,0.123-0.022,0.176,0.013c0.052,0.034,0.084,0.091,0.084,0.154v3.393
		c0,0.072-0.042,0.136-0.107,0.166l-2.449,1.119C21.179,26.936,21.153,26.942,21.128,26.942z M21.31,23.483v2.991l2.084-0.952
		v-2.991L21.31,23.483z M23.577,25.639h0.002H23.577z"/>
	<path fill="#CDBF87" d="M17.978,22.468c0-2.611-1.013-3.739-3.398-4.545V19.5L17.978,22.468z"/>
	<path d="M17.978,22.651c-0.043,0-0.086-0.015-0.12-0.045l-3.398-2.969c-0.04-0.035-0.063-0.085-0.063-0.138v-1.576
		c0-0.059,0.028-0.114,0.076-0.149c0.048-0.034,0.11-0.043,0.165-0.025c2.567,0.867,3.522,2.146,3.522,4.718
		c0,0.072-0.042,0.137-0.107,0.166C18.029,22.646,18.004,22.651,17.978,22.651z M14.763,19.416l3.023,2.642
		c-0.093-2.056-0.926-3.115-3.023-3.877V19.416z"/>
	<path fill="#CDBF87" d="M17.978,22.764v-0.295c0-0.669-0.332-1.3-0.895-1.661c-1.638-1.051-3.53-1.706-5.58-2.116L9.932,19.5
		l7.145,3.264L17.978,22.764L17.978,22.764z"/>
	<path fill="#CDBF87" d="M17.978,22.764v-0.295c0-0.669,0.332-1.3,0.896-1.661c1.638-1.051,3.53-1.706,5.58-2.116l1.57,0.808
		l-7.145,3.264H17.978z"/>
	<path d="M21.128,28.247c-0.07,0-0.136-0.04-0.166-0.107c-0.042-0.092-0.002-0.2,0.09-0.242l2.449-1.119
		c0.092-0.042,0.201-0.001,0.243,0.09c0.042,0.092,0.002,0.2-0.09,0.242l-2.449,1.119C21.179,28.242,21.153,28.247,21.128,28.247z"
		/>
	<path d="M21.128,29.553c-0.07,0-0.136-0.04-0.166-0.107c-0.042-0.092-0.002-0.201,0.09-0.242l2.449-1.119
		c0.092-0.042,0.201-0.001,0.243,0.09c0.042,0.092,0.002,0.201-0.09,0.242l-2.449,1.119C21.179,29.548,21.153,29.553,21.128,29.553z
		"/>
	<path d="M14.828,26.942c-0.026,0-0.051-0.006-0.076-0.017l-2.449-1.119c-0.065-0.029-0.107-0.095-0.107-0.166v-3.393
		c0-0.062,0.032-0.12,0.084-0.154c0.052-0.034,0.118-0.038,0.175-0.013l2.45,1.119c0.065,0.03,0.107,0.095,0.107,0.166v3.393
		c0,0.063-0.032,0.12-0.084,0.154C14.897,26.931,14.862,26.942,14.828,26.942z M12.561,25.522l2.084,0.952v-2.991l-2.084-0.952
		V25.522z"/>
	<path d="M14.828,28.247c-0.025,0-0.051-0.006-0.075-0.017l-2.45-1.119c-0.092-0.042-0.132-0.15-0.091-0.242
		c0.042-0.092,0.15-0.132,0.242-0.09l2.45,1.119c0.092,0.042,0.132,0.15,0.09,0.242C14.964,28.207,14.897,28.247,14.828,28.247z"/>
	<path d="M14.828,29.553c-0.025,0-0.051-0.005-0.075-0.017l-2.45-1.119c-0.092-0.042-0.132-0.15-0.091-0.242
		c0.042-0.092,0.15-0.132,0.242-0.09l2.45,1.119c0.092,0.042,0.132,0.15,0.09,0.242C14.964,29.513,14.897,29.553,14.828,29.553z"/>
	<path d="M18.878,32.843c-0.035,0-0.069-0.01-0.099-0.029c-0.052-0.034-0.084-0.091-0.084-0.154v-9.896
		c0-0.071,0.042-0.136,0.107-0.166l7.145-3.264c0.056-0.026,0.122-0.022,0.175,0.012c0.052,0.034,0.084,0.092,0.084,0.154v9.896
		c0,0.072-0.042,0.137-0.107,0.166l-7.145,3.265C18.929,32.837,18.903,32.843,18.878,32.843z M19.061,22.882v9.494l6.78-3.098
		v-9.495L19.061,22.882z M26.023,29.395h0.002H26.023z"/>
	<path d="M17.078,32.843c-0.025,0-0.051-0.006-0.076-0.016l-7.145-3.265c-0.065-0.03-0.107-0.095-0.107-0.166V19.5
		c0-0.062,0.032-0.12,0.084-0.154c0.052-0.033,0.118-0.038,0.175-0.012l7.146,3.265c0.065,0.03,0.106,0.095,0.106,0.166v9.896
		c0,0.063-0.031,0.121-0.084,0.154C17.147,32.833,17.112,32.843,17.078,32.843z M10.115,29.278l6.779,3.098v-9.494l-6.779-3.098
		V29.278z"/>
	<path d="M18.878,32.843h-1.8c-0.101,0-0.183-0.082-0.183-0.183v-9.896c0-0.101,0.082-0.182,0.183-0.182h1.8
		c0.101,0,0.183,0.082,0.183,0.182v9.896C19.061,32.761,18.979,32.843,18.878,32.843z M17.261,32.477h1.434v-9.531h-1.434V32.477
		L17.261,32.477z"/>
	<path d="M17.978,22.947h-0.9c-0.026,0-0.052-0.006-0.076-0.016l-7.145-3.265c-0.064-0.029-0.105-0.092-0.107-0.162
		c-0.002-0.07,0.037-0.135,0.099-0.167l1.571-0.808c0.036-0.019,0.079-0.025,0.12-0.017c2.252,0.45,4.098,1.151,5.642,2.141
		c0.613,0.394,0.98,1.072,0.98,1.816v0.295C18.161,22.865,18.079,22.947,17.978,22.947z M17.118,22.581h0.677v-0.113
		c0-0.618-0.303-1.182-0.811-1.507c-1.49-0.957-3.275-1.637-5.454-2.079l-1.178,0.607L17.118,22.581z"/>
	<path d="M18.878,22.947h-0.9c-0.101,0-0.183-0.082-0.183-0.183v-0.295c0-0.743,0.366-1.422,0.979-1.816
		c1.544-0.99,3.39-1.691,5.642-2.141c0.041-0.008,0.083-0.002,0.12,0.017l1.57,0.808c0.062,0.032,0.101,0.097,0.099,0.167
		c-0.002,0.07-0.043,0.133-0.106,0.162l-7.145,3.265C18.93,22.941,18.904,22.947,18.878,22.947z M18.161,22.581h0.677l6.766-3.092
		l-1.178-0.607c-2.178,0.442-3.963,1.122-5.454,2.079c-0.508,0.325-0.811,0.889-0.811,1.507V22.581z"/>
</g>
</svg>
