<?xml version="1.0" encoding="utf-8"?>
<!-- Generator: Adobe Illustrator 16.0.0, SVG Export Plug-In . SVG Version: 6.00 Build 0)  -->
<!DOCTYPE svg PUBLIC "-//W3C//DTD SVG 1.1//EN" "http://www.w3.org/Graphics/SVG/1.1/DTD/svg11.dtd">
<svg version="1.1" id="Layer_1" xmlns="http://www.w3.org/2000/svg" xmlns:xlink="http://www.w3.org/1999/xlink" x="0px" y="0px"
	 width="100px" height="100px" viewBox="0 0 100 100" enable-background="new 0 0 100 100" xml:space="preserve">
<path fill-rule="evenodd" clip-rule="evenodd" fill="#040403" d="M100.195,86.719c0,1.822,0,3.646,0,5.469
	c-0.736,1.218-1.836,1.623-3.212,1.488c-0.58-0.057-1.174,0.028-1.755-0.02c-0.576-0.047-0.714,0.183-0.695,0.72
	c0.036,1.072,0.032,2.148,0.002,3.221c-0.042,1.468-1.061,2.536-2.512,2.583c-1.463,0.048-2.929,0.046-4.392,0.002
	c-1.427-0.043-2.438-1.055-2.506-2.476c-0.045-0.941-0.088-1.893-0.002-2.828c0.09-0.971-0.189-1.238-1.202-1.237
	c-22.484,0.034-44.969,0.026-67.454,0.026c-0.163,0-0.328,0.019-0.488-0.004c-0.572-0.076-0.721,0.185-0.705,0.727
	c0.032,1.104,0.037,2.214-0.013,3.317c-0.064,1.42-1.082,2.432-2.506,2.475c-1.462,0.043-2.929,0.046-4.392-0.002
	c-1.448-0.047-2.456-1.12-2.511-2.585c-0.019-0.487,0.017-0.978-0.012-1.464c-0.046-0.804,0.36-1.87-0.169-2.335
	c-0.448-0.394-1.494-0.177-2.266-0.115c-1.375,0.11-2.478-0.271-3.211-1.493c0-1.889,0-3.776,0-5.664
	c0.724-1.241,1.834-1.62,3.208-1.49c0.613,0.059,1.244-0.053,1.852,0.025c0.873,0.112,1.056-0.205,1.054-1.054
	c-0.03-12.627-0.022-25.254-0.02-37.88c0-2.367,1.164-3.522,3.545-3.523c5.565-0.002,11.13-0.018,16.694,0.019
	c0.789,0.005,1.023-0.15,1.02-0.989c-0.037-8.005-0.01-16.011-0.036-24.017c-0.003-1.071,0.355-1.749,1.423-1.988
	c1.25,0.361,1.519,0.705,1.52,1.998c0.003,8.036,0.009,16.073-0.012,24.109c-0.002,0.643,0.102,0.886,0.827,0.884
	c12.624-0.025,25.247-0.025,37.871-0.007c0.645,0.001,0.803-0.179,0.802-0.81c-0.019-12.624-0.019-25.248-0.001-37.872
	c0.001-0.62-0.136-0.821-0.792-0.815c-3.872,0.032-7.744,0.032-11.615-0.004c-0.715-0.007-0.84,0.235-0.831,0.886
	c0.035,2.797,0.021,5.596,0.013,8.394c-0.008,2.521-1.748,3.689-3.854,2.354c-1.916-1.216-3.476-1.158-5.367,0.024
	c-2.061,1.288-3.811,0.131-3.821-2.318c-0.011-2.831-0.027-5.662,0.014-8.492c0.01-0.701-0.208-0.852-0.871-0.846
	c-3.872,0.031-7.744,0.028-11.615,0.001c-0.595-0.004-0.773,0.137-0.761,0.75c0.04,2.082,0.021,4.164,0.013,6.247
	c-0.005,1.208-0.354,1.619-1.527,1.861c-0.99-0.171-1.417-0.763-1.407-1.761C27.543,8.105,27.595,6,27.507,3.901
	c-0.077-1.849,0.626-3.083,2.376-3.706c13.542,0,27.083,0,40.625,0c1.711,0.613,2.384,1.811,2.378,3.637
	c-0.041,12.597-0.013,25.193-0.043,37.79c-0.002,0.823,0.207,1.004,1.011,0.999c5.631-0.038,11.262-0.025,16.893-0.017
	c2.118,0.003,3.35,1.218,3.352,3.323c0.009,8.789-0.002,17.577,0.012,26.366c0.002,1.068-0.412,1.74-1.487,1.949
	c-1.261-0.393-1.453-0.653-1.454-2.041c-0.002-8.558-0.013-17.115,0.019-25.672c0.003-0.822-0.231-1.019-1.028-1.01
	c-3.807,0.04-7.614,0.03-11.421,0.001c-0.625-0.005-0.827,0.146-0.819,0.8c0.037,2.831,0.019,5.661,0.015,8.492
	c-0.003,2.501-1.763,3.685-3.852,2.356c-1.913-1.217-3.474-1.17-5.367,0.015c-2.054,1.284-3.842,0.118-3.848-2.298
	c-0.007-2.863-0.017-5.727,0.01-8.59c0.006-0.577-0.122-0.782-0.747-0.778c-3.904,0.03-7.81,0.029-11.714,0.002
	c-0.616-0.004-0.762,0.196-0.761,0.78c0.014,12.657,0.014,25.314,0,37.971c-0.001,0.581,0.146,0.782,0.759,0.781
	c12.656-0.018,25.313-0.022,37.971-0.003c0.688,0.001,0.808-0.251,0.794-0.851c-0.033-1.496-0.018-2.994-0.008-4.49
	c0.008-1.188,0.288-1.525,1.454-1.822c1.059,0.152,1.486,0.805,1.48,1.828c-0.01,1.561,0.017,3.122-0.014,4.682
	c-0.01,0.509,0.137,0.682,0.653,0.657c0.844-0.04,1.693,0.037,2.535-0.021C98.651,84.938,99.645,85.427,100.195,86.719z
	 M29.007,85.048c0-0.002,0-0.004,0-0.006c6.281,0,12.562-0.009,18.843,0.013c0.65,0.002,0.895-0.125,0.894-0.844
	c-0.022-12.627-0.02-25.255-0.003-37.882c0.001-0.647-0.194-0.811-0.828-0.806c-3.84,0.027-7.681,0.038-11.521-0.012
	c-0.79-0.01-0.888,0.27-0.88,0.948c0.034,2.831,0.022,5.663,0.012,8.494c-0.009,2.302-1.817,3.512-3.732,2.28
	c-1.992-1.281-3.65-1.257-5.632,0.01c-1.886,1.206-3.691,0.023-3.7-2.209c-0.01-2.863-0.026-5.728,0.014-8.591
	c0.01-0.705-0.133-0.938-0.894-0.93c-3.808,0.044-7.616,0.045-11.423,0c-0.801-0.009-0.956,0.246-0.954,0.988
	C9.225,59.03,9.226,71.561,9.202,84.09c-0.001,0.761,0.186,0.979,0.962,0.976C16.444,85.034,22.726,85.048,29.007,85.048z
	 M50.094,90.742c0-0.006,0-0.011,0-0.016c15.063,0,30.128,0.002,45.192-0.002c2.059,0,2.041-0.012,1.969-2.093
	c-0.018-0.504-0.155-0.688-0.668-0.673c-0.976,0.027-1.952-0.007-2.929-0.007c-29.607-0.001-59.215-0.001-88.823-0.001
	c-1.7,0-1.63,0.005-1.725,1.672c-0.057,1.005,0.316,1.14,1.205,1.138C19.575,90.734,34.834,90.742,50.094,90.742z M25.409,54.544
	c2.406-2.099,4.758-2.05,7.152-0.069c0-2.961-0.002-5.625,0.003-8.288c0-0.356-0.01-0.627-0.497-0.624
	c-2.048,0.013-4.097,0.005-6.146-0.01c-0.368-0.003-0.52,0.112-0.518,0.498C25.414,48.773,25.409,51.495,25.409,54.544z
	 M67.819,54.532c2.413-2.047,4.767-2.081,7.152-0.046c0-2.959-0.007-5.624,0.008-8.289c0.002-0.431-0.073-0.645-0.58-0.639
	c-1.983,0.022-3.967,0.012-5.95-0.008c-0.438-0.005-0.644,0.09-0.64,0.586C67.829,48.827,67.819,51.517,67.819,54.532z M53.73,12.05
	c0-2.981-0.012-5.677,0.011-8.372c0.005-0.563-0.313-0.526-0.688-0.525c-1.887,0.002-3.774,0.021-5.66-0.021
	c-0.598-0.013-0.779,0.148-0.766,0.756c0.04,1.788,0.014,3.578,0.014,5.367c0,0.852,0,1.704,0,2.906
	C49.074,9.958,51.368,10.111,53.73,12.05z M12.333,95.461c0-1.734,0-1.734-1.717-1.774c-1.838-0.044-1.838-0.044-1.838,1.816
	c0,1.78,0,1.78,1.788,1.757C12.333,97.236,12.333,97.236,12.333,95.461z M91.599,95.496c0-1.764,0-1.764-1.65-1.804
	c-1.909-0.046-1.909-0.046-1.909,1.825c0,1.766,0,1.766,1.788,1.742C91.599,97.235,91.599,97.235,91.599,95.496z"/>
<path fill-rule="evenodd" clip-rule="evenodd" fill="#FACB7E" d="M29.007,85.048c-6.281,0-12.563-0.014-18.843,0.018
	C9.387,85.069,9.2,84.851,9.202,84.09c0.024-12.529,0.023-25.06,0.001-37.589c-0.001-0.742,0.153-0.998,0.954-0.988
	c3.807,0.046,7.615,0.044,11.423,0c0.761-0.009,0.904,0.225,0.894,0.93c-0.041,2.863-0.024,5.728-0.014,8.591
	c0.008,2.232,1.814,3.415,3.7,2.209c1.982-1.267,3.641-1.291,5.632-0.01c1.915,1.231,3.724,0.021,3.732-2.28
	c0.011-2.831,0.022-5.663-0.012-8.494c-0.008-0.678,0.09-0.958,0.88-0.948c3.84,0.049,7.68,0.039,11.521,0.012
	c0.633-0.005,0.829,0.158,0.828,0.806c-0.017,12.627-0.019,25.255,0.003,37.882c0.001,0.719-0.244,0.846-0.894,0.844
	c-6.281-0.021-12.563-0.013-18.843-0.013C29.007,85.044,29.007,85.046,29.007,85.048z M29.002,70.08
	c-2.309,0-4.617-0.01-6.926,0.004c-1.647,0.009-2.54,0.892-2.552,2.518c-0.014,1.886-0.013,3.772,0,5.658
	c0.011,1.662,0.933,2.578,2.612,2.582c4.552,0.01,9.104,0.009,13.657,0.001c1.726-0.003,2.654-0.925,2.667-2.643
	c0.015-1.821,0.012-3.643,0-5.463c-0.011-1.759-0.889-2.646-2.63-2.654C33.555,70.071,31.278,70.08,29.002,70.08z"/>
<path fill-rule="evenodd" clip-rule="evenodd" fill="#FACB7E" d="M92.622,74.242c0.001,1.215,0.001,2.43,0.002,3.645
	c-1.166,0.297-1.446,0.635-1.454,1.822c-0.01,1.496-0.025,2.994,0.008,4.49c0.014,0.6-0.106,0.852-0.794,0.851
	c-12.657-0.02-25.314-0.015-37.971,0.003c-0.612,0.001-0.76-0.2-0.759-0.781c0.014-12.657,0.014-25.314,0-37.971
	c-0.001-0.584,0.145-0.785,0.761-0.78c3.904,0.027,7.81,0.028,11.714-0.002c0.625-0.004,0.753,0.201,0.747,0.778
	c-0.026,2.863-0.017,5.727-0.01,8.59c0.006,2.416,1.794,3.582,3.848,2.298c1.894-1.185,3.454-1.231,5.367-0.015
	c2.089,1.328,3.849,0.145,3.852-2.356c0.004-2.831,0.022-5.662-0.015-8.492c-0.008-0.654,0.194-0.805,0.819-0.8
	c3.807,0.029,7.614,0.039,11.421-0.001c0.797-0.008,1.031,0.188,1.028,1.01c-0.031,8.557-0.021,17.114-0.019,25.672
	C91.169,73.589,91.361,73.85,92.622,74.242z M71.405,70.08c-2.309,0-4.617-0.011-6.926,0.004c-1.622,0.011-2.532,0.917-2.548,2.538
	c-0.019,1.886-0.02,3.772,0,5.658c0.017,1.607,0.953,2.556,2.55,2.56c4.617,0.015,9.234,0.015,13.853,0
	c1.601-0.005,2.521-0.948,2.533-2.563c0.014-1.887,0.013-3.772,0-5.658c-0.012-1.631-0.902-2.525-2.536-2.535
	C76.022,70.069,73.714,70.08,71.405,70.08z"/>
<path fill-rule="evenodd" clip-rule="evenodd" fill="#FACB7E" d="M28.937,15.626c-0.003-1.219-0.006-2.438-0.009-3.658
	c1.174-0.242,1.523-0.653,1.528-1.86c0.008-2.083,0.027-4.165-0.013-6.247c-0.012-0.613,0.166-0.754,0.761-0.75
	c3.872,0.027,7.744,0.03,11.615-0.001c0.664-0.005,0.881,0.146,0.871,0.846c-0.042,2.83-0.025,5.661-0.014,8.492
	c0.01,2.449,1.76,3.606,3.821,2.318c1.891-1.182,3.452-1.24,5.367-0.024c2.105,1.336,3.846,0.168,3.854-2.354
	c0.009-2.798,0.022-5.597-0.013-8.394c-0.009-0.651,0.116-0.893,0.831-0.886c3.871,0.037,7.743,0.036,11.615,0.004
	c0.656-0.005,0.793,0.196,0.792,0.815c-0.018,12.624-0.018,25.248,0.001,37.872c0.001,0.631-0.157,0.811-0.802,0.81
	c-12.624-0.018-25.248-0.018-37.871,0.007c-0.725,0.001-0.829-0.242-0.827-0.884c0.021-8.037,0.015-16.073,0.012-24.109
	C30.456,16.332,30.186,15.988,28.937,15.626z M50.204,38.43c2.243,0,4.486,0.01,6.729-0.003c1.818-0.011,2.706-0.876,2.73-2.682
	c0.023-1.82,0.023-3.641-0.001-5.461c-0.023-1.768-0.879-2.646-2.648-2.656c-4.551-0.023-9.103-0.024-13.654,0
	c-1.765,0.01-2.609,0.895-2.632,2.673c-0.022,1.755-0.014,3.511-0.003,5.266c0.012,2.004,0.859,2.854,2.847,2.86
	C45.783,38.436,47.993,38.43,50.204,38.43z"/>
<path fill-rule="evenodd" clip-rule="evenodd" fill="#8C9BA7" d="M50.094,90.742c-15.26,0-30.519-0.008-45.778,0.019
	c-0.889,0.002-1.262-0.133-1.205-1.138c0.094-1.667,0.024-1.672,1.725-1.672c29.608,0,59.216,0,88.823,0.001
	c0.977,0,1.953,0.034,2.929,0.007c0.513-0.015,0.65,0.169,0.668,0.673c0.072,2.081,0.09,2.093-1.969,2.093
	c-15.064,0.004-30.129,0.002-45.192,0.002C50.094,90.731,50.094,90.736,50.094,90.742z"/>
<path fill-rule="evenodd" clip-rule="evenodd" fill="#FACB7E" d="M25.409,54.544c0-3.049,0.005-5.771-0.005-8.493
	c-0.001-0.386,0.15-0.5,0.518-0.498c2.048,0.015,4.097,0.023,6.146,0.01c0.487-0.003,0.498,0.268,0.497,0.624
	c-0.006,2.664-0.003,5.327-0.003,8.288C30.167,52.494,27.815,52.445,25.409,54.544z"/>
<path fill-rule="evenodd" clip-rule="evenodd" fill="#FACB7E" d="M67.819,54.532c0-3.016,0.01-5.705-0.01-8.395
	c-0.004-0.496,0.202-0.591,0.64-0.586c1.983,0.02,3.967,0.03,5.95,0.008c0.507-0.006,0.582,0.208,0.58,0.639
	c-0.015,2.665-0.008,5.33-0.008,8.289C72.586,52.451,70.232,52.485,67.819,54.532z"/>
<path fill-rule="evenodd" clip-rule="evenodd" fill="#FACB7E" d="M53.73,12.05c-2.362-1.939-4.656-2.092-7.088,0.111
	c0-1.202,0-2.054,0-2.906c0-1.789,0.025-3.579-0.014-5.367c-0.014-0.607,0.167-0.769,0.766-0.756
	c1.886,0.042,3.773,0.023,5.66,0.021c0.375,0,0.692-0.038,0.688,0.525C53.719,6.374,53.73,9.069,53.73,12.05z"/>
<path fill-rule="evenodd" clip-rule="evenodd" fill="#8C9BA7" d="M12.333,95.461c0,1.775,0,1.775-1.767,1.799
	c-1.788,0.023-1.788,0.023-1.788-1.757c0-1.86,0-1.86,1.838-1.816C12.333,93.727,12.333,93.727,12.333,95.461z"/>
<path fill-rule="evenodd" clip-rule="evenodd" fill="#8C9BA7" d="M91.599,95.496c0,1.739,0,1.739-1.771,1.764
	c-1.788,0.023-1.788,0.023-1.788-1.742c0-1.871,0-1.871,1.909-1.825C91.599,93.732,91.599,93.732,91.599,95.496z"/>
<path fill-rule="evenodd" clip-rule="evenodd" fill="#040403" d="M29.002,70.08c2.276,0,4.553-0.009,6.829,0.003
	c1.741,0.008,2.619,0.896,2.63,2.654c0.012,1.82,0.014,3.642,0,5.463c-0.014,1.718-0.942,2.64-2.667,2.643
	c-4.552,0.008-9.104,0.009-13.657-0.001c-1.68-0.004-2.601-0.92-2.612-2.582c-0.013-1.886-0.014-3.772,0-5.658
	c0.012-1.626,0.905-2.509,2.552-2.518C24.385,70.07,26.693,70.08,29.002,70.08z M29.007,77.9c0-0.004,0-0.008,0-0.011
	c1.948,0,3.897-0.016,5.845,0.011c0.511,0.007,0.675-0.143,0.66-0.658c-0.035-1.2-0.031-2.403-0.001-3.604
	c0.012-0.481-0.166-0.603-0.62-0.602c-3.929,0.009-7.858,0.008-11.788-0.019c-0.536-0.003-0.652,0.187-0.64,0.676
	c0.03,1.168,0.036,2.339-0.002,3.507c-0.018,0.545,0.142,0.721,0.701,0.711C25.11,77.88,27.059,77.9,29.007,77.9z"/>
<path fill-rule="evenodd" clip-rule="evenodd" fill="#040403" d="M71.405,70.08c2.309,0,4.617-0.011,6.926,0.004
	c1.634,0.01,2.524,0.904,2.536,2.535c0.013,1.886,0.014,3.771,0,5.658c-0.013,1.614-0.933,2.558-2.533,2.563
	c-4.618,0.015-9.235,0.015-13.853,0c-1.597-0.004-2.533-0.952-2.55-2.56c-0.02-1.886-0.019-3.772,0-5.658
	c0.016-1.621,0.926-2.527,2.548-2.538C66.788,70.069,69.097,70.08,71.405,70.08z M71.412,73.044c0-0.004,0-0.009,0-0.014
	c-1.916,0-3.833,0.028-5.748-0.016c-0.658-0.016-0.823,0.202-0.798,0.824c0.046,1.135,0.036,2.273,0.003,3.409
	c-0.016,0.507,0.136,0.666,0.653,0.662c3.929-0.022,7.858-0.024,11.788-0.012c0.467,0.002,0.616-0.139,0.605-0.605
	c-0.027-1.168-0.044-2.339,0.006-3.506c0.025-0.611-0.168-0.768-0.763-0.757C75.244,73.067,73.328,73.044,71.412,73.044z"/>
<path fill-rule="evenodd" clip-rule="evenodd" fill="#040403" d="M50.204,38.43c-2.211,0-4.421,0.006-6.632-0.001
	c-1.988-0.007-2.835-0.856-2.847-2.86c-0.011-1.755-0.019-3.511,0.003-5.266c0.022-1.778,0.867-2.664,2.632-2.673
	c4.551-0.025,9.103-0.023,13.654,0c1.77,0.009,2.625,0.888,2.648,2.656c0.024,1.82,0.024,3.641,0.001,5.461
	c-0.024,1.805-0.912,2.671-2.73,2.682C54.69,38.44,52.447,38.43,50.204,38.43z M54.342,30.661c-3.348-0.165-6.698-0.03-10.046-0.07
	c-0.378-0.004-0.609,0.084-0.602,0.541c0.021,1.269,0.012,2.538,0.005,3.807c-0.002,0.36,0.133,0.535,0.514,0.53
	c3.38-0.048,6.762,0.096,10.142-0.075c0.567,0.202,1.153,0.037,1.728,0.097c0.521,0.055,0.679-0.192,0.662-0.68
	c-0.024-0.743-0.006-1.488-0.006-2.232c0.001-2.264,0-2.264-2.311-1.962C54.396,30.62,54.37,30.646,54.342,30.661z"/>
<path fill-rule="evenodd" clip-rule="evenodd" fill="#FACB7E" d="M29.007,77.9c-1.949,0-3.897-0.021-5.845,0.012
	c-0.559,0.01-0.718-0.166-0.701-0.711c0.038-1.168,0.032-2.339,0.002-3.507c-0.013-0.489,0.104-0.679,0.64-0.676
	c3.929,0.026,7.858,0.027,11.788,0.019c0.454-0.001,0.631,0.12,0.62,0.602c-0.029,1.2-0.033,2.403,0.001,3.604
	c0.015,0.516-0.149,0.665-0.66,0.658c-1.948-0.026-3.896-0.011-5.845-0.011C29.007,77.893,29.007,77.896,29.007,77.9z"/>
<path fill-rule="evenodd" clip-rule="evenodd" fill="#FACB7E" d="M71.412,73.044c1.916,0,3.832,0.023,5.747-0.014
	c0.595-0.011,0.788,0.146,0.763,0.757c-0.05,1.167-0.033,2.338-0.006,3.506c0.011,0.467-0.139,0.607-0.605,0.605
	c-3.93-0.013-7.859-0.011-11.788,0.012c-0.518,0.004-0.669-0.155-0.653-0.662c0.033-1.136,0.043-2.274-0.003-3.409
	c-0.025-0.622,0.14-0.84,0.798-0.824c1.915,0.044,3.832,0.016,5.748,0.016C71.412,73.035,71.412,73.04,71.412,73.044z"/>
<path fill-rule="evenodd" clip-rule="evenodd" fill="#FACB7E" d="M54.354,35.394c-3.379,0.17-6.761,0.027-10.142,0.075
	c-0.381,0.005-0.516-0.169-0.514-0.53c0.007-1.269,0.016-2.538-0.005-3.807c-0.007-0.457,0.224-0.545,0.602-0.541
	c3.349,0.041,6.698-0.095,10.045,0.07C54.344,32.239,54.349,33.816,54.354,35.394z"/>
<path fill-rule="evenodd" clip-rule="evenodd" fill="#8C9BA7" d="M54.354,35.394c-0.005-1.577-0.01-3.155-0.013-4.732
	c0.029-0.015,0.056-0.042,0.086-0.045c2.311-0.302,2.312-0.301,2.311,1.962c0,0.744-0.019,1.489,0.006,2.232
	c0.017,0.488-0.141,0.735-0.662,0.68C55.507,35.43,54.921,35.595,54.354,35.394z"/>
</svg>
