<?xml version="1.0" encoding="utf-8"?>
<!-- Generator: Adobe Illustrator 16.0.0, SVG Export Plug-In . SVG Version: 6.00 Build 0)  -->
<!DOCTYPE svg PUBLIC "-//W3C//DTD SVG 1.1//EN" "http://www.w3.org/Graphics/SVG/1.1/DTD/svg11.dtd">
<svg version="1.1" id="Layer_1" xmlns="http://www.w3.org/2000/svg" xmlns:xlink="http://www.w3.org/1999/xlink" x="0px" y="0px"
	 width="100px" height="100px" viewBox="0 0 100 100" enable-background="new 0 0 100 100" xml:space="preserve">
<path fill-rule="evenodd" clip-rule="evenodd" d="M21.943,51.65c-0.636,0.236-1.193,0.438-1.747,0.65
	c-5.597,2.148-11.193,4.3-16.79,6.45c-0.14,0.053-0.28,0.105-0.422,0.152c-0.74,0.244-1.429,0.067-1.877-0.481
	c-0.455-0.556-0.511-1.263-0.112-1.938c0.834-1.416,1.687-2.822,2.532-4.231c1.979-3.3,3.967-6.595,5.932-9.904
	c0.346-0.584,0.793-0.944,1.448-1.133c6.888-1.992,13.772-4.002,20.659-6.001c0.247-0.073,0.513-0.114,0.77-0.115
	c2.953-0.007,5.905,0,8.858-0.008c0.766-0.002,1.355,0.275,1.674,0.986c0.504,1.128-0.303,2.29-1.602,2.296
	c-2.485,0.013-4.971,0.021-7.457-0.007c-0.523-0.005-0.84,0.14-1.141,0.584c-1.865,2.753-3.763,5.483-5.649,8.223
	c-0.07,0.102-0.127,0.212-0.224,0.375c15.609,0,31.147,0,46.751,0c-0.085-0.155-0.138-0.285-0.216-0.397
	c-1.917-2.785-3.846-5.563-5.748-8.358c-0.221-0.323-0.454-0.422-0.824-0.421c-2.523,0.013-5.046,0.006-7.569,0.006
	c-0.751,0-1.304-0.334-1.588-1.025c-0.264-0.644-0.173-1.296,0.362-1.745c0.317-0.266,0.788-0.484,1.193-0.49
	c2.989-0.041,5.979-0.026,8.97-0.019c0.238,0,0.481,0.061,0.712,0.127c6.888,2,13.771,4.007,20.661,6
	c0.615,0.178,1.041,0.52,1.367,1.066c2.786,4.667,5.589,9.325,8.383,13.988c0.517,0.86,0.502,1.58-0.02,2.175
	c-0.525,0.598-1.2,0.703-2.157,0.336c-6.016-2.308-12.032-4.614-18.049-6.922c-0.169-0.064-0.345-0.12-0.604-0.211
	c0,0.289,0,0.506,0,0.721c-0.001,12.241-0.001,24.48-0.001,36.722c0,2.969-1.817,4.805-4.771,4.805
	c-15.68,0.002-31.357,0.002-47.037,0.003c-2.796,0-4.667-1.872-4.667-4.687c-0.002-12.26-0.001-24.52-0.001-36.779
	C21.943,52.207,21.943,51.97,21.943,51.65z M25.266,50.917c-0.013,0.232-0.03,0.398-0.03,0.565c0,12.576,0,25.152,0.004,37.729
	c0,1.037,0.383,1.407,1.435,1.408c5.12,0.001,10.241,0,15.36-0.001c0.197,0,0.395-0.02,0.584-0.029c0-13.262,0-26.461,0-39.671
	C36.82,50.917,31.069,50.917,25.266,50.917z M57.724,90.62c0.271,0,0.49,0,0.711,0c4.746,0,9.492,0,14.238,0
	c0.43,0,0.86,0.01,1.289-0.007c0.698-0.026,1.099-0.421,1.153-1.12c0.018-0.242,0.009-0.485,0.009-0.729
	c0.003-12.408,0.004-24.816,0.004-37.224c0-0.199-0.021-0.398-0.031-0.612c-5.815,0-11.579,0-17.373,0
	C57.724,64.152,57.724,77.337,57.724,90.62z M46.006,50.921c0,13.238,0,26.448,0,39.669c2.809,0,5.567,0,8.354,0
	c0-13.235,0-26.446,0-39.669C51.549,50.921,48.79,50.921,46.006,50.921z M72.208,39.665c0.159,0.257,0.248,0.414,0.351,0.561
	c1.664,2.415,3.323,4.833,5.005,7.234c0.18,0.255,0.47,0.487,0.76,0.599c4.944,1.915,9.899,3.809,14.852,5.708
	c0.252,0.097,0.507,0.19,0.864,0.325c-0.099-0.208-0.136-0.308-0.19-0.398c-1.813-3.028-3.623-6.059-5.455-9.077
	c-0.126-0.207-0.405-0.377-0.648-0.449c-4.963-1.459-9.93-2.902-14.896-4.346C72.677,39.771,72.5,39.736,72.208,39.665z
	 M6.287,54.069C6.513,54.011,6.585,54,6.653,53.975c5.178-1.987,10.357-3.971,15.529-5.972c0.239-0.092,0.462-0.312,0.614-0.527
	c1.075-1.527,2.13-3.069,3.189-4.606c0.708-1.027,1.412-2.056,2.189-3.188c-0.263,0.053-0.403,0.07-0.536,0.109
	c-5.003,1.453-10.007,2.903-15.004,4.378c-0.284,0.084-0.587,0.326-0.744,0.579c-1.045,1.682-2.054,3.385-3.072,5.083
	C7.994,51.205,7.174,52.582,6.287,54.069z"/>
<path fill-rule="evenodd" clip-rule="evenodd" d="M51.359,8.625c-0.034-0.161-0.063-0.302-0.095-0.442
	c-0.188-0.825,0.214-1.622,0.97-1.922c0.762-0.302,1.649-0.027,2.039,0.702c0.606,1.136,1.181,2.29,1.733,3.454
	c0.34,0.716,0.154,1.438-0.457,1.976c-0.871,0.765-1.747,1.522-2.632,2.269c-0.786,0.661-1.729,0.636-2.361-0.038
	c-0.656-0.698-0.599-1.639,0.146-2.395c0.062-0.063,0.12-0.13,0.228-0.25c-0.181-0.031-0.299-0.064-0.418-0.069
	c-5.585-0.198-10.278,4.421-10.141,9.979c0.141,5.706,5.014,10.105,10.648,9.616c4.932-0.428,8.759-4.468,8.979-9.441
	c0.021-0.462,0.146-0.972,0.385-1.361c0.363-0.593,1.142-0.762,1.798-0.532c0.71,0.248,1.125,0.865,1.108,1.704
	c-0.063,3.142-1.09,5.931-3.126,8.327c-3.576,4.209-9.366,5.725-14.499,3.821c-5.171-1.919-8.601-6.851-8.593-12.359
	c0.01-7.371,6.17-13.279,13.59-13.037C50.882,8.632,51.104,8.625,51.359,8.625z"/>
</svg>
