<?xml version="1.0" encoding="utf-8"?>
<!-- Generator: Adobe Illustrator 16.0.0, SVG Export Plug-In . SVG Version: 6.00 Build 0)  -->
<!DOCTYPE svg PUBLIC "-//W3C//DTD SVG 1.1//EN" "http://www.w3.org/Graphics/SVG/1.1/DTD/svg11.dtd">
<svg version="1.1" id="Layer_1" xmlns="http://www.w3.org/2000/svg" xmlns:xlink="http://www.w3.org/1999/xlink" x="0px" y="0px"
	 width="100px" height="100px" viewBox="0 0 100 100" enable-background="new 0 0 100 100" xml:space="preserve">
<path fill-rule="evenodd" clip-rule="evenodd" fill="#034564" d="M99,31.936c-0.594,1.495-0.661,3.099-0.929,4.657
	c-1.621,9.422-3.185,18.853-4.807,28.276c-0.685,3.981-2.981,6.555-6.945,7.557c-0.863,0.219-1.748,0.201-2.628,0.201
	c-17.385,0.003-34.771,0.002-52.158,0.003c-2.589,0-4.289,1.097-4.912,3.15c-0.798,2.636,0.98,5.297,3.771,5.625
	c0.437,0.051,0.881,0.039,1.321,0.039c18.488,0.002,36.977,0.001,55.465,0.003c0.472,0,0.944-0.032,1.407,0.107
	c1.003,0.3,1.615,1.147,1.569,2.192c-0.044,0.995-0.707,1.801-1.69,2.004c-0.337,0.068-0.688,0.072-1.034,0.072
	c-18.708,0.003-37.418,0.008-56.126,0c-5.628-0.005-9.554-4.038-9.218-9.519c0.162-2.628,1.426-4.724,3.532-6.289
	c0.433-0.32,0.576-0.582,0.464-1.15C24,58.219,21.95,47.569,19.892,36.919c-1.229-6.358-2.455-12.718-3.687-19.076
	c-0.124-0.64-0.198-1.314-0.987-1.81c0.259,1.25,0.24,2.374-0.102,3.485c-0.869,2.828-3.32,4.688-6.246,4.71
	C6,24.251,3.511,22.451,2.584,19.694c-0.075-0.221-0.059-0.513-0.356-0.611c0-0.945,0-1.89,0-2.835
	c0.274-0.071,0.261-0.336,0.327-0.525c0.982-2.815,2.947-4.4,5.922-4.599c1.63-0.109,3.272-0.063,4.908-0.058
	c4.032,0.011,6.501,2.162,7.178,6.157c0.609,3.595,1.278,7.179,1.904,10.771c0.083,0.478,0.254,0.697,0.79,0.684
	c1.542-0.036,3.085-0.043,4.626,0.002c0.65,0.02,0.769-0.24,0.799-0.819c0.352-6.642,5.748-12.042,12.355-12.352
	c0.618-0.029,0.793-0.199,0.785-0.812c-0.033-2.519-0.029-5.037-0.008-7.556c0.015-1.84,0.831-2.663,2.65-2.664
	c9.948-0.009,19.897-0.008,29.847-0.001c1.87,0.002,2.687,0.829,2.703,2.713c0.015,1.763,0.03,3.527-0.011,5.289
	c-0.017,0.623,0.172,0.787,0.786,0.78c3.115-0.03,6.233-0.014,9.349-0.014c2.319,0,3.056,0.729,3.057,3.028
	c0.002,3.842,0.021,7.683-0.017,11.523c-0.006,0.721,0.208,0.907,0.907,0.886c1.666-0.051,3.338,0.042,5.005-0.035
	c1.337-0.063,2.31,0.374,2.907,1.587C99,30.801,99,31.369,99,31.936z M89.933,33.093c-0.347-0.011-0.692-0.032-1.039-0.032
	C67.452,33.06,46.009,33.06,24.566,33.06c-1.142,0-1.128-0.002-0.895,1.175c1.363,6.844,2.713,13.689,4.08,20.531
	c0.609,3.049,1.248,6.09,1.874,9.135c0.192,1.081,0.431,2.156,0.564,3.245c0.1,0.815,0.385,1.114,1.281,1.111
	c17.474-0.032,34.946-0.022,52.42-0.023c3.046,0,4.59-1.376,5.098-4.414c1.282-7.657,2.598-15.309,3.899-22.964
	c0.396-2.324,0.79-4.648,1.176-6.974c0.071-0.422,0.219-0.874-0.546-0.834C92.324,33.109,91.127,33.083,89.933,33.093z
	 M63.825,18.76c0-3.024-0.021-6.047,0.015-9.07c0.008-0.67-0.193-0.84-0.847-0.836c-5.322,0.024-10.646,0.022-15.967,0.002
	c-0.601-0.002-0.819,0.141-0.806,0.779c0.04,1.952,0.042,3.905-0.002,5.857c-0.014,0.616,0.241,0.872,0.759,1.107
	c4.874,2.21,7.524,6.01,7.973,11.333c0.047,0.566,0.205,0.75,0.777,0.744c2.426-0.025,4.852-0.028,7.275,0.013
	c0.679,0.012,0.842-0.215,0.834-0.859C63.807,24.807,63.825,21.784,63.825,18.76z M41.761,28.682c2.676,0,5.353-0.021,8.029,0.014
	c0.674,0.009,0.857-0.183,0.794-0.853c-0.404-4.355-4.211-7.946-8.511-7.991c-4.665-0.048-8.544,3.399-9.014,7.963
	c-0.079,0.76,0.176,0.89,0.862,0.881C36.533,28.661,39.147,28.682,41.761,28.682z M85.814,23.178c0-1.604-0.025-3.208,0.013-4.811
	c0.015-0.633-0.213-0.804-0.819-0.797c-2.42,0.032-4.842,0.036-7.264,0.016c-0.613-0.005-0.832,0.2-0.828,0.816
	c0.021,3.177,0.019,6.354,0.002,9.531c-0.003,0.572,0.206,0.771,0.774,0.769c2.454-0.011,4.906-0.01,7.358,0.034
	c0.663,0.012,0.784-0.261,0.773-0.838C85.796,26.324,85.814,24.751,85.814,23.178z M72.58,18.719c0-3.019-0.017-6.039,0.011-9.057
	c0.006-0.61-0.159-0.831-0.787-0.8c-0.974,0.048-1.95,0.027-2.924,0.007c-0.445-0.01-0.684,0.063-0.683,0.604
	c0.016,6.195,0.016,12.391,0.001,18.586c-0.001,0.531,0.223,0.629,0.678,0.619c0.943-0.023,1.891-0.055,2.831,0.008
	c0.728,0.049,0.896-0.219,0.886-0.91C72.56,24.757,72.58,21.737,72.58,18.719z M8.863,15.486c-1.174-0.02-2.174,0.928-2.225,2.109
	c-0.051,1.171,1.002,2.246,2.192,2.24c1.168-0.004,2.165-0.996,2.173-2.161C11.011,16.497,10.042,15.505,8.863,15.486z"/>
<path fill-rule="evenodd" clip-rule="evenodd" fill="#034564" d="M77.03,96.809c-2.416,0.013-4.371-1.901-4.419-4.327
	c-0.048-2.374,1.933-4.4,4.324-4.426c2.459-0.024,4.47,1.942,4.469,4.379C81.404,94.834,79.444,96.796,77.03,96.809z"/>
<path fill-rule="evenodd" clip-rule="evenodd" fill="#034564" d="M37.381,96.808c-2.429-0.019-4.364-1.979-4.349-4.409
	c0.015-2.418,1.984-4.354,4.418-4.343c2.417,0.01,4.366,1.992,4.342,4.414C41.769,94.906,39.817,96.827,37.381,96.808z"/>
<path fill-rule="evenodd" clip-rule="evenodd" fill="#FDC95D" d="M29.625,63.9c-0.625-3.045-1.265-6.086-1.874-9.135
	c-1.367-6.842-2.717-13.687-4.08-20.531c-0.234-1.177-0.248-1.175,0.895-1.175c21.443,0,42.886,0,64.328,0.001
	c0.347,0,0.692,0.021,1.038,0.032c-0.091,1.629-0.498,3.209-0.769,4.809c-0.665,3.911-1.378,7.813-2.057,11.722
	c-0.587,3.385-1.165,6.772-1.723,10.161c-0.425,2.586-2.58,4.118-4.855,4.112c-14.45-0.039-28.899-0.021-43.349-0.019
	C34.661,63.879,32.143,63.893,29.625,63.9z M41.806,48.51c0-2.803-0.001-5.607,0.001-8.41c0-0.812-0.122-1.576-0.808-2.119
	c-0.704-0.556-1.496-0.666-2.299-0.296c-0.932,0.43-1.28,1.262-1.291,2.238c-0.018,1.669-0.005,3.338-0.005,5.008
	c0,3.937-0.006,7.874,0.002,11.811c0.003,1.541,0.683,2.467,1.885,2.623c1.494,0.194,2.49-0.74,2.507-2.445
	C41.826,54.117,41.806,51.313,41.806,48.51z M63.824,48.412c0,2.866-0.016,5.73,0.005,8.597c0.012,1.479,0.912,2.417,2.221,2.396
	c1.264-0.021,2.141-0.95,2.144-2.381c0.017-5.731,0.008-11.462,0.006-17.193c-0.001-0.724-0.225-1.364-0.8-1.838
	c-0.698-0.574-1.494-0.678-2.293-0.312c-0.883,0.406-1.282,1.165-1.281,2.135C63.826,42.682,63.825,45.547,63.824,48.412z
	 M54.996,48.464c0-2.865,0.017-5.731-0.008-8.596c-0.012-1.432-0.88-2.369-2.133-2.407c-1.25-0.038-2.229,0.971-2.234,2.415
	c-0.018,5.699-0.009,11.398-0.006,17.097c0,0.753,0.203,1.436,0.81,1.933c0.699,0.574,1.501,0.655,2.301,0.296
	c0.896-0.404,1.27-1.177,1.27-2.142C54.996,54.193,54.996,51.328,54.996,48.464z M77.021,48.378c0,2.864-0.017,5.73,0.007,8.597
	c0.013,1.507,0.882,2.432,2.186,2.43c1.291-0.002,2.15-0.947,2.195-2.438c0.019-0.599,0.004-1.197,0.004-1.795
	c0-5.008,0.002-10.015-0.003-15.022c-0.001-1.322-0.502-2.191-1.424-2.529c-1.521-0.558-2.933,0.484-2.955,2.255
	C76.997,42.709,77.021,45.543,77.021,48.378z"/>
<path fill-rule="evenodd" clip-rule="evenodd" fill="#F3B345" d="M29.625,63.9c2.518-0.008,5.036-0.021,7.555-0.021
	c14.449-0.002,28.898-0.021,43.349,0.019c2.275,0.006,4.431-1.526,4.855-4.112c0.558-3.389,1.136-6.776,1.723-10.161
	c0.679-3.908,1.392-7.811,2.057-11.722c0.271-1.6,0.678-3.18,0.769-4.809c1.195-0.011,2.393,0.016,3.586-0.047
	c0.765-0.04,0.617,0.412,0.546,0.834c-0.386,2.326-0.78,4.65-1.176,6.974c-1.302,7.655-2.617,15.307-3.899,22.964
	c-0.508,3.038-2.052,4.414-5.098,4.414c-17.474,0.001-34.946-0.009-52.42,0.023c-0.896,0.003-1.182-0.296-1.281-1.111
	C30.056,66.057,29.817,64.981,29.625,63.9z"/>
<path fill-rule="evenodd" clip-rule="evenodd" fill="#EE4D4E" d="M63.825,18.76c0,3.023-0.019,6.047,0.012,9.07
	c0.008,0.645-0.155,0.872-0.834,0.859c-2.424-0.042-4.85-0.038-7.275-0.013c-0.572,0.005-0.73-0.178-0.777-0.744
	c-0.448-5.323-3.099-9.122-7.973-11.333c-0.519-0.236-0.773-0.491-0.759-1.107c0.043-1.952,0.042-3.906,0.002-5.857
	c-0.013-0.638,0.205-0.781,0.806-0.779c5.322,0.02,10.645,0.022,15.967-0.002c0.653-0.004,0.854,0.166,0.847,0.836
	C63.805,12.713,63.825,15.736,63.825,18.76z"/>
<path fill-rule="evenodd" clip-rule="evenodd" fill="#D58A3A" d="M41.761,28.682c-2.614,0-5.228-0.021-7.84,0.014
	c-0.686,0.009-0.94-0.121-0.862-0.881c0.47-4.563,4.349-8.011,9.014-7.963c4.3,0.044,8.106,3.635,8.511,7.991
	c0.063,0.67-0.12,0.862-0.794,0.853C47.113,28.661,44.437,28.682,41.761,28.682z"/>
<path fill-rule="evenodd" clip-rule="evenodd" fill="#4B99D0" d="M85.814,23.178c0,1.573-0.019,3.146,0.01,4.718
	c0.011,0.578-0.11,0.851-0.773,0.838c-2.452-0.043-4.904-0.045-7.358-0.034c-0.568,0.002-0.777-0.197-0.774-0.769
	c0.017-3.177,0.019-6.354-0.002-9.531c-0.004-0.616,0.215-0.821,0.828-0.816c2.422,0.021,4.844,0.017,7.264-0.016
	c0.606-0.007,0.834,0.164,0.819,0.797C85.789,19.97,85.814,21.574,85.814,23.178z"/>
<path fill-rule="evenodd" clip-rule="evenodd" fill="#EE4D4E" d="M72.58,18.719c0,3.019-0.021,6.038,0.013,9.056
	c0.01,0.691-0.158,0.959-0.886,0.91c-0.94-0.063-1.888-0.031-2.831-0.008c-0.455,0.011-0.679-0.087-0.678-0.619
	c0.015-6.195,0.015-12.391-0.001-18.586c-0.001-0.541,0.237-0.614,0.683-0.604c0.974,0.021,1.95,0.042,2.924-0.007
	c0.628-0.031,0.793,0.189,0.787,0.8C72.563,12.68,72.58,15.7,72.58,18.719z"/>
<path fill-rule="evenodd" clip-rule="evenodd" fill="#FDC95D" d="M8.863,15.486c1.179,0.019,2.148,1.011,2.14,2.188
	c-0.008,1.165-1.005,2.157-2.173,2.161c-1.19,0.006-2.243-1.069-2.192-2.24C6.688,16.414,7.688,15.466,8.863,15.486z"/>
<path fill-rule="evenodd" clip-rule="evenodd" fill="#034564" d="M41.806,48.51c0,2.802,0.02,5.607-0.008,8.409
	c-0.017,1.705-1.013,2.64-2.507,2.445c-1.202-0.156-1.882-1.082-1.885-2.623c-0.008-3.937-0.002-7.874-0.002-11.811
	c0-1.669-0.013-3.339,0.005-5.008c0.011-0.976,0.359-1.808,1.291-2.238c0.803-0.369,1.595-0.26,2.299,0.296
	c0.686,0.543,0.809,1.308,0.808,2.119C41.805,42.903,41.806,45.707,41.806,48.51z"/>
<path fill-rule="evenodd" clip-rule="evenodd" fill="#034564" d="M63.825,48.412c0-2.865,0.001-5.73,0-8.596
	c-0.001-0.97,0.398-1.729,1.281-2.135c0.799-0.366,1.595-0.263,2.293,0.312c0.575,0.474,0.799,1.114,0.8,1.838
	c0.002,5.731,0.011,11.461-0.006,17.193c-0.003,1.431-0.88,2.359-2.144,2.381c-1.309,0.021-2.209-0.917-2.221-2.396
	C63.809,54.143,63.824,51.278,63.825,48.412z"/>
<path fill-rule="evenodd" clip-rule="evenodd" fill="#034564" d="M54.996,48.464c0,2.864,0,5.729-0.001,8.596
	c0,0.965-0.374,1.737-1.27,2.142c-0.8,0.359-1.602,0.278-2.301-0.296c-0.606-0.497-0.81-1.18-0.81-1.933
	c-0.003-5.699-0.012-11.398,0.006-17.097c0.006-1.444,0.984-2.453,2.234-2.415c1.253,0.039,2.121,0.976,2.133,2.407
	C55.013,42.733,54.996,45.599,54.996,48.464z"/>
<path fill-rule="evenodd" clip-rule="evenodd" fill="#034564" d="M77.021,48.378c0-2.834-0.024-5.668,0.01-8.502
	c0.022-1.771,1.434-2.813,2.955-2.255c0.922,0.338,1.423,1.207,1.424,2.529c0.005,5.007,0.003,10.014,0.003,15.022
	c0,0.598,0.015,1.196-0.004,1.795c-0.045,1.49-0.904,2.436-2.195,2.438c-1.304,0.002-2.173-0.923-2.186-2.43
	C77.005,54.108,77.021,51.242,77.021,48.378z"/>
</svg>
