<?xml version="1.0" encoding="utf-8"?>
<!-- Generator: Adobe Illustrator 16.0.0, SVG Export Plug-In . SVG Version: 6.00 Build 0)  -->
<!DOCTYPE svg PUBLIC "-//W3C//DTD SVG 1.1//EN" "http://www.w3.org/Graphics/SVG/1.1/DTD/svg11.dtd">
<svg version="1.1" id="Layer_1" xmlns="http://www.w3.org/2000/svg" xmlns:xlink="http://www.w3.org/1999/xlink" x="0px" y="0px"
	 width="100px" height="100px" viewBox="0 0 100 100" enable-background="new 0 0 100 100" xml:space="preserve">
<path fill-rule="evenodd" clip-rule="evenodd" fill="#415A6C" d="M88.765,37.482c0.002,16.434,0.005,32.869,0.002,49.304
	c0,2.335-1.175,3.513-3.509,3.513c-23.504,0.003-47.009,0.003-70.513,0c-2.334,0-3.511-1.177-3.511-3.513
	c-0.004-16.436,0-32.87,0.001-49.304c0.28-0.046,0.559-0.12,0.84-0.135c2.556-0.142,4.663-1.216,6.395-3.068
	c1.332-1.424,1.99-3.181,2.454-5.029c0.096,0.305,0.206,0.605,0.288,0.912c0.952,3.547,3.179,5.955,6.711,6.865
	c3.617,0.932,6.959,0.231,9.705-2.513c1.474-1.473,2.163-3.332,2.69-5.279c0.075,0.275,0.154,0.551,0.226,0.828
	c0.924,3.556,3.137,5.964,6.654,6.949c3.678,1.029,7.01,0.235,9.808-2.484c1.503-1.463,2.198-3.318,2.677-5.292
	c0.087,0.269,0.189,0.534,0.261,0.807c0.989,3.854,3.971,6.67,7.662,7.232c4.291,0.654,8.017-1.045,10.204-4.625
	c0.646-1.057,0.848-2.266,1.268-3.401c0.063,0.164,0.152,0.323,0.187,0.492c0.673,3.245,2.566,5.496,5.549,6.887
	C86.072,37.216,87.435,37.265,88.765,37.482z M58.049,67.771c0,5.744,0.016,11.486-0.018,17.229
	c-0.004,0.858,0.188,1.182,1.121,1.176c6.065-0.042,12.132-0.039,18.198-0.003c0.881,0.005,1.154-0.221,1.151-1.132
	c-0.03-11.414-0.019-22.827-0.021-34.241c-0.001-2.038-0.759-2.791-2.801-2.793c-4.88-0.005-9.763-0.003-14.644,0
	c-2.208,0.001-2.985,0.771-2.986,2.968C58.047,56.573,58.049,62.172,58.049,67.771z M21.519,61.341
	c0,3.623-0.006,7.245,0.002,10.868c0.004,1.776,0.785,2.574,2.55,2.577c7.246,0.007,14.491,0.009,21.736,0
	c1.678-0.004,2.492-0.838,2.494-2.537c0.008-7.245,0.008-14.491-0.001-21.736c-0.002-1.714-0.792-2.503-2.504-2.504
	c-7.245-0.008-14.491-0.007-21.737-0.001c-1.775,0.001-2.535,0.776-2.539,2.572C21.513,54.167,21.519,57.754,21.519,61.341z"/>
<path fill-rule="evenodd" clip-rule="evenodd" fill="#FE7159" d="M40.311,9.734c6.46,0,12.919,0,19.376,0
	c-0.007,4.951-0.014,9.902-0.021,14.853c-6.445-0.002-12.891-0.005-19.337-0.007C40.323,19.632,40.317,14.684,40.311,9.734z"/>
<path fill-rule="evenodd" clip-rule="evenodd" fill="#D5DFEA" d="M59.666,24.587c0.008-4.951,0.015-9.902,0.021-14.853
	c4.602,0.001,9.201,0.002,13.803,0.003c0.723,1.949,1.454,3.895,2.165,5.847c1.09,2.995,2.371,5.919,3.283,8.979
	c-6.394-0.002-12.787-0.003-19.18-0.005L59.666,24.587z"/>
<path fill-rule="evenodd" clip-rule="evenodd" fill="#D5DFEA" d="M40.311,9.734c0.006,4.949,0.012,9.898,0.018,14.847l-0.093-0.028
	c-6.389,0.002-12.777,0.004-19.166,0.006c0.104-0.377,0.182-0.765,0.318-1.13c1.702-4.565,3.413-9.128,5.121-13.691
	C31.11,9.737,35.711,9.736,40.311,9.734z"/>
<path fill-rule="evenodd" clip-rule="evenodd" fill="#FE7159" d="M78.938,24.563c-0.912-3.059-2.193-5.983-3.283-8.978
	c-0.711-1.953-1.442-3.898-2.165-5.847c4.016-0.009,8.028-0.014,12.043-0.032c0.421-0.001,0.738,0.086,1.026,0.436
	c3.909,4.766,7.832,9.519,11.745,14.281c0.077,0.094,0.07,0.257,0.103,0.39c-0.509-0.189-1.033-0.227-1.573-0.227
	c-5.898,0.007-11.796,0.001-17.692-0.002C79.075,24.572,79.007,24.565,78.938,24.563z"/>
<path fill-rule="evenodd" clip-rule="evenodd" fill="#FE7159" d="M26.51,9.738c-1.708,4.563-3.419,9.126-5.121,13.691
	c-0.136,0.366-0.214,0.753-0.318,1.13c-0.069,0.003-0.138,0.011-0.206,0.023C14.462,24.591,8.061,24.6,1.659,24.607
	c1.436-2.05,3.126-3.896,4.7-5.834C8.66,15.936,11,13.132,13.31,10.302c0.315-0.386,0.629-0.607,1.164-0.603
	C18.486,9.729,22.498,9.729,26.51,9.738z"/>
<path fill-rule="evenodd" clip-rule="evenodd" fill="#E64F3B" d="M79.142,24.583c5.896,0.003,11.794,0.009,17.692,0.002
	c0.54,0,1.064,0.037,1.573,0.227c0.093,1.463,0.157,2.934-0.035,4.387c-0.571,4.356-4.05,7.684-8.438,8.143
	c-0.39,0.042-0.78,0.093-1.17,0.14c-1.33-0.217-2.692-0.266-3.952-0.854c-2.982-1.391-4.876-3.643-5.549-6.887
	c-0.034-0.169-0.123-0.328-0.187-0.492C79.099,27.695,79.119,26.139,79.142,24.583z"/>
<path fill-rule="evenodd" clip-rule="evenodd" fill="#E64F3B" d="M1.659,24.607c6.402-0.008,12.804-0.016,19.206-0.024
	c0.02,1.555,0.04,3.11,0.06,4.666c-0.464,1.85-1.122,3.606-2.454,5.03c-1.732,1.852-3.839,2.926-6.395,3.068
	c-0.282,0.016-0.561,0.089-0.84,0.135c-0.673-0.084-1.353-0.131-2.017-0.26c-4.436-0.854-7.622-4.665-7.666-9.203
	C1.542,26.884,1.397,25.737,1.659,24.607z"/>
<path fill-rule="evenodd" clip-rule="evenodd" fill="#D5DFEA" d="M58.049,67.771c0-5.599-0.002-11.197,0.001-16.797
	c0.001-2.197,0.778-2.966,2.986-2.968c4.881-0.003,9.764-0.004,14.644,0c2.042,0.002,2.8,0.755,2.801,2.793
	c0.003,11.414-0.009,22.827,0.021,34.241c0.003,0.911-0.271,1.137-1.151,1.132c-6.066-0.036-12.133-0.039-18.198,0.003
	c-0.934,0.006-1.125-0.317-1.121-1.176C58.064,79.257,58.049,73.515,58.049,67.771z"/>
<path fill-rule="evenodd" clip-rule="evenodd" fill="#D5DFEA" d="M21.519,61.341c0-3.587-0.006-7.174,0.001-10.761
	c0.003-1.796,0.763-2.571,2.539-2.572c7.246-0.006,14.492-0.007,21.737,0.001c1.712,0.001,2.502,0.79,2.504,2.504
	c0.009,7.245,0.009,14.491,0.001,21.736c-0.002,1.699-0.816,2.533-2.494,2.537c-7.245,0.009-14.49,0.007-21.736,0
	c-1.765-0.003-2.546-0.801-2.55-2.577C21.513,68.586,21.519,64.964,21.519,61.341z"/>
<path fill-rule="evenodd" clip-rule="evenodd" fill="#E64F3B" d="M40.329,24.581c6.446,0.002,12.892,0.004,19.337,0.007
	c0,0,0.093-0.029,0.093-0.029c-0.026,1.559-0.052,3.118-0.076,4.676c-0.479,1.974-1.174,3.829-2.677,5.292
	c-2.798,2.72-6.13,3.514-9.808,2.484c-3.517-0.985-5.729-3.393-6.654-6.949c-0.072-0.277-0.151-0.552-0.226-0.827
	c-0.027-1.56-0.055-3.121-0.082-4.682L40.329,24.581z"/>
<path fill-rule="evenodd" clip-rule="evenodd" fill="#AFB5BB" d="M40.236,24.553c0.027,1.562,0.055,3.122,0.082,4.682
	c-0.527,1.947-1.216,3.806-2.69,5.279c-2.746,2.744-6.088,3.444-9.705,2.513c-3.532-0.91-5.759-3.318-6.711-6.865
	c-0.082-0.307-0.191-0.607-0.288-0.912c-0.02-1.556-0.04-3.111-0.06-4.667c0.068-0.012,0.137-0.02,0.206-0.023
	C27.458,24.558,33.847,24.555,40.236,24.553z"/>
<path fill-rule="evenodd" clip-rule="evenodd" fill="#AFB5BB" d="M59.683,29.235c0.024-1.559,0.05-3.117,0.076-4.676
	c6.393,0.001,12.786,0.003,19.18,0.005c0.068,0.002,0.137,0.008,0.203,0.02c-0.022,1.556-0.043,3.112-0.064,4.666
	c-0.42,1.134-0.622,2.343-1.268,3.4c-2.188,3.58-5.913,5.278-10.204,4.625c-3.691-0.563-6.673-3.378-7.662-7.232
	C59.872,29.769,59.77,29.503,59.683,29.235z"/>
</svg>
