<?xml version="1.0" encoding="utf-8"?>
<!-- Generator: Adobe Illustrator 16.0.0, SVG Export Plug-In . SVG Version: 6.00 Build 0)  -->
<!DOCTYPE svg PUBLIC "-//W3C//DTD SVG 1.1//EN" "http://www.w3.org/Graphics/SVG/1.1/DTD/svg11.dtd">
<svg version="1.1" id="Layer_1" xmlns="http://www.w3.org/2000/svg" xmlns:xlink="http://www.w3.org/1999/xlink" x="0px" y="0px"
	 width="100px" height="100px" viewBox="0 0 100 100" enable-background="new 0 0 100 100" xml:space="preserve">
<path fill-rule="evenodd" clip-rule="evenodd" fill="#D59248" d="M51.725,51.713c0.557,0.006,1.114-0.002,1.672,0.016
	c2.015,0.063,3.341,1.421,3.378,3.445c0.011,0.524,0.024,1.048,0.036,1.571c-0.013,0.397-0.036,0.794-0.036,1.188
	c-0.006,8.091-0.008,16.185-0.012,24.276c-7.073,0.004-14.146,0.005-21.218,0.016c-0.423,0-0.861-0.09-1.269,0.114
	c-0.783-0.206-1.581-0.081-2.372-0.098c-4.154-0.015-8.306-0.028-12.459-0.044c-0.004-8.948-0.019-17.896-0.007-26.842
	c0.003-2.261,1.407-3.625,3.689-3.627c8.384-0.013,16.768-0.012,25.151-0.016C49.426,51.713,50.575,51.713,51.725,51.713z
	 M39.069,73.663c-2.848,0-5.695,0.008-8.543-0.01c-0.507-0.004-0.989,0.081-1.46,0.221c-0.713,0.209-1.066,0.754-1.127,1.466
	c-0.059,0.69,0.229,1.227,0.868,1.535c0.542,0.263,1.112,0.371,1.724,0.371c5.629-0.015,11.258-0.006,16.887-0.011
	c1.68,0,2.583-0.634,2.582-1.788c-0.002-1.156-0.902-1.781-2.586-1.784C44.631,73.659,41.85,73.663,39.069,73.663z M39.001,65.309
	c-3.012,0-6.022-0.002-9.034,0c-1.121,0.002-2.032,0.759-2.035,1.683c-0.003,0.936,0.903,1.695,2.054,1.695
	c5.988,0.004,11.979,0.004,17.967,0c1.214-0.002,2.058-0.759,2.046-1.804c-0.011-1.029-0.682-1.572-1.965-1.572
	C45.022,65.307,42.012,65.309,39.001,65.309z M38.916,60.139c3.044,0,6.087,0.002,9.13,0c1.243-0.002,1.95-0.587,1.954-1.6
	c0.003-0.993-0.841-1.775-1.971-1.777c-6.053-0.006-12.107-0.006-18.161,0.002c-1.068,0-1.951,0.806-1.936,1.71
	c0.015,0.894,0.912,1.663,1.953,1.665C32.896,60.141,35.906,60.139,38.916,60.139z"/>
<path fill-rule="evenodd" clip-rule="evenodd" fill="#B8BECB" d="M58.54,27.96c-0.001-5.068,0.007-10.137-0.009-15.206
	c-0.005-1.485,0.662-2.533,1.955-3.182c5.621-2.824,11.243-5.646,16.883-8.436c0.955-0.473,2.014-0.463,2.976,0.015
	C85.981,3.948,91.605,6.77,97.23,9.587c1.308,0.656,1.921,1.708,1.917,3.196c-0.019,8.911-0.007,17.822-0.01,26.734
	c-0.001,1.432-0.524,1.937-1.993,1.943c-1.59,0.007-3.179,0.005-4.769,0.006c-0.008-6.768-0.016-13.536-0.021-20.304
	c0.003-1.656,0.019-3.312,0.005-4.967c-0.008-1.199-0.577-1.792-1.752-1.793c-7.848-0.009-15.696-0.009-23.543,0
	c-1.176,0.001-1.746,0.597-1.755,1.793c-0.015,1.656,0,3.311,0.003,4.967c-0.006,6.766-0.011,13.533-0.015,20.298
	c-1.586,0-3.173,0.005-4.759,0c-1.453-0.005-2-0.531-2.002-1.945c-0.005-2.743,0.002-5.485,0.006-8.228
	C58.544,30.179,58.541,29.07,58.54,27.96z M78.803,9.238c0.563,0,1.127,0.013,1.688-0.002c1.087-0.03,1.703-0.621,1.724-1.628
	c0.019-0.896-0.71-1.697-1.678-1.736c-1.124-0.046-2.253-0.042-3.377-0.001c-0.946,0.035-1.737,0.885-1.7,1.737
	c0.04,0.973,0.712,1.604,1.753,1.63C77.741,9.25,78.271,9.238,78.803,9.238z"/>
<path fill-rule="evenodd" clip-rule="evenodd" fill="#B8BECB" d="M41.458,31.289c0.003,2.742,0.011,5.485,0.006,8.228
	c-0.003,1.413-0.55,1.939-2.001,1.945c-1.587,0.006-3.173,0-4.759,0c-0.004-6.768-0.009-13.537-0.013-20.305
	c0.001-1.655,0.016-3.311,0.001-4.965c-0.009-1.192-0.582-1.787-1.759-1.788c-7.845-0.009-15.69-0.009-23.536,0
	c-1.178,0.002-1.747,0.593-1.756,1.789c-0.013,1.655,0.003,3.311,0.007,4.965c-0.007,6.77-0.014,13.541-0.021,20.311
	c-1.589-0.001-3.18,0-4.77-0.006c-1.469-0.006-1.991-0.511-1.992-1.943c-0.003-8.911,0.009-17.822-0.012-26.733
	c-0.003-1.537,0.662-2.573,2.004-3.244c5.599-2.795,11.19-5.605,16.794-8.388c1.04-0.516,2.141-0.434,3.163,0.073
	c5.604,2.783,11.203,5.577,16.79,8.395c1.253,0.632,1.873,1.694,1.868,3.135c-0.018,5.068-0.01,10.136-0.011,15.205
	C41.459,29.07,41.458,30.179,41.458,31.289z M21.144,9.238c0.563,0,1.127,0.013,1.689-0.003c0.995-0.029,1.632-0.623,1.709-1.573
	c0.065-0.807-0.665-1.73-1.545-1.778c-1.221-0.065-2.453-0.067-3.674,0.001c-0.88,0.051-1.567,0.925-1.534,1.765
	c0.037,0.961,0.642,1.547,1.665,1.584C20.017,9.253,20.582,9.237,21.144,9.238z"/>
<path fill-rule="evenodd" clip-rule="evenodd" fill="#CBCFD9" d="M56.763,82.209c0.004-8.092,0.006-16.186,0.012-24.276
	c0-0.394,0.023-0.79,0.036-1.188c3.384,0.021,6.766,0.042,10.149,0.061c-0.009,2.81-0.048,5.618-0.012,8.426
	c0.024,1.861,1.385,3.38,3.199,3.414c3.468,0.063,6.937-0.008,10.406-0.023c0.019,3.936,0.038,7.872,0.059,11.804
	c0.002,0.598,0.003,1.193,0.006,1.788c-2.913-0.001-5.825-0.007-8.74,0.002c-0.345,0.002-0.739-0.138-1.01,0.229
	c-1.45-0.261-2.899-0.312-4.351,0c-0.271-0.366-0.666-0.227-1.011-0.229C62.592,82.207,59.677,82.209,56.763,82.209z M72.016,77.227
	c0.72-0.073,1.45,0.096,2.165-0.138c0.827-0.271,1.278-0.829,1.258-1.686c-0.018-0.808-0.446-1.417-1.253-1.572
	c-1.401-0.267-2.825-0.263-4.226-0.002c-0.806,0.15-1.238,0.75-1.259,1.568c-0.023,0.859,0.424,1.413,1.246,1.689
	C70.631,77.315,71.327,77.157,72.016,77.227z"/>
<path fill-rule="evenodd" clip-rule="evenodd" fill="#89909F" d="M65.299,41.461c0.004-6.766,0.009-13.532,0.015-20.298
	c9.013,0,18.027,0,27.042,0c0.005,6.768,0.013,13.536,0.021,20.304c-2.261,0.009-4.522,0.018-6.782,0.027
	c0.004-1.591,0.015-3.181,0.01-4.771c-0.005-1.335-0.668-2.009-2.002-2.023c-1.324-0.013-2.651-0.027-3.977,0.007
	c-0.599,0.016-0.817-0.176-0.8-0.791c0.036-1.357,0.023-2.717,0.006-4.076c-0.017-1.212-0.703-1.888-1.929-1.909
	c-0.961-0.018-1.922-0.017-2.882,0c-1.268,0.021-1.944,0.704-1.946,1.992c-0.006,3.844,0.002,7.688,0.006,11.532
	C69.819,41.457,67.559,41.458,65.299,41.461z"/>
<path fill-rule="evenodd" clip-rule="evenodd" fill="#89909F" d="M34.69,21.156c0.004,6.768,0.009,13.537,0.013,20.305
	c-2.261,0.011-4.523,0.022-6.785,0.033c0.004-1.591,0.017-3.182,0.01-4.771c-0.007-1.342-0.676-2.01-2.018-2.023
	c-1.259-0.012-2.521-0.055-3.777,0.015c-0.823,0.046-1.013-0.265-0.981-1.021c0.053-1.291,0.031-2.584,0.009-3.877
	c-0.021-1.163-0.706-1.856-1.856-1.884c-0.994-0.025-1.989-0.021-2.983-0.002c-1.289,0.025-1.92,0.678-1.922,1.986
	c-0.003,3.844,0.003,7.687,0.006,11.531c-2.26,0.007-4.52,0.013-6.779,0.019c0.007-6.77,0.014-13.541,0.021-20.311
	C16.661,21.157,25.675,21.156,34.69,21.156z"/>
<path fill-rule="evenodd" clip-rule="evenodd" fill="#464B55" d="M66.518,82.444c1.451-0.312,2.9-0.261,4.351,0
	c1.806,0.681,3.423,1.61,4.603,3.214c1.137,1.544,1.604,3.281,1.712,5.15c-0.197,3.063-1.467,5.523-4.119,7.153
	c-5.131,3.153-11.827,0.031-12.754-5.924c-0.066-0.423-0.116-0.851-0.174-1.274c0.054-0.753,0.139-1.502,0.341-2.235
	C61.353,85.372,63.506,83.48,66.518,82.444z M68.671,92.348c0.595,0,1.188,0.004,1.783,0c0.983-0.006,1.438-0.648,1.565-1.487
	c0.124-0.806-0.3-1.48-1.086-1.666c-1.485-0.353-3.018-0.353-4.502,0c-0.836,0.198-1.201,0.92-1.09,1.769
	c0.111,0.864,0.664,1.345,1.545,1.381C67.48,92.367,68.076,92.348,68.671,92.348z"/>
<path fill-rule="evenodd" clip-rule="evenodd" fill="#464B55" d="M31.904,82.241c0.792,0.017,1.589-0.108,2.373,0.098
	c0.354,0.073,0.712,0.127,1.06,0.222c2.908,0.773,6.13,3.581,6.188,8.232c-0.386,4.222-2.668,7.183-6.292,8.113
	c-5.355,1.374-10.521-2.404-10.708-8.133c0.08-2.648,1.086-4.856,3.109-6.592C28.872,83.12,30.363,82.631,31.904,82.241z
	 M33.018,92.352c0.529,0,1.058,0.007,1.585-0.002c0.961-0.015,1.811-0.748,1.834-1.567c0.024-0.836-0.745-1.701-1.691-1.756
	c-1.153-0.064-2.316-0.074-3.467,0c-1.061,0.067-1.617,0.781-1.56,1.796c0.053,0.943,0.665,1.496,1.711,1.525
	C31.96,92.363,32.489,92.35,33.018,92.352z"/>
<path fill-rule="evenodd" clip-rule="evenodd" fill="#B8BECB" d="M41.524,90.793c-0.058-4.651-3.28-7.459-6.188-8.232
	c-0.348-0.095-0.706-0.148-1.06-0.222c0.407-0.204,0.845-0.114,1.268-0.114c7.073-0.011,14.145-0.012,21.218-0.016
	c2.914,0,5.829-0.002,8.744,0.007c0.345,0.002,0.74-0.138,1.011,0.229c-3.012,1.036-5.165,2.928-6.041,6.084
	c-0.202,0.733-0.287,1.482-0.341,2.235C53.932,90.773,47.729,90.784,41.524,90.793z"/>
<path fill-rule="evenodd" clip-rule="evenodd" fill="#2983EB" d="M80.554,68.622c-3.47,0.016-6.938,0.087-10.406,0.023
	c-1.814-0.034-3.175-1.553-3.199-3.414c-0.036-2.808,0.003-5.616,0.012-8.426c2.014,0.008,4.049-0.174,6.037,0.06
	c4.573,0.54,7.479,3.979,7.565,8.686C80.583,66.573,80.557,67.6,80.554,68.622z"/>
<path fill-rule="evenodd" clip-rule="evenodd" fill="#E49E5A" d="M14.406,41.448c-0.003-3.844-0.01-7.688-0.006-11.531
	c0.001-1.308,0.633-1.961,1.922-1.986c0.994-0.019,1.989-0.023,2.983,0.002c1.15,0.028,1.836,0.721,1.856,1.884
	c0.022,1.292,0.044,2.586-0.009,3.877c-0.031,0.755,0.159,1.067,0.981,1.021c1.256-0.07,2.518-0.027,3.777-0.015
	c1.342,0.013,2.01,0.681,2.018,2.023c0.007,1.59-0.005,3.181-0.01,4.771c-1.706,0.234-3.419,0.075-5.129,0.094
	c-2.475,0.029-4.951,0.003-7.427-0.01C15.042,41.578,14.699,41.675,14.406,41.448z"/>
<path fill-rule="evenodd" clip-rule="evenodd" fill="#E49E5A" d="M72.08,41.455c-0.004-3.844-0.012-7.688-0.006-11.532
	c0.002-1.288,0.679-1.971,1.946-1.992c0.96-0.016,1.921-0.017,2.882,0c1.226,0.021,1.912,0.697,1.929,1.909
	c0.018,1.358,0.03,2.718-0.006,4.076c-0.018,0.615,0.201,0.807,0.8,0.791c1.325-0.035,2.652-0.021,3.977-0.007
	c1.334,0.014,1.997,0.688,2.002,2.023c0.005,1.59-0.006,3.181-0.01,4.771c-1.674,0.235-3.354,0.075-5.031,0.094
	c-2.508,0.029-5.015,0.003-7.523-0.01C72.718,41.578,72.376,41.676,72.08,41.455z"/>
<path fill-rule="evenodd" clip-rule="evenodd" fill="#464B55" d="M41.458,31.289c0-1.109,0.001-2.219,0.003-3.328
	c1.225-0.005,2.452-0.047,3.676-0.01c1.685,0.052,3.161,0.672,4.393,1.823c0.302,0.282,0.488,0.453,0.875,0.076
	c1.484-1.451,3.31-1.993,5.354-1.92c0.926,0.033,1.854,0.022,2.78,0.031c0.001,1.109,0.004,2.218,0.004,3.328
	c-1.09,0.01-2.18,0.014-3.271,0.032c-2.142,0.036-3.548,1.389-3.556,3.541c-0.022,5.618,0.001,11.235,0.007,16.852
	c-1.15,0-2.298,0-3.447,0c0.006-5.617,0.031-11.234,0.007-16.852c-0.01-2.199-1.425-3.517-3.656-3.542
	C43.572,31.307,42.515,31.298,41.458,31.289z"/>
<path fill-rule="evenodd" clip-rule="evenodd" fill="#B8BECB" d="M31.904,82.241c-1.541,0.39-3.032,0.879-4.271,1.94
	c-2.023,1.735-3.029,3.943-3.109,6.592c-2.088-0.008-4.174-0.01-6.262-0.025c-1.586-0.009-2.232-0.65-2.244-2.227
	c-0.011-1.326-0.008-2.653-0.001-3.978c0.007-1.71,0.625-2.321,2.336-2.328c0.364-0.002,0.728-0.013,1.092-0.019
	C23.598,82.213,27.75,82.227,31.904,82.241z"/>
<path fill-rule="evenodd" clip-rule="evenodd" fill="#B8BECB" d="M77.183,90.809c-0.107-1.869-0.575-3.606-1.712-5.15
	c-1.18-1.604-2.797-2.533-4.603-3.214c0.271-0.366,0.665-0.227,1.01-0.229c2.915-0.009,5.827-0.003,8.74-0.002
	c3.252-0.199,3.459,0.726,3.371,3.361c-0.017,0.493-0.002,0.989-0.002,1.484c0,3.569-0.126,3.687-3.741,3.695
	C79.225,90.755,78.203,90.789,77.183,90.809z"/>
<path fill-rule="evenodd" clip-rule="evenodd" fill="#C07F3E" d="M39.069,73.663c2.781,0,5.563-0.004,8.345,0
	c1.684,0.003,2.584,0.628,2.586,1.784c0.001,1.154-0.902,1.788-2.582,1.788c-5.629,0.005-11.258-0.004-16.887,0.011
	c-0.612,0-1.183-0.108-1.724-0.371c-0.639-0.309-0.926-0.845-0.868-1.535c0.061-0.712,0.414-1.257,1.127-1.466
	c0.471-0.14,0.954-0.225,1.46-0.221C33.374,73.671,36.221,73.663,39.069,73.663z"/>
<path fill-rule="evenodd" clip-rule="evenodd" fill="#C07F3E" d="M39.001,65.309c3.011,0,6.021-0.002,9.034,0.002
	c1.283,0,1.954,0.543,1.965,1.572c0.012,1.045-0.832,1.802-2.046,1.804c-5.989,0.004-11.979,0.004-17.967,0
	c-1.151,0-2.058-0.76-2.054-1.695c0.003-0.924,0.915-1.681,2.035-1.683C32.979,65.307,35.989,65.309,39.001,65.309z"/>
<path fill-rule="evenodd" clip-rule="evenodd" fill="#C07F3E" d="M38.916,60.139c-3.009,0-6.02,0.002-9.03,0
	c-1.041-0.002-1.938-0.771-1.953-1.665c-0.016-0.904,0.868-1.71,1.936-1.71c6.054-0.008,12.108-0.008,18.161-0.002
	c1.13,0.002,1.975,0.784,1.971,1.777c-0.004,1.013-0.711,1.598-1.954,1.6C45.003,60.141,41.959,60.139,38.916,60.139z"/>
<path fill-rule="evenodd" clip-rule="evenodd" fill="#89909F" d="M78.803,9.238c-0.531,0-1.062,0.011-1.591-0.002
	c-1.041-0.025-1.713-0.657-1.753-1.63c-0.037-0.852,0.754-1.702,1.7-1.737c1.124-0.041,2.253-0.045,3.377,0.001
	c0.968,0.039,1.696,0.841,1.678,1.736c-0.021,1.008-0.637,1.598-1.724,1.628C79.93,9.251,79.365,9.238,78.803,9.238z"/>
<path fill-rule="evenodd" clip-rule="evenodd" fill="#89909F" d="M21.144,9.237c-0.563,0-1.127,0.016-1.69-0.003
	c-1.023-0.037-1.628-0.623-1.665-1.584c-0.034-0.839,0.653-1.714,1.534-1.765c1.222-0.069,2.454-0.067,3.674-0.001
	c0.881,0.048,1.611,0.971,1.545,1.778c-0.078,0.95-0.714,1.544-1.709,1.573C22.271,9.251,21.707,9.238,21.144,9.237z"/>
<path fill-rule="evenodd" clip-rule="evenodd" fill="#89909F" d="M72.015,77.225c-0.688-0.067-1.384,0.091-2.067-0.138
	c-0.822-0.276-1.27-0.83-1.246-1.689c0.021-0.818,0.453-1.418,1.259-1.568c1.4-0.261,2.824-0.265,4.226,0.002
	c0.807,0.155,1.235,0.765,1.253,1.572c0.021,0.856-0.431,1.415-1.258,1.686C73.466,77.322,72.735,77.153,72.015,77.225z"/>
<path fill-rule="evenodd" clip-rule="evenodd" fill="#89909F" d="M68.671,92.348c-0.595,0-1.19,0.02-1.784-0.004
	c-0.881-0.036-1.434-0.517-1.545-1.381c-0.111-0.849,0.254-1.57,1.09-1.769c1.484-0.353,3.017-0.353,4.502,0
	c0.786,0.186,1.21,0.86,1.086,1.666c-0.128,0.839-0.582,1.481-1.565,1.487C69.859,92.352,69.266,92.348,68.671,92.348z"/>
<path fill-rule="evenodd" clip-rule="evenodd" fill="#89909F" d="M33.018,92.352c-0.529-0.002-1.058,0.012-1.586-0.004
	c-1.047-0.029-1.658-0.582-1.711-1.525c-0.058-1.015,0.499-1.729,1.56-1.796c1.151-0.074,2.314-0.064,3.467,0
	c0.946,0.055,1.715,0.92,1.691,1.756c-0.023,0.819-0.873,1.553-1.834,1.567C34.076,92.358,33.547,92.352,33.018,92.352z"/>
</svg>
